<?xml version="1.0" encoding="utf-8"?>
<svg xmlns="http://www.w3.org/2000/svg" fill="none" height="21" viewBox="0 0 77 21" width="77">
<path d="M38.6068 1.21662C37.8294 1.19557 37.0733 1.44591 36.4981 1.91479C36.2168 2.14083 35.9908 2.41657 35.8342 2.72466C35.6777 3.03276 35.5941 3.36653 35.5886 3.70498C35.5809 4.03857 35.6506 4.36996 35.7934 4.67813C35.9362 4.98631 36.1489 5.26454 36.4181 5.49517C36.9564 5.96032 37.6693 6.22849 38.4169 6.24705H38.4669C38.964 6.2432 39.4532 6.13595 39.8961 5.93377L39.976 5.88902V4.8149L39.6962 5.02077C39.3287 5.29364 38.8643 5.43969 38.387 5.43252C37.877 5.42319 37.3918 5.23331 37.0378 4.90441C36.6955 4.58478 36.5087 4.15671 36.5181 3.71394C36.5233 3.48941 36.5778 3.268 36.6786 3.06235C36.7793 2.85671 36.9243 2.67086 37.1053 2.51542C37.2863 2.35998 37.4997 2.238 37.7333 2.15644C37.9669 2.07489 38.2162 2.03536 38.4669 2.04011C38.9355 2.04873 39.3868 2.2003 39.7461 2.46975L40.016 2.67562V1.61941L39.936 1.57466C39.5099 1.34689 39.0231 1.22629 38.5269 1.22557" fill="#2B3785"/>
<path d="M42.635 1.39675L42.541 6.22058L43.5309 6.23606L43.6249 1.41223L42.635 1.39675Z" fill="#2B3785"/>
<path d="M49.1205 3.63333C49.3607 3.41847 49.5031 3.13137 49.5203 2.82775C49.5435 2.60035 49.4938 2.37173 49.3769 2.16878C49.2601 1.96582 49.081 1.79695 48.8607 1.68202C48.4219 1.48238 47.9333 1.38685 47.4415 1.40454H46.632L46.5421 6.2291H47.9412H48.0012C48.4566 6.24127 48.9067 6.13895 49.3004 5.93372C49.5066 5.81785 49.6764 5.65672 49.7936 5.4656C49.9108 5.27449 49.9715 5.05974 49.97 4.84171C49.9704 4.58782 49.8909 4.33898 49.7406 4.12369C49.5904 3.90839 49.3755 3.73535 49.1205 3.62438M47.5715 4.14353H47.8113C48.351 4.14353 48.9906 4.26885 48.9806 4.77905C48.9806 4.94017 48.9806 5.43247 47.8813 5.41457H47.5415L47.5715 4.14353ZM48.311 3.29319C48.0864 3.38662 47.8377 3.42374 47.5914 3.40061V2.19223C47.8357 2.18361 48.0787 2.22653 48.301 2.31754C48.4109 2.3802 48.5409 2.48761 48.5409 2.80984C48.5409 3.13208 48.391 3.23949 48.281 3.29319" fill="#2B3785"/>
<path d="M62.3026 2.03117C61.6722 1.61494 60.907 1.39489 60.1239 1.40461H58.8647L58.7647 6.23812H60.004H60.0939C60.8631 6.2674 61.6217 6.06924 62.2526 5.67421C62.5612 5.46435 62.8119 5.19377 62.9852 4.88337C63.1584 4.57297 63.2498 4.23105 63.252 3.88402C63.2662 3.54374 63.1923 3.20513 63.0363 2.89461C62.8803 2.58409 62.6463 2.31004 62.3526 2.09383M59.8841 2.2818H59.954C60.5361 2.2601 61.1125 2.39074 61.613 2.65774C61.8212 2.79541 61.9884 2.97681 62.1 3.18596C62.2115 3.39511 62.2639 3.6256 62.2526 3.85717C62.2526 5.18191 60.9434 5.43253 59.8841 5.42358H59.8141L59.8841 2.2818Z" fill="#2B3785"/>
<path d="M68.6288 2.2281L68.6488 1.41357L65.4807 1.35986L65.3908 6.19338L68.5489 6.23813L68.5689 5.42359L66.3902 5.38779L66.4201 3.97354L68.5289 4.00934L68.5489 3.19481L66.4301 3.159L66.4501 2.1923L68.6288 2.2281Z" fill="#2B3785"/>
<path d="M75.4747 0.921238L73.5259 4.58218L71.727 0.858582L70.4078 6.19335L71.4271 6.2023L72.0268 3.54387L73.4959 6.54243L75.075 3.58862L75.5747 6.27391L76.594 6.29181L75.4747 0.921238Z" fill="#2B3785"/>
<path d="M31.5111 0.983887L28.6328 6.15753L29.7022 6.16648L31.4911 2.90834L33.1201 6.22019L34.1995 6.23809L31.5111 0.983887Z" fill="#2B3785"/>
<path d="M54.3974 0.983887L51.5091 6.15753L52.5785 6.16648L54.3674 2.90834L55.9964 6.22019L57.0758 6.23809L54.3974 0.983887Z" fill="#2B3785"/>
<path d="M31.2712 10.1944L31.0814 10.1139C30.8715 10.0333 30.6916 9.96169 30.4617 9.89008C30.3184 9.8645 30.1885 9.797 30.0927 9.69817C29.9968 9.59934 29.9403 9.47479 29.932 9.34407C29.9305 9.27703 29.9448 9.21045 29.9741 9.14874C30.0034 9.08702 30.047 9.03157 30.1019 8.98603C30.2523 8.87256 30.4453 8.81491 30.6416 8.82492C30.9467 8.8503 31.2309 8.97441 31.4411 9.174L31.5611 9.29932L32.1707 8.6638L32.0708 8.56534C31.8939 8.38899 31.6784 8.24712 31.4377 8.14857C31.197 8.05001 30.9362 7.99688 30.6716 7.99248C30.23 7.97438 29.7962 8.10174 29.4523 8.35052C29.2848 8.47707 29.1498 8.63459 29.0567 8.81227C28.9635 8.98995 28.9144 9.18359 28.9126 9.37988C28.9104 9.66302 29.005 9.93998 29.1837 10.1736C29.3623 10.4072 29.6165 10.5863 29.9121 10.6867L30.2319 10.8031L30.6516 10.9642C31.1213 11.1432 31.3112 11.3401 31.3012 11.6266C31.3036 11.7128 31.2831 11.7984 31.2414 11.8762C31.1997 11.954 31.138 12.0218 31.0614 12.0741C30.8804 12.1877 30.6625 12.2444 30.4417 12.2352C30.2436 12.2169 30.0522 12.1611 29.8799 12.0716C29.7076 11.9821 29.5585 11.8609 29.4423 11.7161L29.3324 11.5908L28.5928 12.1815L28.7028 12.2889C28.9118 12.538 29.1816 12.7409 29.4917 12.8821C29.8018 13.0233 30.1439 13.099 30.4917 13.1035C30.9493 13.1026 31.3918 12.9567 31.741 12.6917C31.9566 12.5241 32.1199 12.3091 32.2149 12.068C32.3099 11.8268 32.3334 11.5677 32.283 11.316C32.2327 11.0642 32.1102 10.8285 31.9276 10.6319C31.7449 10.4353 31.5085 10.2846 31.2413 10.1944" fill="#3462A8"/>
<path d="M49.6302 8.77123C49.1047 8.2845 48.3871 8.00171 47.6314 7.98354C47.2571 7.97641 46.885 8.03613 46.5368 8.15922C46.1886 8.28231 45.8712 8.46631 45.6033 8.70046C45.3353 8.93462 45.1221 9.21424 44.9762 9.523C44.8302 9.83176 44.7544 10.1635 44.7531 10.4988C44.744 11.1618 45.0195 11.8026 45.5227 12.2889C45.7816 12.5315 46.0915 12.726 46.4345 12.8612C46.7774 12.9963 47.1468 13.0696 47.5215 13.0766H47.5815C48.3251 13.0828 49.0421 12.8291 49.5803 12.3695C49.8506 12.1383 50.0661 11.8605 50.2138 11.5529C50.3615 11.2453 50.4383 10.9142 50.4397 10.5793C50.4582 9.89346 50.1828 9.22729 49.6702 8.71752M47.5115 12.1457C47.2806 12.1487 47.0513 12.1107 46.8369 12.0339C46.6225 11.957 46.4272 11.843 46.2622 11.6982C45.9336 11.3734 45.7612 10.9456 45.7825 10.5077C45.7756 10.2968 45.8169 10.0868 45.9039 9.89075C45.9908 9.69464 46.1216 9.51653 46.2882 9.36733C46.4548 9.21812 46.6537 9.10099 46.8726 9.02311C47.0916 8.94523 47.326 8.90825 47.5615 8.91444C47.8005 8.91091 48.0377 8.95207 48.258 9.0353C48.4783 9.11852 48.6767 9.24198 48.8407 9.39779C49.15 9.72404 49.3106 10.1427 49.2904 10.5704C49.3005 10.7812 49.2613 10.9916 49.1752 11.188C49.0891 11.3844 48.9581 11.5626 48.7905 11.7109C48.623 11.8593 48.4226 11.9746 48.2024 12.0495C47.9821 12.1244 47.7468 12.1572 47.5115 12.1457Z" fill="#3462A8"/>
<path d="M54.4973 11.0179C54.8432 10.944 55.1502 10.7658 55.3668 10.5132C55.5834 10.2606 55.6963 9.94888 55.6866 9.63049C55.6945 9.44334 55.6605 9.25666 55.5867 9.08143C55.5129 8.9062 55.4008 8.74594 55.2568 8.61008C54.9643 8.33447 54.5619 8.1736 54.1375 8.16254H52.4885L52.3686 13.0408H53.368V11.1074L54.8271 13.0587H56.0564L54.4973 11.0179ZM54.6272 9.62154C54.6272 10.078 54.3874 10.275 53.8377 10.266H53.4379V9.01288H53.8977C54.3674 9.01288 54.6072 9.2277 54.5972 9.62154" fill="#3462A8"/>
<path d="M57.2956 8.16254L57.2756 9.05763L58.395 9.07553L58.315 13.0856L59.3444 13.1035L59.4243 9.08448L60.5537 9.10239L60.5737 8.21624L57.2956 8.16254Z" fill="#3462A8"/>
<path d="M34.5529 8.657L34.4657 13.087L35.4955 13.1033L35.5827 8.67326L34.5529 8.657Z" fill="#3462A8"/>
<path d="M35.0793 8.4579C35.1603 8.45909 35.2407 8.44584 35.3158 8.41893C35.391 8.39203 35.4594 8.352 35.5171 8.30118C35.5748 8.25036 35.6207 8.18976 35.652 8.12293C35.6832 8.05609 35.6993 7.98435 35.6993 7.91189C35.702 7.83827 35.6883 7.76491 35.6589 7.69608C35.6296 7.62726 35.5852 7.56436 35.5285 7.51104C35.4717 7.45771 35.4036 7.41504 35.3282 7.38551C35.2528 7.35598 35.1716 7.34018 35.0893 7.33903C34.9233 7.33727 34.7626 7.39161 34.6393 7.4912C34.5205 7.59495 34.4522 7.73648 34.4493 7.88504C34.4466 7.95941 34.4607 8.0335 34.4907 8.10291C34.5206 8.17232 34.5659 8.23563 34.6237 8.28908C34.6815 8.34252 34.7508 8.38501 34.8274 8.41401C34.9039 8.44301 34.9862 8.45794 35.0693 8.4579" fill="#3462A8"/>
<path d="M64.1215 7.91193L61.2533 13.0856H62.3326L62.9722 11.913H65.1509L65.7506 13.1214H66.8199L64.1215 7.91193ZM64.1215 9.83638L64.7512 11.1164H63.4319L64.1215 9.83638Z" fill="#3462A8"/>
<path d="M40.7056 10.3555V11.1701H41.8949C41.8342 11.4656 41.6536 11.7305 41.3879 11.9139C41.1222 12.0973 40.7902 12.1863 40.4557 12.1636C40.2129 12.1619 39.973 12.1153 39.7511 12.0269C39.5292 11.9385 39.33 11.81 39.1659 11.6497C39.0018 11.4893 38.8764 11.3003 38.7974 11.0946C38.7184 10.8889 38.6876 10.6709 38.7068 10.454C38.7115 10.0335 38.8813 9.62787 39.1865 9.30828C39.3347 9.1523 39.5206 9.02855 39.7301 8.94636C39.9396 8.86418 40.1672 8.82571 40.3958 8.83388C40.687 8.83558 40.9738 8.8989 41.2325 9.01867C41.4913 9.13844 41.7148 9.31128 41.8849 9.5231L41.9848 9.66632L42.7843 9.05765L42.6644 8.94129C42.3878 8.64114 42.0416 8.39842 41.6499 8.22996C41.2582 8.06149 40.8303 7.9713 40.3958 7.96564C40.0351 7.95995 39.677 8.02056 39.3435 8.14373C39.01 8.26689 38.7083 8.44999 38.4569 8.68171C37.9391 9.16246 37.6491 9.80395 37.6474 10.4719C37.6354 10.8095 37.6987 11.1458 37.8334 11.4612C37.9682 11.7766 38.1718 12.0648 38.4323 12.309C38.6928 12.5531 39.005 12.7484 39.3507 12.8832C39.6964 13.0181 40.0687 13.0899 40.4457 13.0945C40.7684 13.0981 41.0886 13.0439 41.3875 12.9349C41.6864 12.826 41.9579 12.6646 42.1861 12.4603C42.4143 12.2559 42.5945 12.0127 42.7161 11.745C42.8377 11.4773 42.8983 11.1905 42.8943 10.9015V10.3555H40.7056Z" fill="#3462A8"/>
<path d="M22.9063 0.0350952H0V20.5507H22.9063V0.0350952Z" fill="#3462A8"/>
<path d="M21.4471 6.3097C21.181 6.3165 20.9152 6.28937 20.6576 6.22914C20.4156 6.13681 20.19 6.01317 19.988 5.86215L19.6382 5.62943C19.5257 5.55288 19.3896 5.50913 19.2485 5.50412C19.1491 5.51338 19.0529 5.54032 18.9654 5.58336C18.8778 5.6264 18.8008 5.68467 18.7388 5.75474C18.4345 6.07819 18.1541 6.41905 17.8993 6.77515C17.8993 6.77515 17.8993 6.7304 17.8993 6.71249C17.8993 6.09488 17.7893 2.72037 17.7094 1.70891C17.7094 1.26137 17.5295 0.983887 17.3096 0.983887C17.0898 0.983887 16.8799 1.18976 16.71 1.77157C16.3002 3.25743 15.4208 6.55138 15.041 8.2252H14.961C14.961 8.04619 14.8811 7.85822 14.8411 7.68815C14.7875 7.27042 14.6522 6.8644 14.4413 6.48872C14.2215 6.21124 13.8917 6.19334 13.4919 6.42606L13.2321 6.61403C12.9692 6.85975 12.612 7.00692 12.2327 7.02578H7.47552L7.35559 7.58073H12.2826C12.7356 7.54948 13.1674 7.39663 13.5219 7.14214C13.612 7.06932 13.7226 7.01982 13.8417 6.99892C13.9416 6.99892 13.9916 7.09738 14.0316 7.24955C14.0716 7.40172 14.0816 7.41962 14.1015 7.53598C14.2078 8.00226 14.3446 8.46254 14.5113 8.91443C14.5912 9.1024 14.7212 9.20981 14.8611 9.20981C15.001 9.20981 15.2908 8.97708 15.4108 8.628C15.5307 8.27891 16.5701 4.31364 16.9898 2.70247V2.60401C16.9898 2.60401 16.9898 2.5503 17.0398 2.5503C17.0539 2.55244 17.0667 2.55903 17.0759 2.56888C17.085 2.57873 17.0899 2.59119 17.0897 2.60401C17.0897 4.23308 17.2097 7.07948 17.3396 7.38381C17.4695 7.68815 17.5295 7.63444 17.6794 7.63444C17.7833 7.62167 17.8824 7.58755 17.9691 7.53476C18.0558 7.48196 18.1277 7.41192 18.1791 7.33011L18.4389 6.98997C18.6788 6.67669 18.9386 6.31865 19.0186 6.24704C19.0985 6.17544 19.2784 6.13068 19.4683 6.24704L19.5683 6.3097C19.853 6.49591 20.1705 6.63811 20.5077 6.7304C20.7732 6.78437 21.0451 6.80842 21.3172 6.802H21.677L21.7769 6.2918H21.4371M9.02459 3.32008C9.91405 3.36484 9.64422 5.02076 8.69479 4.97601C7.74536 4.93125 8.04518 3.26638 9.02459 3.32008ZM7.63542 6.24704L7.90526 4.98496C7.99791 5.1179 8.1279 5.22672 8.28224 5.30055C8.43658 5.37438 8.60985 5.41062 8.78473 5.40565C8.97504 5.40332 9.16297 5.36743 9.33779 5.30004C9.51261 5.23265 9.6709 5.13507 9.80361 5.01289C9.93632 4.8907 10.0409 4.7463 10.1113 4.58793C10.1816 4.42955 10.2165 4.26031 10.2139 4.08987C10.2738 3.34694 9.78413 2.91729 9.21447 2.91729C9.02032 2.91027 8.82727 2.94669 8.65278 3.02327C8.47828 3.09985 8.32785 3.21416 8.21507 3.35589C8.22444 3.31131 8.22221 3.2654 8.20857 3.22172C8.19492 3.17804 8.17023 3.13776 8.13641 3.104C8.10258 3.07024 8.06053 3.04391 8.01351 3.02706C7.96649 3.0102 7.91577 3.00327 7.86528 3.0068H7.6754C7.6754 3.0068 7.18569 5.55782 7.11573 5.86215C7.09699 5.91253 7.09167 5.96613 7.10021 6.01868C7.10875 6.07122 7.1309 6.12125 7.1649 6.16475C7.1989 6.20825 7.2438 6.24402 7.296 6.26919C7.3482 6.29436 7.40626 6.30823 7.46552 6.3097L7.63542 6.24704ZM6.63602 2.94414H6.45613L6.1763 4.3942C6.17151 4.4728 6.14869 4.54967 6.10925 4.62002C6.06982 4.69037 6.01462 4.75269 5.9471 4.80308C5.87958 4.85347 5.80119 4.89086 5.71682 4.91292C5.63245 4.93497 5.54391 4.94121 5.45673 4.93125C5.38708 4.93723 5.31685 4.92824 5.25186 4.90503C5.18687 4.88181 5.12901 4.84504 5.08307 4.79778C5.03714 4.75051 5.00446 4.69411 4.98775 4.63325C4.97104 4.5724 4.97079 4.50886 4.98701 4.4479C4.98701 4.32259 5.18689 3.37379 5.20688 3.29323C5.25685 3.0426 5.007 2.94414 4.80712 2.94414H4.65721C4.65721 3.14106 4.45733 3.9735 4.38737 4.29574C4.37379 4.41178 4.37379 4.52878 4.38737 4.64482C4.43409 4.85005 4.55969 5.0341 4.7423 5.16494C4.92491 5.29578 5.15297 5.36512 5.38677 5.3609C5.5469 5.37976 5.7096 5.37018 5.86559 5.3327C6.02158 5.29521 6.16779 5.23057 6.29587 5.14246C6.42395 5.05434 6.53139 4.94449 6.61205 4.81917C6.69271 4.69385 6.745 4.55553 6.76594 4.4121C6.76594 4.24203 6.98581 3.38274 6.9958 3.29323C7.00369 3.24732 6.99974 3.20041 6.98425 3.15608C6.96877 3.11175 6.94216 3.07119 6.90647 3.03749C6.87078 3.0038 6.82695 2.97787 6.77834 2.96169C6.72973 2.94551 6.67763 2.9395 6.62603 2.94414M2.92825 3.39169C2.79877 3.40532 2.66796 3.40532 2.53848 3.39169H2.08875L2.29862 2.33548H2.88827C3.58785 2.33548 3.52789 3.18582 2.88827 3.36484M2.63842 4.87755C2.48866 4.88607 2.33845 4.88607 2.18869 4.87755H1.74895L1.96882 3.76763H2.61843C3.46792 3.76763 3.39796 4.66273 2.61843 4.85965M4.01759 2.72932C4.01759 2.19226 3.63782 1.95059 2.95823 1.95059H1.76894L1.10934 5.27139H2.28863C2.51477 5.28816 2.74208 5.28816 2.96822 5.27139C3.21918 5.23621 3.45118 5.13058 3.63079 4.96971C3.8104 4.80885 3.92834 4.60106 3.96762 4.3763C4.00367 4.19989 3.96254 4.01782 3.85276 3.86784C3.74298 3.71786 3.57297 3.61147 3.37798 3.57071C3.57978 3.52248 3.75964 3.41884 3.89229 3.27435C4.02494 3.12986 4.10371 2.95178 4.11753 2.76513M12.1127 3.26638C13.1121 3.31113 12.7623 4.96706 11.7829 4.91335C10.8035 4.85965 11.1733 3.22162 12.1127 3.26638ZM11.613 5.35195C11.8098 5.36923 12.008 5.3364 12.1848 5.25722C12.3616 5.17804 12.5098 5.05574 12.6124 4.9044C12.6034 4.94938 12.6057 4.99561 12.6194 5.03965C12.633 5.0837 12.6575 5.12443 12.6911 5.15882C12.7247 5.19322 12.7665 5.22039 12.8135 5.23833C12.8604 5.25627 12.9112 5.26451 12.9622 5.26244H13.1321L13.5918 2.89044H13.0222L12.9422 3.25743C12.8539 3.12354 12.726 3.01419 12.5725 2.9415C12.419 2.86882 12.246 2.83565 12.0728 2.84568C11.7003 2.85685 11.3466 2.99434 11.0831 3.23033C10.8196 3.46632 10.6661 3.78317 10.6536 4.11672C10.6168 4.25557 10.6145 4.39996 10.6468 4.5397C10.6791 4.67945 10.7452 4.81115 10.8405 4.92552C10.9358 5.03989 11.0579 5.13415 11.1983 5.20164C11.3387 5.26913 11.4939 5.30822 11.653 5.31615" fill="white"/>
</svg>