<svg width="125" height="64" viewBox="0 0 125 64" fill="none" xmlns="http://www.w3.org/2000/svg">
<rect width="125" height="64" rx="8" fill="white"/>
<g clip-path="url(#clip0_335_979)">
<path d="M83.4633 44.1043V43.4331L84.142 43.831L83.8763 44.346L83.4622 44.1043H83.4633ZM83.4633 42.8628V41.5899C83.5023 41.629 83.5337 41.6756 83.5565 41.7146C83.627 41.8317 83.6736 41.9488 83.6812 42.0735C83.6964 42.1906 83.6812 42.3077 83.6573 42.4009C83.6183 42.518 83.5554 42.6742 83.4622 42.8617L83.4633 42.8628ZM83.4633 40.5751V39.9506L84.142 40.2086L84.2439 39.9116C84.322 39.6926 84.361 39.5364 84.3534 39.4584C84.3534 39.3727 84.3295 39.2946 84.2905 39.2318C84.2439 39.1689 84.181 39.1223 84.1105 39.0908C84.0173 39.0594 83.923 39.0594 83.8449 39.0908C83.7668 39.1223 83.6964 39.1841 83.6497 39.2708C83.6183 39.3337 83.5641 39.4584 83.5012 39.6611L83.4622 39.7706V38.6463C83.5402 38.5758 83.6259 38.5216 83.7354 38.4826C83.9067 38.4284 84.0867 38.4435 84.297 38.5216C84.4532 38.5845 84.5778 38.6625 84.6635 38.7634C84.7491 38.8729 84.812 38.9824 84.8435 39.0995C84.8673 39.2166 84.8749 39.3261 84.8673 39.4356C84.8435 39.5765 84.7893 39.7717 84.7036 40.0211L84.5789 40.38L85.5547 40.7551L85.3671 41.3091L83.4622 40.5751H83.4633ZM86.4058 38.0619L83.7365 37.3517L83.8688 36.7814L86.5381 37.4916L86.4058 38.0619ZM86.8037 36.2816L84.0715 35.8761L84.1496 35.3058L86.125 34.3929L84.3057 34.1272L84.3762 33.5808L87.1084 33.9863L87.0303 34.5718L85.0939 35.4695L86.8742 35.7351L86.8037 36.2816ZM86.1641 31.8005L85.7033 31.7853L85.7423 30.5124L86.8428 30.5515C86.9523 30.6838 87.0455 30.8637 87.1236 31.1055C87.1941 31.3397 87.2331 31.5815 87.2255 31.8157C87.2179 32.1128 87.1474 32.3773 87.0152 32.5963C86.8905 32.8229 86.7105 32.9866 86.4839 33.0886C86.2573 33.1981 86.0079 33.2447 85.7423 33.2371C85.4539 33.2295 85.2034 33.1514 84.9855 33.0181C84.7665 32.8771 84.6028 32.6906 84.4933 32.4402C84.4076 32.245 84.3686 32.0108 84.3762 31.7452C84.3913 31.3787 84.4694 31.1055 84.618 30.9017C84.7665 30.7065 84.9692 30.5818 85.2273 30.5352L85.3129 31.1207C85.172 31.1597 85.0636 31.2302 84.9855 31.3397C84.8998 31.4492 84.8608 31.5891 84.8532 31.7615C84.8456 32.0108 84.9161 32.2223 85.0636 32.3784C85.211 32.5345 85.4387 32.6202 85.7423 32.6278C86.0697 32.6429 86.3126 32.5736 86.4839 32.425C86.6552 32.2765 86.7419 32.0813 86.7495 31.8395C86.7495 31.7148 86.7344 31.5902 86.6953 31.4644C86.6487 31.3397 86.6021 31.2302 86.5392 31.137L86.1879 31.1294L86.1641 31.8005ZM83.4633 38.6463V39.7706L83.409 39.9267L83.4633 39.9506V40.5751L82.7759 40.3095L83.0805 39.4269C83.1976 39.0908 83.2909 38.8729 83.3462 38.7786C83.3852 38.7319 83.4166 38.6853 83.4633 38.6463ZM83.4633 41.5889V42.8617C83.4481 42.8932 83.4318 42.9246 83.409 42.9637L83.2377 43.2998L83.4643 43.432V44.1032L82.3563 43.4548V42.7837L82.8246 43.0569L82.9732 42.7761C83.0827 42.5733 83.1369 42.4248 83.1532 42.3467C83.1608 42.2611 83.1532 42.183 83.1141 42.1125C83.0827 42.0421 83.0285 41.9879 82.958 41.9488C82.8724 41.8946 82.7867 41.8783 82.7 41.9022C82.6143 41.9174 82.5438 41.9727 82.4896 42.0431C82.4582 42.0822 82.4116 42.1527 82.3573 42.2459V41.4186C82.4506 41.3482 82.5601 41.3015 82.6848 41.2864C82.8561 41.2549 83.0437 41.3015 83.2312 41.411C83.3245 41.4653 83.4025 41.5281 83.4654 41.591L83.4633 41.5889ZM82.3552 45.4606V44.7342L83.2529 45.3977L82.9331 45.8813L82.3552 45.4595V45.4606ZM82.3552 41.4165V42.2437C82.3313 42.2904 82.3086 42.3456 82.2771 42.4074L82.1448 42.6492L82.3552 42.7815V43.4526L81.465 42.93L81.902 42.1028C82.0581 41.7905 82.1828 41.5954 82.2533 41.5097C82.2847 41.4783 82.3237 41.4468 82.3552 41.4165ZM82.3552 44.7342V45.4606L81.4423 44.7732V44.0555L82.3552 44.7342ZM81.4423 46.9905V46.225L82.2077 46.9037L81.8488 47.3569L81.4433 46.9905H81.4423ZM81.4423 44.0555V44.7732L80.6768 44.2116L80.9966 43.728L81.4412 44.0555H81.4423ZM81.4423 46.2261V46.9915L80.9273 46.5383L80.2323 47.4209L81.1539 48.2406L80.795 48.6938L79.1556 47.242V46.4689L79.8734 47.101L80.5684 46.2185L79.7411 45.4845L80.1 45.0313L81.4423 46.2261ZM79.1546 50.3559L79.1784 50.3407C79.3497 50.1694 79.4831 49.997 79.5535 49.8333C79.6316 49.6696 79.6555 49.4972 79.624 49.3259C79.6002 49.1622 79.5308 49.0136 79.4289 48.8889C79.3432 48.787 79.2489 48.7176 79.1556 48.6623V50.3559H79.1546ZM79.1546 46.4679V47.2409L78.6862 46.8191L79.0375 46.3659L79.1546 46.4679ZM79.1546 48.6612V50.3548C78.9052 50.589 78.6547 50.7061 78.4129 50.7137C78.1712 50.7213 77.9294 50.6118 77.6952 50.4014L78.0617 49.9721C78.2102 50.0892 78.3501 50.152 78.4834 50.1434C78.6081 50.1434 78.7415 50.0805 78.8662 49.9634C78.9984 49.8387 79.0765 49.7053 79.0928 49.5883C79.1079 49.4636 79.0852 49.3617 79.0147 49.276C78.9681 49.2294 78.9214 49.1979 78.8586 49.1903C78.8044 49.1828 78.7263 49.1979 78.632 49.237C78.5691 49.2684 78.4292 49.3389 78.2178 49.456C77.9446 49.6121 77.7342 49.6902 77.5694 49.6902C77.3428 49.6902 77.1552 49.6045 77.0078 49.4321C76.9146 49.3226 76.8593 49.1903 76.8365 49.0342C76.8126 48.8857 76.8365 48.7295 76.907 48.5734C76.9774 48.4173 77.0869 48.2612 77.2431 48.1126C77.5011 47.8708 77.7429 47.7462 77.9771 47.7375C78.2113 47.7375 78.414 47.8307 78.5864 48.0259L78.1885 48.4314C78.079 48.3381 77.9695 48.2991 77.8763 48.3067C77.7743 48.3067 77.6659 48.3696 77.5488 48.478C77.4317 48.5951 77.3537 48.7122 77.3385 48.8293C77.3233 48.8998 77.3385 48.9702 77.3851 49.0245C77.4241 49.0711 77.487 49.1025 77.5564 49.0949C77.6497 49.0949 77.8145 49.0245 78.0562 48.8759C78.3056 48.735 78.4932 48.6493 78.6417 48.6103C78.7827 48.5713 78.9149 48.5713 79.0559 48.6103C79.0873 48.6255 79.1264 48.6417 79.1578 48.6569L79.1546 48.6612ZM73.6435 53.7593V53.0025C73.7063 53.2757 73.7063 53.5251 73.6435 53.7593ZM73.6435 50.9956L75.0096 53.408L75.4855 53.1033L74.8849 52.0418L75.8683 51.4173L75.6341 50.9956L74.6431 51.6201L74.307 51.027L75.4541 50.3006L75.2123 49.8788L73.6435 50.8785V50.9956ZM73.6435 50.8785V50.9956L73.5968 50.9099L73.6435 50.8785ZM73.6435 53.0014V53.7582C73.6359 53.7896 73.6196 53.8211 73.612 53.8514C73.4873 54.1951 73.2369 54.4445 72.8704 54.6169C72.6752 54.7025 72.4877 54.7491 72.3088 54.7491V54.2179C72.4259 54.2331 72.5506 54.2103 72.6839 54.155C72.8867 54.0618 73.02 53.9056 73.0894 53.6942C73.1599 53.4752 73.1284 53.2182 73.0038 52.906C72.8791 52.5937 72.7229 52.3986 72.5354 52.3053C72.4649 52.2663 72.3868 52.2424 72.3088 52.2348V51.7036C72.4725 51.7036 72.6362 51.735 72.7923 51.8055C73.1122 51.954 73.3626 52.2424 73.5415 52.6794C73.5806 52.7889 73.6196 52.8897 73.6435 52.9992V53.0014ZM72.3088 51.7057V52.237C72.1841 52.2294 72.067 52.2446 71.9423 52.3075C71.732 52.4007 71.591 52.5569 71.5205 52.7683C71.4501 52.9797 71.4815 53.2367 71.6062 53.5489C71.7233 53.846 71.887 54.0487 72.0822 54.1496C72.1526 54.181 72.2307 54.2038 72.3088 54.22V54.7513C72.1375 54.7589 71.9727 54.7275 71.8252 54.6581C71.5054 54.5095 71.2549 54.2287 71.0836 53.7994C70.9741 53.5261 70.9199 53.2844 70.9275 53.0578C70.9275 52.9016 70.9589 52.7379 71.0131 52.5894C71.0673 52.4333 71.1454 52.301 71.2473 52.1991C71.372 52.0581 71.5444 51.941 71.7471 51.8478C71.9423 51.7621 72.1299 51.7155 72.3088 51.7068V51.7057ZM67.961 55.0625V54.5627C68.2104 54.4922 68.359 54.438 68.4218 54.3989C68.476 54.3599 68.5151 54.3057 68.5389 54.2352C68.5628 54.1723 68.5628 54.0943 68.5389 54.0086C68.5151 53.9154 68.4685 53.8449 68.4067 53.7983C68.3438 53.7593 68.2744 53.7354 68.1801 53.7517C68.1486 53.7517 68.0781 53.7668 67.961 53.7983V53.2909C68.1876 53.2367 68.359 53.2128 68.476 53.2204C68.617 53.2356 68.7417 53.2985 68.8588 53.408C68.9683 53.5175 69.0388 53.6497 69.0854 53.8135C69.1396 54.0238 69.1244 54.219 69.0388 54.3914C68.9607 54.5627 68.8046 54.696 68.578 54.7969C68.7102 54.8359 68.8273 54.8901 68.9293 54.953C69.0225 55.0159 69.1634 55.1406 69.351 55.3281L69.8118 55.7813L69.1721 55.9689L68.6257 55.4615C68.4305 55.2815 68.3058 55.1731 68.2429 55.1254C68.1725 55.0863 68.1107 55.0625 68.0478 55.0549C68.0239 55.0549 67.9936 55.0549 67.9621 55.0625H67.961ZM67.961 53.2909V53.7983C67.9068 53.8135 67.8515 53.8297 67.7811 53.8525L67.3669 53.9696L67.5469 54.6798L67.9448 54.5703L67.96 54.5627V55.0625C67.9057 55.0701 67.8429 55.0777 67.7648 55.1015L67.6553 55.133L67.96 56.3115L67.4211 56.4601L66.7033 53.6422L67.8353 53.3223C67.8819 53.3147 67.9209 53.2985 67.96 53.2909H67.961ZM62.0596 55.9136V55.4138C62.1691 55.4062 62.2548 55.3986 62.3014 55.3747C62.3795 55.3433 62.4337 55.2967 62.4814 55.2338C62.5204 55.1709 62.5443 55.0928 62.5443 55.0072C62.5443 54.9053 62.5204 54.812 62.4586 54.7416C62.4044 54.6711 62.3339 54.6321 62.2396 54.6093C62.2006 54.6017 62.1377 54.5941 62.0596 54.5941V54.0943C62.3177 54.1019 62.489 54.1257 62.5746 54.1485C62.7308 54.1951 62.863 54.2894 62.9649 54.4369C63.0744 54.5854 63.1211 54.7806 63.1211 55.0148C63.1135 55.1861 63.082 55.3422 63.0192 55.4593C62.9563 55.584 62.8782 55.6783 62.7774 55.7401C62.6841 55.8106 62.5898 55.8572 62.489 55.8724C62.3795 55.8963 62.2396 55.9038 62.0596 55.9114V55.9136ZM64.1988 56.9133L63.9104 54.0173L65.9476 53.7907L65.9943 54.2829L64.511 54.4467L64.5815 55.0863L65.9552 54.9378L66.0019 55.4214L64.6281 55.5775L64.7062 56.3657L66.236 56.1944L66.2827 56.6867L64.1988 56.9133ZM62.0596 54.0954V54.5952C61.9967 54.5876 61.9273 54.5876 61.8493 54.5876L61.5836 54.58L61.5685 55.4073L61.8731 55.4149H62.0607V55.9147C62.0141 55.9147 61.9675 55.9147 61.9198 55.9071H61.5609L61.537 57L60.983 56.9924L61.0296 54.0802L61.9273 54.0954H62.0596ZM55.151 55.3292V54.8218L55.5174 54.9237L55.4155 53.7766L55.1499 54.1669V53.254L55.306 53.0437L55.8676 53.1998L56.2189 56.3224L55.641 56.1586L55.5705 55.4485L55.1488 55.3314L55.151 55.3292ZM57.1492 56.5706L57.4376 53.6671L58.2648 53.7603L58.5619 55.7976L59.2493 53.8698L60.0842 53.9631L59.7958 56.8666L59.2808 56.8038L59.5074 54.5247L58.7343 56.7495L58.203 56.6867L57.8908 54.3447L57.6642 56.6238L57.1492 56.5696V56.5706ZM55.151 53.2529V54.1658L54.7921 54.7199L55.151 54.8218V55.3292L54.5026 55.1492L54.1199 55.7271L53.6515 55.5862V55.4225L55.1499 53.2518L55.151 53.2529ZM53.6526 52.7217V52.4333L53.7458 52.4799L53.6526 52.7217ZM53.6526 52.4333V52.7217L52.6692 55.1655L52.1618 54.9313L52.6301 53.7603L51.6305 53.3071L51.1545 54.4857L50.6709 54.2591V54.1886L51.7248 51.5659L52.2322 51.8001L51.8105 52.8539L52.8101 53.3071L53.2395 52.2457L53.6536 52.4333H53.6526ZM53.6526 55.4235V55.5873L53.5506 55.5634L53.6526 55.4225V55.4235ZM50.6709 51.7784C50.7024 51.6071 50.7024 51.4509 50.6709 51.31V51.7784ZM50.6709 51.31V51.7784C50.6634 51.8174 50.6558 51.8564 50.6395 51.8955L50.1006 51.7155C50.1473 51.567 50.1473 51.4271 50.1006 51.2937C50.054 51.169 49.9684 51.0595 49.8426 50.9815C49.6713 50.872 49.4913 50.8405 49.3037 50.911C49.1162 50.9739 48.9449 51.1528 48.7725 51.4499C48.5925 51.7697 48.5231 52.0278 48.5535 52.2305C48.5838 52.4333 48.6857 52.5894 48.8581 52.6989C48.9828 52.7769 49.1162 52.8008 49.256 52.7769C49.397 52.7455 49.5368 52.6523 49.6778 52.4961L50.0529 52.9493C49.8263 53.1759 49.5921 53.3006 49.358 53.3321C49.1162 53.3559 48.8657 53.293 48.6163 53.1293C48.3041 52.9342 48.1089 52.6533 48.0385 52.3021C47.9604 51.9432 48.0385 51.568 48.2575 51.1777C48.4992 50.7635 48.7801 50.499 49.1162 50.3971C49.4523 50.3038 49.7797 50.358 50.1158 50.5608C50.3966 50.7484 50.5842 50.9902 50.6623 51.2872C50.6623 51.2948 50.6623 51.3024 50.6699 51.3111L50.6709 51.31ZM50.6709 54.1908V54.2612L50.6471 54.2537L50.6709 54.1908ZM44.6058 49.7877V48.9139L45.9958 47.2821L46.41 47.6724L45.6835 48.5311L46.4956 49.3042L47.2134 48.4455L47.6275 48.8434L45.7854 51.0053L45.3713 50.615L46.1833 49.6707L45.3713 48.8976L44.6058 49.7877ZM44.6058 47.0165V45.6352C44.6524 45.6818 44.6915 45.7284 44.7381 45.7837C44.9571 46.0645 45.0655 46.3302 45.0655 46.5719C45.0579 46.8213 44.9636 47.0327 44.7771 47.2116L44.6058 47.0165ZM44.6058 45.6352V47.0165L44.4031 46.7747C44.4963 46.6576 44.544 46.5481 44.5353 46.4386C44.5353 46.3367 44.4811 46.2196 44.3792 46.0949C44.2773 45.9626 44.1689 45.8845 44.0594 45.8531C43.9889 45.8379 43.9271 45.8455 43.8718 45.8997C43.8252 45.9388 43.8013 46.0016 43.8013 46.0797C43.8013 46.173 43.8642 46.3529 43.9889 46.6186C44.1136 46.8842 44.1916 47.087 44.2231 47.2431C44.2545 47.3916 44.2469 47.5402 44.1992 47.68C44.1602 47.821 44.0669 47.9457 43.9336 48.0628C43.8165 48.1723 43.6755 48.2427 43.5118 48.2579C43.3481 48.2818 43.192 48.2503 43.0359 48.1647C42.9816 48.1408 42.9339 48.1018 42.8797 48.0628V47.3602C42.8949 47.384 42.9188 47.4068 42.9339 47.4382C43.051 47.5792 43.1681 47.6648 43.2852 47.6876C43.4023 47.7104 43.4956 47.6876 43.5736 47.6171C43.6278 47.5705 43.6517 47.5152 43.6669 47.4534C43.6745 47.3905 43.6669 47.3125 43.6278 47.2116C43.604 47.1412 43.5422 46.9926 43.4327 46.7671C43.3004 46.4787 43.2375 46.2445 43.2375 46.0721C43.2451 45.8379 43.3308 45.6428 43.5032 45.4942C43.6051 45.401 43.7373 45.3381 43.8783 45.3229C44.0268 45.2991 44.1667 45.3305 44.3152 45.4086C44.4172 45.4628 44.5104 45.5408 44.6036 45.6352H44.6058ZM44.6058 48.9139V49.7877L44.5668 49.842L44.1526 49.4516L44.6058 48.9128V48.9139ZM42.8808 46.6966C42.9047 46.6576 42.9274 46.6262 42.9589 46.5871L42.8808 46.5091V46.6966ZM42.8808 44.7299V44.0121L43.2007 43.7703L43.5205 44.2539L42.8808 44.7299ZM42.8808 44.0121V44.7299L41.8812 45.4715V44.7537L42.8808 44.0121ZM42.8808 46.5101V46.6977C42.8103 46.8072 42.7789 46.9167 42.7789 47.0252C42.7789 47.1336 42.8103 47.2442 42.8808 47.3613V48.0638C42.7789 47.9858 42.6781 47.8839 42.5761 47.7516C42.3495 47.4708 42.24 47.1975 42.24 46.9395C42.2476 46.6739 42.3571 46.4245 42.5675 46.1903L42.8797 46.5101H42.8808ZM41.8812 42.8726V42.3023L42.4515 42.4432L42.8103 43.1382L41.8812 42.8726ZM41.8812 41.4208V41.3579L41.905 41.4045L41.8812 41.4197V41.4208ZM41.8812 41.3579V41.4208L40.8349 42.0377L41.8812 42.3034V42.8737L41.3737 42.7327L40.4294 44.6063L40.1323 44.0359V43.8484L40.8425 42.5755L40.2255 42.3955L40.1323 42.4421V41.771L41.6394 40.8885L41.8812 41.3568V41.3579ZM41.8812 44.7537V45.4715L41.2642 45.9247L40.9444 45.4487L41.8812 44.7537ZM40.1323 40.4916V39.9137C40.1399 39.9137 40.1562 39.9213 40.1713 39.9213C40.2342 39.9365 40.3036 39.9365 40.3817 39.9061C40.4673 39.8747 40.5302 39.8205 40.5692 39.75C40.6007 39.6795 40.6159 39.5939 40.5931 39.5006C40.5855 39.454 40.5465 39.3207 40.4684 39.0951L40.3199 38.6658L40.1323 38.7363V38.1118L40.5617 37.9405L40.9672 39.1114C41.0691 39.3998 41.1157 39.6188 41.1157 39.775C41.1157 39.9311 41.0691 40.0634 40.9747 40.1891C40.8804 40.3149 40.7644 40.4081 40.6083 40.4624C40.4446 40.5328 40.2808 40.5404 40.1323 40.4938V40.4916ZM40.1323 37.1197V36.5266L40.2028 36.5114L40.3123 37.0893L40.1323 37.1208V37.1197ZM37 32.8468L39.2877 32.7611L39.2638 31.8948L39.7246 31.8796L39.8027 34.1977L39.3343 34.2129L39.3105 33.3466L37.0228 33.4323L36.9989 32.8468H37ZM40.1301 36.5234V37.1164L38.8887 37.3745C38.5613 37.445 38.3347 37.4764 38.1937 37.4677C38.0528 37.4677 37.9281 37.4363 37.8186 37.3658C37.7167 37.3029 37.6158 37.2021 37.5378 37.0774C37.4597 36.9451 37.3968 36.7652 37.3578 36.5386C37.3036 36.2653 37.2949 36.055 37.3263 35.8989C37.3654 35.7503 37.4196 35.618 37.4976 35.5161C37.5833 35.4142 37.669 35.3448 37.7709 35.2971C37.9194 35.2266 38.146 35.1562 38.4496 35.0944L39.8862 34.7973L39.9957 35.3752L38.5277 35.6798C38.3011 35.7265 38.1449 35.7655 38.0831 35.7969C37.9736 35.8436 37.8956 35.9216 37.8489 36.0235C37.8023 36.1331 37.786 36.2653 37.8175 36.429C37.8489 36.5928 37.9031 36.7099 37.9812 36.7803C38.0593 36.8508 38.1449 36.8822 38.2393 36.8822C38.3412 36.8822 38.4886 36.8584 38.7076 36.8118L40.128 36.5234H40.1301ZM40.1301 38.1085V38.733L39.6618 38.913L39.8027 39.3272C39.8884 39.5928 39.9588 39.7489 40.0055 39.8107C40.0369 39.8574 40.0835 39.8888 40.1301 39.9127V40.4905C40.1063 40.483 40.0835 40.4754 40.0673 40.4667C39.8959 40.3962 39.755 40.2401 39.6379 40.0135C39.614 40.162 39.575 40.2867 39.5208 40.3962C39.4742 40.5057 39.3647 40.6618 39.2085 40.8722L38.8182 41.4035L38.5916 40.7399L39.021 40.123C39.1695 39.904 39.2628 39.7565 39.3018 39.686C39.3332 39.608 39.3484 39.5451 39.3484 39.4757C39.3484 39.4128 39.3246 39.312 39.2855 39.1873L39.2465 39.0778L38.1612 39.492L37.9736 38.9379L40.128 38.1107L40.1301 38.1085ZM40.1301 41.7699V42.4411L39.498 42.8162L39.2248 42.3012L40.1301 41.7699ZM40.1301 43.8462V44.0338L40.0835 43.9405L40.1301 43.8473V43.8462Z" fill="#BCBEC0"/>
<path d="M82.2847 23.0497V21.0905L82.3552 21.0439L82.6436 21.5362C82.4875 21.6533 82.3855 21.7704 82.3552 21.9113C82.3161 22.0436 82.3313 22.1921 82.4094 22.3482C82.4874 22.5196 82.5894 22.6366 82.6978 22.6919C82.8149 22.7462 82.9168 22.7462 83.0176 22.6995C83.0805 22.6681 83.1195 22.6291 83.1499 22.5748C83.1738 22.512 83.1814 22.4339 83.1738 22.3255C83.1662 22.255 83.1347 22.0913 83.0881 21.8495C83.0252 21.5297 83.0176 21.2879 83.0729 21.1231C83.1434 20.8889 83.2833 20.7252 83.4871 20.6308C83.6281 20.568 83.7679 20.5452 83.924 20.568C84.0726 20.5918 84.2124 20.6612 84.3458 20.7707C84.4705 20.8878 84.58 21.0439 84.6732 21.2467C84.8294 21.5828 84.876 21.8636 84.8055 22.0978C84.7426 22.3396 84.5865 22.512 84.3447 22.6366L84.0791 22.1141C84.2038 22.0284 84.2742 21.9341 84.2981 21.8332C84.322 21.7324 84.2981 21.599 84.2276 21.4505C84.1572 21.2944 84.0715 21.1925 83.9696 21.1307C83.8991 21.0916 83.8286 21.0916 83.7592 21.1231C83.6964 21.1545 83.6573 21.2011 83.6421 21.2792C83.6107 21.3724 83.6346 21.56 83.6888 21.8495C83.7517 22.1379 83.7744 22.3645 83.7668 22.513C83.7592 22.6692 83.7202 22.8101 83.6346 22.9348C83.5565 23.0595 83.4318 23.1538 83.2681 23.2319C83.112 23.3024 82.9558 23.3338 82.7845 23.3099C82.6132 23.2861 82.4571 23.208 82.3237 23.0909L82.2847 23.0519V23.0497ZM82.2847 18.7801V17.531L82.4094 17.4996L82.7759 18.007L82.2836 18.7801H82.2847ZM82.8626 24.7129L85.6187 23.761L85.8138 24.315L83.0502 25.267L82.8626 24.7129ZM85.275 28.3039C85.1189 28.3353 84.9703 28.3039 84.838 28.2182C84.6971 28.125 84.619 27.9992 84.5887 27.8431C84.5572 27.6794 84.5887 27.5384 84.6743 27.3986C84.7676 27.2663 84.8933 27.1795 85.0495 27.1492C85.2132 27.1253 85.3617 27.1492 85.494 27.2424C85.6263 27.3357 85.713 27.4614 85.7434 27.6176C85.7748 27.7813 85.7434 27.9222 85.6501 28.0545C85.5645 28.1955 85.4398 28.2735 85.275 28.3039ZM82.2847 17.531V18.7801L81.4802 20.0529V18.9752L82.0342 18.148L81.4802 18.3041V17.7425L82.2847 17.5321V17.531ZM82.2847 21.0905V23.0497C82.16 22.9326 82.0505 22.7613 81.9573 22.5575C81.8011 22.2214 81.7545 21.9254 81.8326 21.6749C81.8955 21.4483 82.0429 21.2532 82.2858 21.0895L82.2847 21.0905ZM81.4802 17.7414V18.303L80.9262 18.4591L81.3946 19.1075L81.4802 18.9752V20.0529L81.0975 20.6623L80.7223 20.1473L81.1127 19.5466L80.4253 18.6098L79.7465 18.805L79.3801 18.2976L81.4802 17.7436V17.7414ZM78.8802 17.0778V16.5162C78.9269 16.501 78.9735 16.4848 79.0212 16.4533C79.1459 16.3904 79.2868 16.282 79.4505 16.1259C79.6143 15.9698 79.7238 15.8375 79.778 15.728C79.8409 15.6109 79.8712 15.509 79.8712 15.4081C79.8636 15.3062 79.8322 15.213 79.778 15.1197C79.7314 15.0417 79.6294 14.9246 79.4581 14.7533L79.2782 14.5581L78.8802 14.9484V14.1288L79.2239 13.7926L79.9731 14.5657C80.1369 14.7457 80.2539 14.8855 80.3168 15.0026C80.4025 15.1664 80.4339 15.3301 80.4263 15.5101C80.4188 15.6814 80.3721 15.8613 80.2854 16.0327C80.1922 16.2126 80.0512 16.3915 79.856 16.5867C79.6761 16.7504 79.5123 16.8751 79.341 16.9532C79.1849 17.0236 79.0288 17.0703 78.8802 17.0778ZM78.8802 14.1266V14.9463L77.8893 15.8982L78.1939 16.2181C78.311 16.3351 78.3967 16.4132 78.4596 16.4522C78.5452 16.5065 78.6309 16.5303 78.7176 16.5379C78.7642 16.5455 78.8195 16.5379 78.8813 16.514V17.0757C78.8423 17.0833 78.7957 17.0833 78.7566 17.0833C78.6157 17.0757 78.4682 17.0291 78.3034 16.9423C78.1863 16.8794 78.0454 16.771 77.8979 16.6149L77.2973 15.9904V15.6543L78.8824 14.1244L78.8802 14.1266ZM77.2951 13.5411V12.2531C77.3732 12.3853 77.4198 12.5263 77.4436 12.6824C77.4903 12.9632 77.4361 13.244 77.2951 13.5411ZM77.2951 12.2531V13.5411C77.2485 13.6268 77.1932 13.7211 77.1238 13.8143C76.8582 14.2047 76.5383 14.4313 76.1794 14.5017C76.109 14.5169 76.0385 14.5256 75.9767 14.5256V13.9553C75.9843 13.9553 76.0005 13.9553 76.0157 13.9477C76.2347 13.9011 76.4375 13.7374 76.6326 13.4555C76.8278 13.1822 76.9059 12.9404 76.882 12.7138C76.8582 12.4948 76.7411 12.3235 76.5459 12.1826C76.3659 12.0503 76.1708 12.0026 75.9756 12.034V11.4724C76.0689 11.4724 76.1632 11.48 76.2488 11.4963C76.444 11.5429 76.6316 11.6285 76.8267 11.7619C77.0295 11.9104 77.1856 12.0666 77.2951 12.2541V12.2531ZM77.2951 15.6564V15.9925L77.1238 15.8212L77.2951 15.6575V15.6564ZM75.9756 11.4724V12.034C75.9518 12.0416 75.9366 12.0416 75.9214 12.0492C75.7024 12.0958 75.4996 12.2596 75.3045 12.5328C75.1169 12.806 75.0388 13.0554 75.0627 13.282C75.0941 13.5086 75.2036 13.6875 75.3901 13.8284C75.5777 13.9531 75.7653 13.9921 75.9756 13.9531V14.5234C75.6785 14.531 75.3901 14.4378 75.1093 14.235C74.7504 13.9932 74.5477 13.681 74.4848 13.3221C74.4306 12.9556 74.5314 12.5881 74.7971 12.2053C74.9684 11.9636 75.1483 11.7836 75.3359 11.6665C75.4769 11.5884 75.6243 11.5255 75.7891 11.4952L75.9767 11.4713L75.9756 11.4724ZM64.8049 9.15434V8.3737C64.9848 8.38888 65.1019 8.39756 65.1562 8.38129C65.2266 8.36611 65.2884 8.33467 65.3361 8.27938C65.3838 8.22408 65.4066 8.15469 65.4218 8.06904C65.4294 7.97579 65.4142 7.88906 65.3676 7.82725C65.3285 7.75678 65.2581 7.71016 65.1648 7.68631C65.1258 7.67113 65.0011 7.65486 64.8059 7.63209V7.13227L64.9859 7.15612C65.2982 7.19515 65.5172 7.24936 65.6571 7.31984C65.7893 7.38272 65.8913 7.49115 65.9541 7.63209C66.0246 7.78063 66.0474 7.93676 66.0246 8.10807C66.0008 8.32708 65.9151 8.49839 65.7666 8.62307C65.6256 8.74776 65.4229 8.81064 65.1659 8.81823C65.283 8.90389 65.3762 8.99822 65.4467 9.09905C65.5172 9.19988 65.6104 9.36468 65.7199 9.60646L66.0083 10.2158L65.3058 10.1301L64.9621 9.45142C64.8992 9.33432 64.8526 9.23241 64.8059 9.15434H64.8049ZM66.9907 10.4272L67.7474 7.60933L69.8313 8.17095L69.7066 8.64693L68.1844 8.24143L68.0207 8.86594L69.4334 9.24108L69.3087 9.71705L67.896 9.34191L67.6856 10.1074L69.2621 10.5291L69.1374 11.0051L66.9907 10.4272ZM70.87 11.7153L71.8534 9.50563L71.0652 9.15434L71.2679 8.70114L73.3832 9.6455L73.1805 10.09L72.3923 9.73874L71.4089 11.956L70.87 11.7142V11.7153ZM64.8059 7.13227V7.63209L64.7355 7.62451L64.2823 7.57029L64.1966 8.30431L64.626 8.35093C64.6889 8.35852 64.7507 8.36611 64.8059 8.37479V9.15543C64.7669 9.07736 64.7279 9.02315 64.704 8.99171C64.6574 8.92124 64.6021 8.87461 64.5479 8.84317C64.485 8.81932 64.3918 8.79655 64.2508 8.78029L64.1337 8.76511L63.9852 9.9751L63.3997 9.89704L63.7608 7.00758L64.807 7.13227H64.8059ZM60.8952 9.25518V8.76294L61.2931 8.75535L60.8952 7.74052V6.99999H61.1836L62.3936 9.89595L61.7615 9.90354L61.4958 9.24759L60.8952 9.25518ZM60.8952 6.99891V7.74052L60.88 7.68631L60.5048 8.77161L60.8952 8.76402V9.25626L60.3249 9.26385L60.0983 9.93498L59.4737 9.94257L60.5601 7.00758L60.8962 6.99999L60.8952 6.99891ZM53.7762 9.22373V8.38888L54.0884 8.28697L54.9937 11.0582L54.4321 11.2458L53.7762 9.22373ZM53.7762 8.21649V7.65486L53.8618 7.63101L54.0255 8.13084L53.7762 8.21649ZM57.7813 9.1847L58.3819 9.23132C58.3668 9.56743 58.28 9.82439 58.1163 10.0196C57.9526 10.2147 57.7184 10.3557 57.4137 10.4251C57.031 10.5107 56.696 10.4489 56.3913 10.2537C56.0866 10.051 55.8839 9.72248 55.782 9.27794C55.6725 8.80197 55.7115 8.41165 55.8915 8.09181C56.079 7.77196 56.3674 7.56921 56.7654 7.47488C57.1166 7.39682 57.4213 7.43585 57.6869 7.59198C57.8431 7.67763 57.984 7.83376 58.1011 8.04518L57.5623 8.31082C57.4918 8.16987 57.3985 8.06904 57.2652 8.01374C57.1405 7.95086 56.9995 7.93568 56.851 7.97471C56.6407 8.02133 56.4845 8.13843 56.3902 8.31841C56.2959 8.49839 56.2883 8.76294 56.3664 9.09905C56.4444 9.45793 56.5691 9.69971 56.7328 9.82548C56.8965 9.94257 57.0841 9.9816 57.2869 9.93498C57.443 9.89595 57.5601 9.81789 57.6457 9.70079C57.739 9.57611 57.778 9.40371 57.778 9.18579L57.7813 9.1847ZM53.7762 7.65486V8.21649L53.5029 8.30214L53.3392 7.80232L53.7762 7.65378V7.65486ZM53.7762 8.38888V9.22373L53.5344 8.46695L53.7762 8.38888ZM46.5943 16.2029V15.3366L47.0551 15.8288L46.6257 16.2343L46.5943 16.2029ZM46.5943 12.9947V12.3701L47.8194 11.4095L48.1002 11.7684L48.0536 14.3055L49.3655 13.2831L49.6626 13.6734L47.7967 15.1327L47.4692 14.711L47.5159 12.2758L46.5943 12.9936V12.9947ZM52.1607 12.2379L51.0602 10.0835L50.2871 10.4738L50.0605 10.0369L52.1292 8.98304L52.3482 9.41998L51.5828 9.81789L52.6833 11.9722L52.1607 12.2379ZM46.5943 12.3701V12.9947L46.4457 13.1118L46.1411 12.729L46.5943 12.3701ZM46.5943 15.3366V16.2029L45.1653 14.6654V13.7992L46.5943 15.3366ZM45.1653 17.6004V16.7341L45.6879 17.1559L45.3214 17.6167L45.1653 17.6015V17.6004ZM45.1653 13.7992V14.6654L44.7901 14.2599V13.9553L45.0633 13.6972L45.1653 13.7992ZM45.1653 16.7341V17.6004L44.7901 17.5462V16.4295L45.1653 16.7341ZM44.7901 13.7287L44.9387 13.5877L44.7901 13.424V13.7287ZM44.7901 13.424V13.7287L44.5407 13.9629L44.1819 13.5725L44.5798 13.1974L44.7901 13.424ZM44.7901 13.9553L44.634 14.0962L44.7901 14.2599V13.9553ZM44.7901 16.4295V17.5462L43.1042 17.3359L44.5798 18.5307L44.2361 18.9601L42.7605 17.7652V16.7352L44.595 16.977L43.0803 15.7518L43.424 15.3225L44.7901 16.4306V16.4295ZM42.7605 21.3237V20.3403L43.1269 19.7006L43.5563 19.9499L42.7605 21.3237ZM42.7605 16.7331V17.7631L41.9722 17.1234L42.3311 16.6702L42.7605 16.7331ZM42.7605 20.3392V21.3226L42.4482 21.869L40.0597 20.4877V20.1679L41.004 18.5361L41.4334 18.7855L40.6451 20.144L41.2068 20.4639L41.9332 19.1997L42.3625 19.449L41.6285 20.7132L42.3159 21.1111L42.7605 20.3381V20.3392ZM40.0597 24.7888V24.1567L40.8164 24.4614L40.9802 24.0559C41.043 23.8998 41.0821 23.7903 41.0897 23.7122C41.1048 23.619 41.0973 23.5246 41.0658 23.4466C41.0344 23.3685 40.9639 23.2828 40.8631 23.1972C40.7536 23.1115 40.5974 23.0259 40.3871 22.9391C40.2624 22.8925 40.1529 22.8535 40.0597 22.8296V22.229C40.231 22.2442 40.4261 22.2995 40.6375 22.3851C40.8641 22.4784 41.043 22.5803 41.184 22.705C41.3553 22.8535 41.4724 23.0096 41.5429 23.1885C41.5971 23.3208 41.6209 23.4769 41.6058 23.6569C41.5982 23.7892 41.5515 23.9616 41.4648 24.1643L41.0506 25.1867L40.0597 24.7888ZM39.1305 27.1232C39.2866 27.1546 39.4113 27.2403 39.5056 27.3725C39.5913 27.5048 39.6227 27.6533 39.5913 27.8095C39.5598 27.9732 39.4818 28.0979 39.3419 28.1846C39.2096 28.2779 39.0611 28.3093 38.905 28.2779C38.7488 28.2464 38.6241 28.1608 38.5298 28.0285C38.4355 27.8962 38.4051 27.7477 38.4366 27.584C38.468 27.4278 38.5537 27.3031 38.6859 27.2175C38.8182 27.1242 38.9668 27.0928 39.1305 27.1242V27.1232ZM40.0597 20.1679V20.4877L39.9187 20.4097L40.0597 20.1679ZM40.0597 22.229V22.8296C39.9968 22.8145 39.935 22.8058 39.8883 22.8058C39.7561 22.7982 39.6542 22.8134 39.5609 22.8524C39.4753 22.8914 39.3972 22.9619 39.3343 23.0552C39.2877 23.1256 39.2172 23.2655 39.124 23.4921L39.0307 23.7339L40.0607 24.1556V24.7877L38.3509 24.0928L38.7488 23.1018C38.8421 22.8752 38.9288 22.7115 39.0145 22.602C39.124 22.461 39.2562 22.3602 39.4286 22.2973C39.5924 22.2344 39.7723 22.204 39.9675 22.2192C39.9989 22.2192 40.0304 22.2192 40.0607 22.2268L40.0597 22.229Z" fill="black"/>
<path fill-rule="evenodd" clip-rule="evenodd" d="M68.8263 20.9496H75.4227C75.5246 20.247 76.0938 19.7006 76.7964 19.6377C77.5065 19.5748 78.1625 20.0042 78.3891 20.684C78.9594 21.8701 78.9594 23.2525 78.3891 24.4462C78.1397 25.0946 77.4914 25.5001 76.804 25.4372C76.109 25.3743 75.5398 24.8669 75.4064 24.1806H72.3619L72.1982 24.4614C74.4772 26.6624 75.9214 29.2309 76.2499 32.2678C76.3041 35.0629 76.843 37.1392 79.1535 38.4273C78.0606 38.5758 76.9601 38.552 75.8748 38.3644C74.5629 41.7992 72.003 44.5076 68.8252 46.0385V41.3937C69.8552 40.5589 70.6835 39.4887 71.2766 38.2397L68.8252 38.2007V38.076C70.7226 36.4995 71.8382 34.485 71.8773 32.4315C71.9163 30.0972 70.792 28.138 68.8252 26.6006V20.9485L68.8263 20.9496ZM62.6982 47.4448C60.5363 47.4448 58.4513 46.9449 56.5778 46.0396V41.3948C57.4604 42.105 58.4828 42.6438 59.6299 42.9561V25.1109C58.576 25.4231 57.5764 25.8991 56.6786 26.5236C56.6472 26.5475 56.6082 26.5778 56.5767 26.6017V20.9496L61.5576 20.942L61.7213 20.4888C60.4485 19.9272 59.8164 18.9817 59.824 17.6937C59.8391 15.9687 61.4091 14.7901 62.6971 14.8205C63.9928 14.7891 65.5617 15.9676 65.5779 17.6937C65.5855 18.9817 64.961 19.9261 63.6805 20.4888L63.8443 20.942L68.8252 20.9496V26.6017C68.7937 26.5778 68.7623 26.5475 68.7233 26.5236C67.8255 25.8991 66.8345 25.4231 65.7807 25.1109V42.9561C66.9202 42.6438 67.9426 42.105 68.8252 41.3948V46.0396C66.9516 46.9449 64.8678 47.4448 62.6971 47.4448H62.6982ZM68.8263 38.0771L68.6853 38.1942L68.8263 38.2018V38.0771ZM56.5778 38.2018L56.7263 38.1942C56.6721 38.1551 56.6244 38.1161 56.5778 38.0771V38.2018ZM56.5778 46.0396C53.401 44.5098 50.8401 41.8003 49.5282 38.3655C48.4505 38.553 47.3424 38.5758 46.2495 38.4284C48.56 37.1403 49.0988 35.064 49.153 32.2689C49.4892 29.232 50.9247 26.6635 53.2048 24.4625L53.0487 24.1817H49.9966C49.8643 24.8691 49.294 25.3765 48.6066 25.4383C47.9116 25.5012 47.2643 25.0946 47.0139 24.4473C46.4436 23.2525 46.4436 21.8712 47.0139 20.6851C47.2405 20.0063 47.8964 19.577 48.6066 19.6388C49.3168 19.7006 49.8871 20.2481 49.9803 20.9507H56.5767V26.6027C54.6099 28.1402 53.4856 30.1004 53.5322 32.4337C53.5712 34.4872 54.688 36.5006 56.5767 38.0782V38.2028L54.1253 38.2419C54.7184 39.4909 55.5543 40.5599 56.5767 41.3959V46.0407L56.5778 46.0396Z" fill="#00AEEF"/>
<path fill-rule="evenodd" clip-rule="evenodd" d="M62.6982 14.3846C65.9303 14.2827 67.3279 18.6543 64.6346 20.5203H75.0876C75.3609 19.7244 76.1025 19.1932 76.9373 19.1932C77.7722 19.1932 78.5224 19.7244 78.7957 20.5203C79.405 21.8159 79.405 23.323 78.7957 24.6186C78.491 25.3841 77.757 25.8828 76.9373 25.8828C76.1176 25.8828 75.3836 25.383 75.0876 24.6186H73.0818C75.1267 26.6949 76.4386 29.3805 76.805 32.2689C76.5394 34.4005 77.4057 36.5234 79.1003 37.8581C79.4982 38.1465 79.9124 38.4121 80.3418 38.6463C78.9681 38.9824 77.5466 39.0518 76.1502 38.849C73.9178 44.3059 68.6018 47.873 62.6993 47.8806V47.4437C68.5465 47.4437 73.792 43.8289 75.8769 38.3644C76.9623 38.552 78.0627 38.5747 79.1556 38.4273C76.8452 37.1392 76.3063 35.0629 76.2521 32.2678C75.9247 29.2309 74.4805 26.6624 72.2003 24.4614L72.3641 24.1806H75.4086C75.5408 24.868 76.1111 25.3754 76.8061 25.4372C77.4935 25.5001 78.1408 25.0935 78.3913 24.4462C78.9616 23.2514 78.9616 21.8701 78.3913 20.684C78.1647 20.0052 77.5087 19.5759 76.7985 19.6377C76.096 19.7006 75.5257 20.247 75.4248 20.9496L63.8475 20.942L63.6838 20.4888C64.9642 19.9272 65.5888 18.9817 65.5812 17.6937C65.566 15.9687 63.996 14.7901 62.7004 14.8205V14.3836L62.6982 14.3846ZM62.6982 47.8817C56.8044 47.8741 51.496 44.3059 49.256 38.8501C47.8585 39.0529 46.4381 38.9824 45.072 38.6474C45.5014 38.4132 45.9155 38.1475 46.3059 37.8591C47.9994 36.5245 48.8668 34.4005 48.6012 32.27C48.9676 29.3816 50.2795 26.696 52.3331 24.6197H50.3272C50.0226 25.3852 49.2886 25.8839 48.4689 25.8839C47.6492 25.8839 46.9152 25.3841 46.6192 24.6197C46.0023 23.3241 46.0023 21.817 46.6192 20.5213C46.8924 19.7255 47.634 19.1943 48.4689 19.1943C49.3037 19.1943 50.054 19.7255 50.3272 20.5213H60.7726C58.0794 18.6554 59.477 14.2838 62.7004 14.3857V14.8227C61.4123 14.7912 59.8435 15.9698 59.8272 17.6959C59.8196 18.9839 60.4517 19.9283 61.7246 20.491L61.5609 20.9442L49.9835 20.9518C49.8903 20.2492 49.32 19.7028 48.6098 19.6399C47.8997 19.577 47.2437 20.0063 47.0171 20.6861C46.4468 21.8723 46.4468 23.2547 47.0171 24.4484C47.2665 25.0968 47.9149 25.5023 48.6098 25.4394C49.2972 25.3765 49.8665 24.8691 49.9998 24.1828H53.0519L53.208 24.4636C50.929 26.6645 49.4924 29.2331 49.1563 32.27C49.1021 35.0651 48.5632 37.1414 46.2527 38.4294C47.3456 38.578 48.4537 38.5541 49.5314 38.3666C51.624 43.831 56.8619 47.4458 62.7004 47.4458V47.8828L62.6982 47.8817Z" fill="black"/>
<path fill-rule="evenodd" clip-rule="evenodd" d="M68.8349 26.6092C70.7551 28.1163 71.8718 30.0126 71.8794 32.2841V32.4326C71.8404 34.4861 70.7236 36.4919 68.8349 38.0684V37.4124C69.9354 36.3662 70.9817 35.0857 71.3482 33.3531C71.8404 31.0426 70.6922 28.7159 68.8349 27.2327V26.6082V26.6092ZM68.8349 38.2017L71.2788 38.2408C70.6933 39.4822 69.8584 40.5513 68.8349 41.3872V40.8017C69.5061 40.2011 70.0764 39.4822 70.5447 38.6701L68.8349 38.655V38.2017ZM65.7828 25.1108C66.8367 25.4231 67.8277 25.8991 68.7254 26.5236C68.7644 26.555 68.8035 26.5778 68.8349 26.6092V27.2338C68.7178 27.1318 68.6007 27.0462 68.476 26.9529C67.7735 26.4694 67.0243 26.0866 66.2122 25.7972V42.3619C67.2118 42.0106 68.0857 41.4794 68.8349 40.8006V41.3861C67.9524 42.1039 66.9224 42.6427 65.7828 42.955V25.1098V25.1108ZM68.8349 38.0695V37.4135C68.3741 37.858 67.9057 38.257 67.4688 38.6387L68.8349 38.6539V38.2007L68.6864 38.1931C68.733 38.154 68.7883 38.115 68.8349 38.0684V38.0695ZM56.5713 41.3872V40.8017C57.3205 41.4804 58.1954 42.0117 59.194 42.363V25.7982C58.3895 26.0866 57.6403 26.4694 56.9378 26.954C56.8131 27.0473 56.6884 27.134 56.5713 27.2348V26.6103C56.6103 26.5789 56.6418 26.5561 56.6808 26.5247C57.5785 25.9002 58.5782 25.4242 59.632 25.1119V42.9571C58.4849 42.6449 57.4538 42.106 56.5724 41.3883L56.5713 41.3872ZM56.5713 38.655L57.945 38.6398C57.5081 38.257 57.0321 37.8591 56.5713 37.4146V38.0706C56.6255 38.1172 56.6732 38.1562 56.7274 38.1952L56.5713 38.2028V38.656V38.655ZM56.5713 26.6092V27.2338C54.7129 28.717 53.5734 31.0437 54.0656 33.3542C54.4321 35.0868 55.4708 36.3672 56.5713 37.4135V38.0695C54.6826 36.493 53.5734 34.4861 53.5344 32.4337V32.2851C53.5344 30.0137 54.6511 28.1163 56.5713 26.6103V26.6092ZM56.5713 38.2017V38.655L54.8615 38.6701C55.3374 39.4822 55.9077 40.2 56.5713 40.8017V41.3872C55.5489 40.5523 54.7216 39.4822 54.1274 38.2408L56.5713 38.2017Z" fill="black"/>
</g>
<defs>
<clipPath id="clip0_335_979">
<rect width="50.2277" height="50" fill="white" transform="translate(37 7)"/>
</clipPath>
</defs>
</svg>
