<svg width="125" height="64" viewBox="0 0 125 64" fill="none" xmlns="http://www.w3.org/2000/svg">
<rect width="125" height="64" rx="8" fill="white"/>
<path d="M42.4862 14H38.0306V18.3773H42.4862V14Z" fill="#E1251B"/>
<path d="M50.3729 14H45.9173V18.3773H50.3729V14Z" fill="#FFA400"/>
<path d="M57.8787 14H53.4231V18.3773H57.8787V14Z" fill="#00A0DF"/>
<path d="M107.125 14H102.669V40.2591H107.125V14Z" fill="#0047BA"/>
<path d="M45.9173 44.6227H41.4641V49H50.3729V22.7546H45.9173V44.6227Z" fill="#0047BA"/>
<path d="M57.8787 22.7546H53.4231V40.2591H57.8787V22.7546Z" fill="#0047BA"/>
<path d="M42.4862 40.2591V22.7546H38.0306V40.2591H42.4862Z" fill="#0047BA"/>
<path d="M30.3645 22.7546H17V40.2591H34.8178V14H30.3645V22.7546ZM30.3645 35.8841H21.4556V27.1296H30.3645V35.8841Z" fill="#0047BA"/>
<path d="M60.9289 49H65.3845V40.2591H78.749V22.7546H60.9312V49H60.9289ZM65.3845 27.1296H74.2934V35.8818H65.3845V27.1296Z" fill="#0047BA"/>
<path d="M81.7991 40.2591H99.6169V22.7546H81.7991V40.2591ZM86.2548 27.1182H95.1636V35.8704H86.2548V27.1182Z" fill="#0047BA"/>
</svg>
