<?xml version="1.0" standalone="no"?>
<!DOCTYPE svg PUBLIC "-//W3C//DTD SVG 20010904//EN"
 "http://www.w3.org/TR/2001/REC-SVG-20010904/DTD/svg10.dtd">
<svg version="1.0" xmlns="http://www.w3.org/2000/svg"
 width="125.000000pt" height="64.000000pt" viewBox="0 0 125.000000 64.000000"
 preserveAspectRatio="xMidYMid meet">

<g transform="translate(0.000000,64.000000) scale(0.100000,-0.100000)"
fill="#000000" stroke="none">
<path d="M610 485 c0 -10 10 -15 30 -15 20 0 30 5 30 15 0 10 -10 15 -30 15
-20 0 -30 -5 -30 -15z"/>
<path d="M378 443 c7 -3 16 -2 19 1 4 3 -2 6 -13 5 -11 0 -14 -3 -6 -6z"/>
<path d="M428 443 c7 -3 16 -2 19 1 4 3 -2 6 -13 5 -11 0 -14 -3 -6 -6z"/>
<path d="M575 417 c-48 -48 -49 -95 -1 -143 51 -51 119 -43 156 18 33 54 27
68 -25 68 -34 0 -45 -4 -45 -15 0 -9 7 -18 15 -21 12 -5 13 -10 4 -20 -16 -20
-53 -17 -72 4 -39 43 -4 98 55 87 24 -5 38 -2 46 8 17 20 -6 37 -57 44 -36 5
-44 2 -76 -30z"/>
<path d="M1013 426 c-24 -21 -26 -27 -18 -52 8 -21 22 -33 55 -45 24 -9 46
-21 48 -28 5 -14 -42 -15 -68 -1 -13 7 -21 5 -31 -6 -36 -43 95 -71 140 -30
37 34 24 67 -36 96 -62 30 -68 45 -15 37 31 -4 41 -1 51 14 10 17 8 21 -14 29
-43 16 -82 11 -112 -14z"/>
<path d="M100 345 l0 -95 61 0 c54 0 64 3 91 30 27 28 30 36 25 73 -8 62 -42
87 -118 87 l-59 0 0 -95z m114 39 c37 -37 11 -94 -43 -94 -19 0 -21 6 -21 55
0 52 2 55 24 55 14 0 32 -7 40 -16z"/>
<path d="M770 380 c0 -70 17 -111 55 -128 42 -19 74 -14 106 17 27 27 29 35
29 100 0 69 -1 71 -25 71 -24 0 -25 -2 -25 -63 0 -65 -11 -87 -41 -87 -34 0
-49 28 -49 91 0 56 -1 59 -25 59 -24 0 -25 -3 -25 -60z"/>
<path d="M438 413 c7 -3 16 -2 19 1 4 3 -2 6 -13 5 -11 0 -14 -3 -6 -6z"/>
<path d="M325 400 c-3 -6 1 -7 9 -4 18 7 21 14 7 14 -6 0 -13 -4 -16 -10z"/>
<path d="M398 403 c7 -3 16 -2 19 1 4 3 -2 6 -13 5 -11 0 -14 -3 -6 -6z"/>
<path d="M483 392 c-9 -5 -6 -12 10 -21 19 -13 21 -12 10 1 -7 8 -10 18 -6 21
9 9 1 8 -14 -1z"/>
<path d="M441 376 c2 -2 15 -9 29 -15 24 -11 24 -11 6 3 -16 13 -49 24 -35 12z"/>
<path d="M324 348 l-19 -23 23 19 c21 18 27 26 19 26 -2 0 -12 -10 -23 -22z"/>
<path d="M398 353 c7 -3 16 -2 19 1 4 3 -2 6 -13 5 -11 0 -14 -3 -6 -6z"/>
<path d="M344 328 l-19 -23 25 20 c14 11 27 21 29 22 2 2 0 3 -6 3 -5 0 -18
-10 -29 -22z"/>
<path d="M431 347 c2 -2 18 -11 34 -21 l30 -17 -24 20 c-13 12 -28 21 -34 21
-6 0 -8 -1 -6 -3z"/>
<path d="M398 323 c6 -2 18 -2 25 0 6 3 1 5 -13 5 -14 0 -19 -2 -12 -5z"/>
<path d="M359 303 c-13 -16 -12 -17 4 -4 16 13 21 21 13 21 -2 0 -10 -8 -17
-17z"/>
<path d="M440 316 c0 -2 8 -10 18 -17 15 -13 16 -12 3 4 -13 16 -21 21 -21 13z"/>
<path d="M430 296 c0 -2 8 -10 18 -17 15 -13 16 -12 3 4 -13 16 -21 21 -21 13z"/>
<path d="M398 273 c7 -3 16 -2 19 1 4 3 -2 6 -13 5 -11 0 -14 -3 -6 -6z"/>
<path d="M1054 209 c-10 -17 13 -36 27 -22 12 12 4 33 -11 33 -5 0 -12 -5 -16
-11z"/>
</g>
</svg>
