<?xml version="1.0" encoding="UTF-8"?>
<!DOCTYPE svg PUBLIC "-//W3C//DTD SVG 1.1//EN" "http://www.w3.org/Graphics/SVG/1.1/DTD/svg11.dtd">
<svg xmlns="http://www.w3.org/2000/svg" version="1.1" width="125px" height="64px" style="shape-rendering:geometricPrecision; text-rendering:geometricPrecision; image-rendering:optimizeQuality; fill-rule:evenodd; clip-rule:evenodd" xmlns:xlink="http://www.w3.org/1999/xlink">
<g><path style="opacity:1" fill="#fcfcfc" d="M -0.5,-0.5 C 41.1667,-0.5 82.8333,-0.5 124.5,-0.5C 124.5,20.8333 124.5,42.1667 124.5,63.5C 82.8333,63.5 41.1667,63.5 -0.5,63.5C -0.5,42.1667 -0.5,20.8333 -0.5,-0.5 Z"/></g>
<g><path style="opacity:1" fill="#302b27" d="M 59.5,10.5 C 61.5,10.5 63.5,10.5 65.5,10.5C 65.5,11.8333 65.5,13.1667 65.5,14.5C 63.5,14.5 61.5,14.5 59.5,14.5C 59.5,13.1667 59.5,11.8333 59.5,10.5 Z"/></g>
<g><path style="opacity:1" fill="#404f60" d="M 35.5,16.5 C 38.7216,16.1081 41.7216,16.6081 44.5,18C 40.6979,16.9649 37.0313,17.4649 33.5,19.5C 33.1667,19.3333 32.8333,19.1667 32.5,19C 33.5707,18.1482 34.5707,17.3149 35.5,16.5 Z"/></g>
<g><path style="opacity:1" fill="#2d2824" d="M 8.5,17.5 C 21.7689,15.6029 27.6023,21.2696 26,34.5C 22.534,41.9337 16.7006,44.6004 8.5,42.5C 8.5,34.1667 8.5,25.8333 8.5,17.5 Z"/></g>
<g><path style="opacity:1" fill="#2e2925" d="M 59.5,16.5 C 64.0838,15.7928 67.7505,17.2928 70.5,21C 69.3147,22.353 67.9814,23.5197 66.5,24.5C 60.6792,21.8976 57.6792,23.7309 57.5,30C 57.3119,35.8123 59.9786,37.8123 65.5,36C 68.4685,33.8223 68.1351,32.6556 64.5,32.5C 64.5,30.8333 64.5,29.1667 64.5,27.5C 67.5,27.5 70.5,27.5 73.5,27.5C 73.5768,33.1813 71.5768,38.0147 67.5,42C 60.6829,44.5587 55.8495,42.392 53,35.5C 50.7723,27.4907 52.939,21.1574 59.5,16.5 Z"/></g>
<g><path style="opacity:1" fill="#282320" d="M 75.5,17.5 C 77.1667,17.5 78.8333,17.5 80.5,17.5C 80.334,22.8437 80.5006,28.1771 81,33.5C 82.3051,36.3064 84.4718,37.1397 87.5,36C 88.1258,35.2496 88.6258,34.4162 89,33.5C 89.4994,28.1771 89.666,22.8437 89.5,17.5C 91.1667,17.5 92.8333,17.5 94.5,17.5C 94.8774,24.2569 94.3774,30.9236 93,37.5C 87.6667,45.5 82.3333,45.5 77,37.5C 75.6226,30.9236 75.1226,24.2569 75.5,17.5 Z"/></g>
<g><path style="opacity:1" fill="#2c2824" d="M 102.5,16.5 C 105.568,16.5467 108.568,17.0467 111.5,18C 112.694,20.4444 112.194,22.6111 110,24.5C 108.211,22.771 106.044,22.1043 103.5,22.5C 103.281,23.675 103.614,24.675 104.5,25.5C 107.58,26.7885 110.414,28.4552 113,30.5C 115.705,37.7517 113.205,42.085 105.5,43.5C 101.743,43.1232 98.7433,41.4566 96.5,38.5C 97.5,37.1667 98.5,35.8333 99.5,34.5C 101.226,36.0298 103.226,37.0298 105.5,37.5C 107,37.5472 108,36.8805 108.5,35.5C 106.268,33.3549 103.601,31.8549 100.5,31C 96.1275,25.4079 96.7942,20.5746 102.5,16.5 Z"/></g>
<g><path style="opacity:1" fill="#77838e" d="M 34.5,26.5 C 32.4998,28.671 30.6665,31.0043 29,33.5C 28.1649,29.9274 28.4982,26.5941 30,23.5C 36.7489,18.149 43.2489,18.4823 49.5,24.5C 49.1667,25.5 48.5,26.1667 47.5,26.5C 42.5934,22.7598 37.5934,22.5931 32.5,26C 33.0944,26.4643 33.7611,26.631 34.5,26.5 Z"/></g>
<g><path style="opacity:1" fill="#fafafa" d="M 13.5,23.5 C 18.7412,22.6102 21.4079,24.7769 21.5,30C 21.4079,35.2231 18.7412,37.3898 13.5,36.5C 13.5,32.1667 13.5,27.8333 13.5,23.5 Z"/></g>
<g><path style="opacity:1" fill="#596876" d="M 45.5,27.5 C 41.9009,26.6561 38.2343,26.3227 34.5,26.5C 38.3966,23.809 42.0633,24.1423 45.5,27.5 Z"/></g>
<g><path style="opacity:1" fill="#485767" d="M 45.5,27.5 C 47.6859,27.5106 48.5192,28.5106 48,30.5C 46.955,29.6266 46.1217,28.6266 45.5,27.5 Z"/></g>
<g><path style="opacity:1" fill="#4d5c6b" d="M 35.5,28.5 C 40.9483,27.975 45.1149,29.975 48,34.5C 48.6667,35.5 48.6667,36.5 48,37.5C 41.5167,26.6127 35.85,26.946 31,38.5C 30.3333,37.1667 30.3333,35.8333 31,34.5C 32.332,32.34 33.832,30.34 35.5,28.5 Z"/></g>
<g><path style="opacity:1" fill="#6e7a87" d="M 35.5,37.5 C 35.9528,36.5416 36.6195,35.7083 37.5,35C 36.8333,34.6667 36.1667,34.3333 35.5,34C 42.0295,31.1889 45.5295,33.3556 46,40.5C 45.6667,39.8333 45.3333,39.1667 45,38.5C 44.6667,39.8333 44.3333,41.1667 44,42.5C 43.5058,36.8374 40.6725,35.1707 35.5,37.5 Z"/></g>
<g><path style="opacity:1" fill="#324455" d="M 37.5,39.5 C 38.7082,38.218 40.0416,38.218 41.5,39.5C 40.4425,39.9059 39.1092,39.9059 37.5,39.5 Z"/></g>
<g><path style="opacity:1" fill="#74808c" d="M 35.5,37.5 C 34.2427,44.0633 33.4094,44.0633 33,37.5C 33.3333,38.1667 33.6667,38.8333 34,39.5C 34.2784,38.5842 34.7784,37.9175 35.5,37.5 Z"/></g>
<g><path style="opacity:1" fill="#546372" d="M 32.5,49.5 C 33.209,48.596 34.209,48.2627 35.5,48.5C 35.6567,49.8734 35.49,51.2068 35,52.5C 34.7645,50.8807 33.9311,49.8807 32.5,49.5 Z"/></g>
<g><path style="opacity:1" fill="#a0a8b0" d="M 45.5,49.5 C 45.7778,51.3464 45.1112,52.6798 43.5,53.5C 41.1363,53.564 38.803,53.2307 36.5,52.5C 38.3797,52.7709 39.713,52.1042 40.5,50.5C 41.8149,48.4008 43.4816,48.0674 45.5,49.5 Z"/></g>
<g><path style="opacity:1" fill="#2c2824" d="M 104.5,45.5 C 107.389,45.999 108.056,47.499 106.5,50C 105.552,50.4828 104.552,50.6495 103.5,50.5C 103.366,48.7085 103.699,47.0418 104.5,45.5 Z"/></g>
<g><path style="opacity:1" fill="#5f6c7a" d="M 40.5,50.5 C 39.713,52.1042 38.3797,52.7709 36.5,52.5C 36.3433,51.1266 36.51,49.7932 37,48.5C 38,51.1667 39,51.1667 40,48.5C 40.4643,49.0944 40.631,49.7611 40.5,50.5 Z"/></g>
<g><path style="opacity:1" fill="#87919c" d="M 25.5,48.5 C 27.5273,48.3379 29.5273,48.5045 31.5,49C 30.7734,50.3988 30.2734,51.8988 30,53.5C 29.5724,48.502 28.7391,48.3353 27.5,53C 24.4846,52.8307 23.8179,51.3307 25.5,48.5 Z"/></g>
<g><path style="opacity:1" fill="#8f99a3" d="M 45.5,49.5 C 46.8675,48.6937 48.2008,47.6937 49.5,46.5C 50.5836,47.6651 51.4169,48.9984 52,50.5C 52.4226,49.0439 53.2559,48.5439 54.5,49C 53.5399,50.4194 52.7065,51.9194 52,53.5C 51.3741,51.0087 50.5407,51.0087 49.5,53.5C 48.3756,48.2792 47.5423,48.2792 47,53.5C 46.79,51.9419 46.29,50.6085 45.5,49.5 Z"/></g>
</svg>
