<svg width="125" height="64" viewBox="0 0 125 64" fill="none" xmlns="http://www.w3.org/2000/svg">
<rect width="125" height="64" rx="8" fill="white"/>
<path d="M21.0565 28.2712V12H32.8644V16.0113H26.4802V17.9322H32.4689V22.1695H26.4802V28.2712H21.0565Z" fill="#010202"/>
<path d="M38.7966 12H33.9379V28.2712H38.7966V12Z" fill="#010202"/>
<path d="M45.0678 22.2825C45.0678 24.1469 45.5198 25.2203 46.8192 25.2203C48.1187 25.2203 48.5706 24.1469 48.5706 22.339C48.5706 20.5311 48.1187 19.4011 46.8192 19.4011C45.5198 19.3446 45.0678 20.4181 45.0678 22.2825ZM53.5989 22.2825C53.5989 26.0113 51.113 28.6102 46.8757 28.6102C42.6384 28.6102 40.1526 26.0113 40.1526 22.2825C40.1526 18.5537 42.6384 15.8983 46.8192 15.8983C51 15.8983 53.5989 18.4972 53.5989 22.2825Z" fill="#010202"/>
<path d="M59.4181 16.2938C59.4181 16.6893 59.4181 17.1413 59.4181 17.7627H59.4746C59.9831 16.8023 61.226 16.0113 63.2034 16.0113C64.8418 16.0113 66.1413 16.6328 66.8192 17.8192C67.5537 16.8588 68.7966 16.0113 70.8305 16.0113C72.6949 16.0113 73.9379 16.6893 74.6723 17.9322C75.2373 18.8927 75.2938 19.8531 75.2938 21.9435V28.2712H70.435V22.1695C70.435 20.3616 70.1526 19.5706 69.0226 19.5706C67.8362 19.5706 67.4972 20.3051 67.4972 22.226V28.2147H62.6384V21.774C62.6384 20.2486 62.243 19.5706 61.226 19.5706C60.0396 19.5706 59.7006 20.4181 59.7006 22.565V28.2712H54.8418V18.2712C54.8418 17.5932 54.8418 16.9718 54.8418 16.2938H59.4181Z" fill="#010202"/>
<path d="M83.4294 23.3559C81.6215 23.6384 81.0565 23.9209 81.0565 24.7119C81.0565 25.3898 81.5085 25.8418 82.4124 25.8418C83.4294 25.8418 84.2203 25.2768 84.2203 23.7514V23.2429L83.4294 23.3559ZM84.7288 28.2712C84.6723 27.8192 84.6723 27.5367 84.6723 26.9718H84.6158C83.9378 27.8757 82.8644 28.4972 80.887 28.4972C78.2316 28.4972 76.5367 27.1413 76.5367 24.8814C76.5367 22.9605 77.8361 21.9435 80.096 21.322C81.2825 20.9831 82.5819 20.8701 84.2203 20.7571C84.2203 19.4011 83.7684 19.0057 82.8079 19.0057C81.8474 19.0057 81.452 19.6271 81.339 20.3051H76.9887C77.2147 17.4802 79.5311 15.9548 82.8644 15.9548C86.4802 15.9548 88.6836 17.3107 88.6836 21.435V24.3729C88.6836 26.1243 88.6836 27.3672 88.9096 28.2712H84.7288Z" fill="#010202"/>
<path d="M90.435 28.2712V12H95.2938V21.3785C95.9152 20.5311 98.1751 17.0283 98.6271 16.3503H104.277C102.525 18.4407 100.492 21.0961 99.9266 21.8305C100.831 23.1864 103.034 26.1808 104.672 28.2712H98.7401C97.3842 26.1808 95.6893 23.2994 95.2938 22.6215V28.2712H90.435Z" fill="#010202"/>
<path d="M74.6723 30.9266H21V36.2938H74.6723V30.9266Z" fill="#055CA1"/>
<path d="M104.051 38.6102H21V43.9774H104.051V38.6102Z" fill="#278FC8"/>
<path d="M104.051 46.6328H21V52H104.051V46.6328Z" fill="#96C4E8"/>
<path d="M81.113 32.6215H79.87C79.6441 32.1695 79.3051 31.887 78.7401 31.887C77.8926 31.887 77.3842 32.565 77.3842 33.4689C77.3842 34.4294 77.8926 35.1074 78.7401 35.1074C79.4746 35.1074 79.87 34.6554 79.983 34.1469C79.757 34.1469 79.5876 34.1469 79.3616 34.1469H78.4576V33.2429H81.113V35.9548H80.0395V35.6723C80.0395 35.5593 80.0395 35.4463 80.0395 35.3898C79.757 35.7288 79.2486 36.0113 78.5141 36.0113C77.1582 36.0113 76.1977 34.9944 76.1977 33.4124C76.1977 31.887 77.2147 30.8136 78.7401 30.8136C79.983 30.9266 80.8305 31.6045 81.113 32.6215Z" fill="#010202"/>
<path d="M83.9378 33.2995H84.5593C85.0678 33.2995 85.4068 33.0735 85.4068 32.6215C85.4068 32.1695 85.0678 32 84.5028 32H83.9378V33.2995ZM83.9378 36.0113H82.8079V31.0396H84.6158C85.1808 31.0396 85.5763 31.0961 85.9717 31.3221C86.3107 31.6045 86.5367 32 86.5367 32.5085C86.5367 33.356 86.0282 33.8079 85.4633 34.0339L86.7062 36.0113H85.4068L84.3333 34.2034H83.8813V36.0113H83.9378Z" fill="#010202"/>
<path d="M91.6779 33.5254C91.6779 32.5085 91.1695 31.887 90.3785 31.887C89.531 31.887 89.0226 32.5085 89.0226 33.5254C89.0226 34.4859 89.531 35.1074 90.3785 35.1074C91.1695 35.1074 91.6779 34.4859 91.6779 33.5254ZM92.8644 33.5254C92.8644 35.1074 91.8474 36.1243 90.322 36.1243C88.7966 36.1243 87.7796 35.1638 87.7796 33.5254C87.7796 31.9435 88.7966 30.9266 90.322 30.9266C91.8474 30.9266 92.8644 31.9435 92.8644 33.5254Z" fill="#010202"/>
<path d="M97.2712 33.9774V31.0396H98.4012V33.9774C98.4012 34.5989 98.2882 35.0509 98.0057 35.3898C97.6667 35.8418 97.1582 36.0678 96.4238 36.0678C95.6893 36.0678 95.1808 35.8418 94.8418 35.3898C94.5594 35.0509 94.4464 34.5989 94.4464 33.9774V31.0396H95.5763V33.9774C95.5763 34.7684 95.8588 35.1074 96.4238 35.1074C96.9322 35.1074 97.2712 34.7119 97.2712 33.9774Z" fill="#010202"/>
<path d="M101.339 33.2995H101.904C102.469 33.2995 102.751 33.0735 102.751 32.6215C102.751 32.1695 102.469 32 101.847 32H101.283V33.2995H101.339ZM100.209 31.0396H101.678C101.847 31.0396 102.017 31.0396 102.186 31.0396C103.26 31.0961 103.881 31.661 103.881 32.6215C103.881 33.13 103.712 33.5819 103.316 33.8644C102.921 34.1469 102.412 34.2034 101.678 34.2034H101.283V35.9548H100.153L100.209 31.0396Z" fill="#010202"/>
</svg>
