<svg width="125" height="64" viewBox="0 0 125 64" fill="none" xmlns="http://www.w3.org/2000/svg">
<rect width="125" height="64" rx="8" fill="white"/>
<g clip-path="url(#clip0_335_1154)">
<mask id="mask0_335_1154" style="mask-type:luminance" maskUnits="userSpaceOnUse" x="-24" y="-26" width="175" height="124">
<path d="M150.047 -25.402H-23.4237V97.2542H150.047V-25.402Z" fill="white"/>
</mask>
<g mask="url(#mask0_335_1154)">
<path fill-rule="evenodd" clip-rule="evenodd" d="M18.1793 27.9461V27.9583C17.923 28.0115 17.7193 28.0864 17.5637 28.1831C17.4115 28.2814 17.2929 28.399 17.2074 28.5403C17.1241 28.6814 17.0708 28.8441 17.0488 29.0292C17.0281 29.2149 17.02 29.4261 17.0295 29.6637L17.2017 34.5383C17.2098 34.8295 17.2373 35.0722 17.2783 35.2651C17.3241 35.4603 17.3946 35.6227 17.4919 35.7492C17.5898 35.8756 17.7112 35.978 17.861 36.0515C18.0115 36.1275 18.1969 36.1942 18.4159 36.2566V36.2705H17.6234C17.4919 36.1986 17.3817 36.1275 17.2942 36.0515C17.2074 35.978 17.1302 35.8756 17.0688 35.7492C17.0078 35.6227 16.9624 35.461 16.9288 35.2715C16.8986 35.0827 16.8797 34.84 16.8698 34.5383L16.699 29.6759C16.6891 29.4644 16.6952 29.2624 16.718 29.0695C16.7417 28.8756 16.783 28.7014 16.8522 28.5461C16.9166 28.3939 17.0091 28.2634 17.1274 28.1566C17.2485 28.0519 17.3986 27.9807 17.5844 27.9461H18.1793ZM16.9898 27.9461H16.4342C16.3468 27.9902 16.2763 28.0692 16.2244 28.1831C16.1722 28.298 16.1264 28.437 16.0919 28.6007C16.0559 28.7627 16.0346 28.9393 16.0247 29.1285C16.0166 29.3183 16.0166 29.5051 16.0247 29.6898L16.2105 34.5268C16.2186 34.8359 16.2244 35.0827 16.2298 35.2715C16.2329 35.461 16.2298 35.618 16.2176 35.7407C16.2024 35.8648 16.1817 35.9631 16.1502 36.0393C16.1197 36.1129 16.081 36.1875 16.0386 36.2566V36.2705H16.8844V36.2566C16.8393 36.1942 16.8007 36.1251 16.7671 36.0458C16.7298 35.9658 16.6952 35.8648 16.6644 35.7407C16.6342 35.618 16.6081 35.4603 16.5874 35.2651C16.5647 35.0722 16.5491 34.8295 16.541 34.5383L16.3685 29.6898C16.36 29.4966 16.3647 29.302 16.3841 29.1078C16.4007 28.9146 16.4305 28.7376 16.4736 28.5797C16.519 28.421 16.5827 28.2875 16.6644 28.1759C16.7491 28.0668 16.8569 27.9942 16.9898 27.9583V27.9461ZM15.879 27.9461V27.9583C15.8359 28.0115 15.8 28.1061 15.7756 28.2427C15.7481 28.38 15.7274 28.5342 15.7149 28.7051C15.7013 28.8776 15.6932 29.0529 15.6888 29.2342C15.6847 29.4149 15.6874 29.58 15.6946 29.7305L15.879 34.5268C15.8885 34.8437 15.8885 35.0997 15.879 35.2922C15.8715 35.4858 15.8441 35.6424 15.8 35.7603C15.7563 35.8797 15.6932 35.978 15.6091 36.0515C15.5254 36.1275 15.4122 36.1986 15.2715 36.2705H14.4512V36.2566C14.682 36.179 14.8698 36.1027 15.0139 36.0336C15.1586 35.9617 15.2725 35.8678 15.3569 35.7492C15.441 35.6302 15.498 35.4759 15.5227 35.2854C15.5498 35.0959 15.558 34.8437 15.5498 34.5268L15.299 27.9461H15.879ZM10.159 27.9461L13.3302 34.5529L13.1308 34.9105L10.4342 29.3061C10.3736 29.1739 10.3017 29.0363 10.218 28.8902C10.1339 28.7447 10.0488 28.6102 9.96609 28.4871C9.88372 28.3637 9.80101 28.2536 9.72304 28.1566C9.64372 28.06 9.57796 27.9942 9.52406 27.9583V27.9461H10.159ZM8.65253 33.8529H8.63864C8.62101 33.9932 8.61186 34.1481 8.61186 34.3156C8.61186 34.4814 8.61423 34.6444 8.61965 34.802C8.62372 34.962 8.63592 35.1115 8.65864 35.2536C8.68033 35.3946 8.70779 35.5098 8.74372 35.5953C8.82372 35.781 8.91457 35.9163 9.01457 35.9983C9.11491 36.082 9.26338 36.1725 9.45626 36.2705H10.2766V36.2566C9.96881 36.1685 9.70847 36.082 9.49762 35.9983C9.28575 35.9163 9.11491 35.781 8.98304 35.5953C8.91152 35.5098 8.85355 35.3905 8.81084 35.2471C8.76508 35.1017 8.73016 34.9478 8.70508 34.7898C8.67762 34.6322 8.66101 34.4715 8.65253 34.3068C8.64304 34.1458 8.64304 33.9932 8.65253 33.8529ZM8.96982 27.9461H8.40101V27.9583C8.69931 28.0742 8.96372 28.2814 9.19389 28.5797C9.42236 28.88 9.62169 29.1976 9.78914 29.5315L12.7495 35.6359L12.9339 35.2797L10.1186 29.4261C10.0668 29.3109 9.99626 29.1739 9.90813 29.0156C9.81931 28.8573 9.72304 28.7051 9.61626 28.5603C9.51118 28.4149 9.40304 28.2848 9.29118 28.1695C9.18169 28.0563 9.07389 27.9807 8.96982 27.9461ZM8.62508 33.8529C8.60711 34.0034 8.58948 34.1586 8.57253 34.321C8.55525 34.4851 8.53999 34.6444 8.52575 34.802C8.51253 34.962 8.50677 35.1115 8.50677 35.2536C8.50677 35.3946 8.51118 35.5129 8.51965 35.6085C8.53728 35.7851 8.56745 35.9163 8.61186 35.9983C8.65525 36.082 8.71864 36.1685 8.79728 36.2566V36.2705H7.93864V36.2566C8.00847 36.1685 8.06914 36.0753 8.11592 35.98C8.16406 35.8814 8.21084 35.759 8.25626 35.6085C8.28236 35.5214 8.30982 35.4081 8.34135 35.2651C8.3722 35.1244 8.40508 34.9749 8.44067 34.8159C8.4766 34.6576 8.50677 34.4959 8.53287 34.3275C8.55931 34.161 8.58677 34.0034 8.61186 33.8529H8.62508ZM7.8044 27.9461H7.13287V27.9583C7.37796 28.0468 7.60101 28.1414 7.79897 28.2427C7.99796 28.3444 8.17965 28.4624 8.34135 28.6007C8.50406 28.7363 8.65389 28.8983 8.79016 29.0888C8.92813 29.279 9.05762 29.5051 9.17965 29.7688L12.3505 36.3634H12.378L12.5505 36.0075L9.49762 29.6495C9.38203 29.4122 9.26813 29.2047 9.15423 29.0292C9.0383 28.8536 8.91694 28.6966 8.78508 28.5603C8.65253 28.4234 8.50677 28.3044 8.34881 28.2037C8.1905 28.1024 8.00847 28.0159 7.8044 27.9461ZM8.59864 33.8529C8.57253 34.0105 8.53728 34.1749 8.49321 34.3397C8.44914 34.5075 8.40236 34.6715 8.35423 34.8295C8.30575 34.9885 8.25355 35.1356 8.19558 35.2715C8.13796 35.4095 8.0827 35.5254 8.03084 35.6234C7.93423 35.7997 7.83457 35.9285 7.73287 36.0115C7.63118 36.097 7.50745 36.1834 7.35558 36.2705H6.5905V36.2566C6.7305 36.2034 6.85728 36.1586 6.97321 36.12C7.08745 36.078 7.19321 36.037 7.28982 35.9922C7.38643 35.9485 7.4766 35.8983 7.56236 35.8407C7.64508 35.7844 7.72203 35.7109 7.79219 35.6234C7.96033 35.4298 8.11592 35.1651 8.26203 34.8295C8.40745 34.4959 8.51491 34.1698 8.58677 33.8529H8.59864Z" fill="#D49835"/>
</g>
<mask id="mask1_335_1154" style="mask-type:luminance" maskUnits="userSpaceOnUse" x="-24" y="-26" width="175" height="124">
<path d="M150.047 -25.402H-23.4237V97.2542H150.047V-25.402Z" fill="white"/>
</mask>
<g mask="url(#mask1_335_1154)">
<path fill-rule="evenodd" clip-rule="evenodd" d="M29.4481 36.2705C29.3407 36.1905 29.2403 36.1085 29.1427 36.0251C29.0461 35.9414 28.9474 35.8261 28.84 35.6742C28.7519 35.5519 28.6664 35.3976 28.5813 35.2119C28.4983 35.0285 28.4078 34.8085 28.3108 34.5532L25.761 27.9319L25.7871 27.8532H26.0641L28.6827 34.6054C28.7793 34.8603 28.8769 35.0742 28.98 35.2471C29.0793 35.4156 29.1919 35.5637 29.3166 35.6892C29.44 35.8119 29.5749 35.9183 29.7247 36.0064C29.8746 36.0949 30.0508 36.179 30.2535 36.2566V36.2705H29.4481ZM25.5895 28.3681L25.4176 28.7919L27.5454 34.458C27.6583 34.7522 27.7464 34.9973 27.8085 35.2003C27.8708 35.402 27.9058 35.5827 27.9142 35.74C27.9142 35.9349 27.858 36.1064 27.7441 36.2566V36.2705H28.8013V36.2566C28.7024 36.1519 28.6254 36.0532 28.562 35.9658C28.501 35.878 28.442 35.7756 28.3841 35.6566C28.3274 35.5356 28.2624 35.3875 28.1929 35.2051C28.1224 35.0261 28.0325 34.7946 27.9285 34.5112L25.5895 28.3681ZM26.1715 36.2705H26.9908C27.1824 36.1834 27.3169 36.0675 27.3858 35.9271C27.4563 35.7844 27.4939 35.6356 27.4939 35.4759C27.4939 35.3461 27.463 35.1936 27.4064 35.0224C27.3502 34.8495 27.2759 34.6495 27.1874 34.419L25.2471 29.2275L25.0749 29.6631L26.2098 32.7163H23.9237L23.8041 33.059H26.3298L26.8186 34.3681C26.899 34.5875 26.9634 34.7834 27.0169 34.9556C27.0698 35.1264 27.0942 35.2841 27.0942 35.4251C27.0942 35.6617 27.023 35.84 26.8769 35.9597C26.7332 36.0776 26.4966 36.179 26.1715 36.2566V36.2705ZM23.7922 36.2705C23.5793 36.1719 23.4352 36.0566 23.3566 35.9203C23.2749 35.7837 23.2352 35.6281 23.2315 35.4508C23.2261 35.2739 23.2508 35.0824 23.3024 34.8763C23.3566 34.6688 23.4091 34.4498 23.4613 34.2217L23.4763 34.2359C23.4319 34.4644 23.3935 34.679 23.3634 34.8817C23.3332 35.0851 23.343 35.2708 23.3969 35.4431C23.4485 35.6153 23.5586 35.7702 23.7271 35.9061C23.8932 36.0431 24.1454 36.1603 24.4797 36.2566V36.2705H23.7922ZM22.4851 36.2705H23.2749C23.1803 36.1834 23.1241 36.0675 23.1047 35.9271C23.0871 35.7844 23.0925 35.6295 23.118 35.4576C23.1447 35.2854 23.1885 35.0929 23.2508 34.8817C23.3112 34.6705 23.3769 34.4458 23.4485 34.2095L23.4352 34.1942C23.2749 34.6705 23.1241 35.0915 22.9742 35.4576C22.8237 35.8217 22.6596 36.0949 22.4851 36.2705ZM21.3864 36.2705H22.0746C22.3827 36.0756 22.639 35.8051 22.8464 35.4576C23.0522 35.1092 23.2451 34.6847 23.421 34.1827L23.4091 34.1698C23.3112 34.4149 23.2041 34.6437 23.0858 34.8559C22.9641 35.0671 22.8295 35.2607 22.6695 35.4373C22.5108 35.6129 22.3254 35.7702 22.1135 35.9061C21.9013 36.0431 21.6617 36.1603 21.3864 36.2566V36.2705Z" fill="#D49835"/>
</g>
<mask id="mask2_335_1154" style="mask-type:luminance" maskUnits="userSpaceOnUse" x="-24" y="-26" width="175" height="124">
<path d="M150.047 -25.402H-23.4237V97.2542H150.047V-25.402Z" fill="white"/>
</mask>
<g mask="url(#mask2_335_1154)">
<path fill-rule="evenodd" clip-rule="evenodd" d="M42.1657 27.9461V27.9583C41.7861 28.0915 41.4447 28.2536 41.1413 28.4485C40.8359 28.6417 40.5678 28.8417 40.3346 29.0481C40.101 29.2566 39.8996 29.4614 39.7346 29.6637C39.5654 29.8661 39.4291 30.0427 39.323 30.1915L39.3108 30.1786C39.4261 30.0197 39.5583 29.8373 39.7129 29.6302C39.8664 29.4241 40.0359 29.217 40.2217 29.0105C40.4074 28.8024 40.6074 28.6068 40.8234 28.421C41.0393 28.237 41.2651 28.077 41.5037 27.9461H42.1657ZM40.9213 27.9461H40.2091C40.2613 28.06 40.2688 28.2051 40.2271 28.3814C40.1888 28.559 40.1227 28.7447 40.0305 28.9434C39.9379 29.1403 39.8224 29.3461 39.6878 29.5576C39.5502 29.7688 39.4149 29.9671 39.284 30.1532L39.2966 30.1658C39.4291 29.9888 39.5691 29.7976 39.7129 29.5912C39.8583 29.3841 40.0044 29.179 40.1502 28.9763C40.2963 28.7729 40.4325 28.5841 40.5657 28.4081C40.6983 28.2325 40.8159 28.0824 40.9213 27.9583V27.9461ZM39.5885 27.9461H38.8617V27.9583C39.1946 28.0563 39.4342 28.1861 39.5752 28.3498C39.7152 28.5115 39.7898 28.6895 39.7993 28.8837C39.7993 29.0868 39.7468 29.2929 39.641 29.5047C39.5335 29.7163 39.4068 29.9231 39.2566 30.1258L39.2702 30.139C39.4115 29.9461 39.5457 29.7407 39.6739 29.5254C39.8003 29.3088 39.8915 29.0997 39.9451 28.8966C39.9976 28.6939 39.999 28.5095 39.9522 28.3417C39.9024 28.1746 39.781 28.0434 39.5885 27.9461ZM37.9105 27.9461H36.8135C36.6373 28.06 36.5186 28.1831 36.4569 28.3156C36.3946 28.4485 36.3698 28.582 36.3837 28.7186C36.3973 28.8563 36.4363 28.9956 36.5024 29.1403C36.5681 29.2864 36.6508 29.4339 36.7468 29.5844L40.0098 34.7234C40.2413 35.0936 40.4569 35.4092 40.6651 35.6685C40.8718 35.9285 41.0756 36.1295 41.2793 36.2705H42.1766V36.2566C41.7359 36.1251 41.3837 35.9285 41.1203 35.6685C40.8563 35.4092 40.6146 35.1037 40.3939 34.7525L37.1156 29.5973C37.0457 29.4827 36.9786 29.3549 36.9122 29.2149C36.8461 29.0742 36.8135 28.9285 36.8135 28.7776C36.8135 28.602 36.8901 28.439 37.0444 28.2895C37.1969 28.1393 37.4868 28.0292 37.9105 27.9583V27.9461ZM35.7685 36.2705C35.5661 36.1458 35.4451 35.9983 35.4061 35.8285C35.3644 35.657 35.3742 35.4705 35.4308 35.2715C35.4902 35.0742 35.5783 34.8715 35.7037 34.6637C35.8251 34.4586 35.9539 34.2573 36.0868 34.0644L36.1 34.0763C35.9766 34.2814 35.8566 34.4868 35.742 34.7034C35.6285 34.9197 35.5718 35.1298 35.5718 35.3309C35.5718 35.5095 35.6379 35.6749 35.7685 35.8339C35.9024 35.9919 36.1383 36.1339 36.483 36.2566V36.2705H35.7685ZM35.9946 27.9461H34.883V27.9583C35.0593 28.1522 35.2203 28.3617 35.3644 28.5861C35.5108 28.8112 35.6902 29.0909 35.9024 29.4261L39.2302 34.6847C39.4607 35.0366 39.6078 35.3431 39.6739 35.6037C39.7396 35.8641 39.7108 36.0807 39.5885 36.2566V36.2705H40.6579V36.2566C40.5081 36.1071 40.3512 35.9024 40.1888 35.6424C40.0268 35.382 39.8305 35.0722 39.6007 34.7102L36.3505 29.5576C36.1383 29.2231 35.9902 28.9132 35.9024 28.6254C35.8135 28.3397 35.8437 28.1173 35.9946 27.9583V27.9461ZM34.4342 36.2705H35.24V36.2566C35.1776 36.141 35.1478 36.0149 35.1478 35.8742C35.1478 35.6081 35.2437 35.32 35.439 35.0078C35.6318 34.6956 35.8437 34.3773 36.0725 34.0495L36.0603 34.0373C35.7339 34.4692 35.4308 34.8844 35.1478 35.2854C34.8664 35.6871 34.6268 36.0102 34.4342 36.2566V36.2705ZM34.2498 27.9461C34.4868 28.0953 34.6963 28.278 34.8776 28.4949C35.0579 28.7105 35.2627 29.0031 35.4915 29.3732L38.8481 34.6712C38.962 34.8563 39.0603 35.0288 39.1454 35.1848C39.2278 35.3458 39.2678 35.4905 39.2637 35.6231C39.2579 35.7542 39.2027 35.8742 39.0986 35.9797C38.9932 36.0848 38.8173 36.1834 38.5695 36.2705H37.6725V36.2566C38.0939 36.1525 38.3922 36.0393 38.5647 35.9203C38.7349 35.7997 38.8207 35.6437 38.8207 35.4509C38.8207 35.3376 38.7857 35.2119 38.7156 35.081C38.6437 34.9478 38.562 34.802 38.4654 34.6444L35.2135 29.5047C34.9681 29.117 34.6986 28.798 34.4095 28.5461C34.1176 28.2956 33.7325 28.0997 33.2583 27.9583V27.9461H34.2498ZM33.1922 36.2705H33.9457C34.2888 36.058 34.6329 35.7492 34.9769 35.3386C35.321 34.9302 35.6759 34.4922 36.0464 34.0237L36.0329 34.0105C35.8305 34.2495 35.6285 34.4786 35.4257 34.7034C35.2217 34.9302 35.0044 35.1407 34.7705 35.3386C34.5393 35.5353 34.2915 35.7166 34.0312 35.8742C33.7708 36.0336 33.4929 36.1597 33.1922 36.2566V36.2705Z" fill="#D49835"/>
</g>
<mask id="mask3_335_1154" style="mask-type:luminance" maskUnits="userSpaceOnUse" x="-24" y="-26" width="175" height="124">
<path d="M150.047 -25.402H-23.4237V97.2542H150.047V-25.402Z" fill="white"/>
</mask>
<g mask="url(#mask3_335_1154)">
<path fill-rule="evenodd" clip-rule="evenodd" d="M49.4125 27.9458V27.958C49.2007 28.0203 49.0234 28.0861 48.8773 28.1563C48.7325 28.2275 48.6142 28.3224 48.5264 28.4414C48.438 28.56 48.3746 28.7115 48.3359 28.8963C48.2952 29.0814 48.2752 29.3105 48.2752 29.5841V34.6319C48.2752 34.9129 48.2952 35.1444 48.3359 35.3244C48.3746 35.5051 48.438 35.6566 48.5264 35.7759C48.6142 35.8932 48.7325 35.9878 48.8773 36.0576C49.0234 36.1292 49.2007 36.1942 49.4125 36.2563V36.2702H48.6332C48.5003 36.2085 48.3912 36.1383 48.3037 36.0654C48.2152 35.9905 48.1434 35.8932 48.0908 35.7759C48.0376 35.6566 48 35.5051 47.9783 35.3244C47.9563 35.1444 47.9454 34.9129 47.9454 34.6319V29.5844C47.9454 29.302 47.9563 29.0712 47.9783 28.8902C48 28.7105 48.0376 28.5603 48.0908 28.4417C48.1434 28.3227 48.2152 28.2251 48.3037 28.1505C48.3912 28.0756 48.5003 28.0081 48.6332 27.9461L49.4125 27.9458ZM47.8522 27.9458V27.958C47.8074 28.0203 47.7742 28.0895 47.7468 28.1637C47.7193 28.2386 47.7 28.3339 47.681 28.4539C47.6641 28.5736 47.6508 28.7231 47.642 28.9027C47.6308 29.0841 47.6281 29.3105 47.6281 29.5841V34.6319C47.6281 34.9054 47.6308 35.1315 47.642 35.3125C47.6508 35.4929 47.6641 35.642 47.681 35.76C47.7 35.8797 47.7193 35.9776 47.7468 36.0512C47.7742 36.1271 47.8074 36.1942 47.8522 36.2563V36.2702H47.0725V36.2563C47.1085 36.1942 47.141 36.1271 47.1746 36.0512C47.2044 35.9776 47.2281 35.8797 47.2458 35.76C47.2637 35.642 47.2759 35.4929 47.2844 35.3125C47.2952 35.1315 47.298 34.9054 47.298 34.6319V29.5844C47.298 29.3109 47.2952 29.0844 47.2844 28.9031C47.2759 28.7234 47.2637 28.5739 47.2458 28.4542C47.2281 28.3342 47.2044 28.239 47.1746 28.1641C47.141 28.0898 47.1085 28.0207 47.0725 27.9583V27.9458H47.8522ZM46.2932 27.9458C46.4271 28.0078 46.5366 28.0753 46.6237 28.1502C46.7132 28.2247 46.783 28.3224 46.8356 28.4414C46.8881 28.56 46.9264 28.7115 46.9485 28.8963C46.9708 29.0814 46.9813 29.3105 46.9813 29.5841V34.6319C46.9813 34.9129 46.9708 35.1444 46.9485 35.3244C46.9264 35.5051 46.8881 35.6566 46.8356 35.7759C46.783 35.8932 46.7132 35.9905 46.6237 36.0654C46.5366 36.1383 46.4271 36.2085 46.2932 36.2702H45.5135V36.2563C45.7254 36.2031 45.9037 36.1383 46.0498 36.0654C46.1939 35.9905 46.3112 35.8932 46.3993 35.7759C46.4885 35.6566 46.5519 35.5051 46.5902 35.3173C46.6305 35.1339 46.6512 34.9054 46.6512 34.6319V29.5844C46.6512 29.3109 46.6305 29.0817 46.5902 28.8966C46.5519 28.7119 46.4885 28.5603 46.3993 28.4417C46.3112 28.3227 46.1939 28.2251 46.0498 28.1505C45.9037 28.0756 45.7254 28.0112 45.5135 27.9583V27.9458H46.2932Z" fill="#D49835"/>
</g>
<mask id="mask4_335_1154" style="mask-type:luminance" maskUnits="userSpaceOnUse" x="-24" y="-26" width="175" height="124">
<path d="M150.047 -25.402H-23.4237V97.2542H150.047V-25.402Z" fill="white"/>
</mask>
<g mask="url(#mask4_335_1154)">
<path fill-rule="evenodd" clip-rule="evenodd" d="M56.4322 36.2295C57.2868 36.1871 57.9186 35.9834 58.3278 35.6227C58.7376 35.261 58.943 34.7373 58.943 34.0495C58.943 33.398 58.743 32.8895 58.3427 32.5244C57.941 32.1597 57.4112 31.941 56.7495 31.8698V31.857C56.9607 31.8214 57.1627 31.7471 57.3569 31.6325C57.5512 31.518 57.721 31.3776 57.8668 31.2092C58.0125 31.0417 58.1281 30.8505 58.2166 30.6346C58.3041 30.4186 58.3481 30.1881 58.3481 29.9417C58.3481 29.5715 58.2956 29.2637 58.1912 29.0224C58.0837 28.781 57.9437 28.5844 57.7674 28.4342C57.5915 28.2848 57.3878 28.1759 57.1532 28.1105C56.9193 28.0447 56.6756 28.0031 56.4213 27.9858V27.9715C56.7098 27.9803 56.9905 28.0176 57.2664 28.0841C57.539 28.1502 57.7854 28.2586 58.0047 28.4081C58.2261 28.559 58.401 28.7563 58.5339 29.0027C58.6668 29.2498 58.7312 29.5576 58.7312 29.9275C58.7312 30.1831 58.6871 30.4142 58.5935 30.6217C58.5013 30.8278 58.3735 31.0129 58.2095 31.1763C58.0481 31.3393 57.8552 31.4786 57.6369 31.5922C57.4152 31.7068 57.1807 31.7956 56.9342 31.857C57.2329 31.8834 57.5281 31.9488 57.8142 32.0556C58.1007 32.1607 58.3566 32.3064 58.5793 32.4909C58.8054 32.6766 58.984 32.8983 59.122 33.1593C59.2573 33.4176 59.3278 33.7163 59.3278 34.0495C59.3278 34.7634 59.0776 35.3 58.5793 35.6614C58.081 36.0224 57.3654 36.2183 56.4322 36.2441V36.2295ZM56.4322 36.2563V36.2705C56.9783 36.2705 57.4729 36.2254 57.9135 36.1376C58.3529 36.0498 58.7291 35.9163 59.0417 35.7346C59.3566 35.5549 59.5986 35.3244 59.7691 35.0478C59.9424 34.7692 60.0274 34.4431 60.0274 34.0641C60.0274 33.7027 59.9447 33.3902 59.783 33.1254C59.6203 32.8607 59.4081 32.6383 59.1481 32.458C58.8881 32.2783 58.6017 32.1363 58.2824 32.0342C57.9651 31.9342 57.6518 31.8654 57.3447 31.8302C57.6176 31.7773 57.8803 31.697 58.1305 31.5868C58.3817 31.477 58.6044 31.3393 58.7973 31.1763C58.9912 31.0129 59.1468 30.8261 59.26 30.6146C59.3759 30.4034 59.4332 30.1739 59.4332 29.9275C59.4332 29.54 59.34 29.2197 59.1552 28.9627C58.9705 28.7075 58.7312 28.5058 58.442 28.3559C58.1515 28.2047 57.8264 28.0997 57.4701 28.038C57.1135 27.9763 56.7651 27.9461 56.4213 27.9461V27.9583C56.7281 27.9681 57.0379 28.0031 57.3518 28.0648C57.6657 28.1258 57.9451 28.2322 58.1973 28.3814C58.4488 28.5315 58.6525 28.7322 58.8108 28.9827C58.9705 29.2339 59.0474 29.5488 59.0474 29.9275C59.0474 30.1739 58.9979 30.4014 58.8963 30.6078C58.7959 30.8156 58.6596 31.0003 58.4871 31.1637C58.3152 31.3261 58.1173 31.4627 57.8932 31.5722C57.6695 31.6831 57.4373 31.7681 57.2 31.8302V31.8444C57.4908 31.8864 57.7817 31.9631 58.0718 32.0685C58.3617 32.1736 58.6251 32.3159 58.8573 32.4909C59.0905 32.6678 59.2803 32.8851 59.4251 33.1447C59.5712 33.4044 59.6451 33.7119 59.6451 34.0641C59.6451 34.7942 59.3603 35.3386 58.7915 35.6953C58.2241 36.0512 57.4373 36.2397 56.4322 36.2563ZM56.4322 36.2031V36.2183C57.2329 36.1725 57.7986 35.9631 58.1305 35.5885C58.4607 35.2149 58.6264 34.6986 58.6264 34.0373C58.6264 33.421 58.4434 32.92 58.0786 32.538C57.7125 32.1549 57.1851 31.9363 56.4993 31.8834C56.7183 31.8492 56.923 31.7732 57.1135 31.6586C57.3013 31.5441 57.4661 31.4007 57.6024 31.2295C57.7376 31.057 57.8444 30.862 57.9186 30.64C57.9935 30.4214 58.0322 30.1881 58.0322 29.9417C58.0322 29.5885 57.9918 29.2909 57.9135 29.0481C57.8335 28.8068 57.7234 28.6102 57.583 28.461C57.4427 28.3109 57.2718 28.2014 57.0732 28.1305C56.8752 28.0607 56.6576 28.0159 56.4213 27.9986V28.0112C56.6302 28.0292 56.8132 28.0756 56.9688 28.1502C57.1217 28.2258 57.2498 28.3373 57.3518 28.4871C57.4525 28.6376 57.5281 28.8312 57.5773 29.0695C57.6251 29.3061 57.6491 29.5976 57.6491 29.9417C57.6491 30.1973 57.6254 30.4349 57.583 30.6542C57.539 30.8739 57.4647 31.0719 57.3569 31.242C57.2512 31.4139 57.1135 31.5546 56.9413 31.6658C56.7688 31.7753 56.5617 31.8444 56.3135 31.8698V31.8976C56.9746 31.9583 57.4607 32.1831 57.7746 32.5712C58.0871 32.959 58.244 33.4471 58.244 34.0373C58.244 34.3539 58.2186 34.6397 58.1698 34.8966C58.121 35.1519 58.0288 35.3725 57.8932 35.5563C57.7566 35.7407 57.5722 35.8895 57.3376 35.9983C57.1037 36.1088 56.8024 36.1793 56.4322 36.2031ZM55.6803 36.2705H55.1244V36.2563C55.16 36.1942 55.1901 36.1027 55.2179 35.9797C55.2427 35.8573 55.2668 35.7139 55.2895 35.5495C55.3112 35.3878 55.3278 35.2149 55.3363 35.0339C55.3444 34.8536 55.3485 34.6753 55.3485 34.4993V29.7166C55.3485 29.5488 55.3444 29.3732 55.3363 29.1881C55.3278 29.0027 55.3112 28.8285 55.2895 28.6658C55.2668 28.5034 55.2427 28.3597 55.2179 28.2366C55.1901 28.1132 55.16 28.0203 55.1244 27.9583V27.9461H55.6803V36.2705ZM55.0308 34.5529C55.0308 34.7207 55.0274 34.8956 55.0193 35.0746C55.0085 35.2546 54.9905 35.4254 54.959 35.5831C54.9274 35.7407 54.8847 35.881 54.8264 36.0071C54.7691 36.1295 54.6979 36.2183 54.6095 36.2705H54.1332V36.2563C54.3617 36.1525 54.5159 35.9417 54.5888 35.6298C54.6644 35.317 54.7013 34.962 54.7013 34.5658V29.6495C54.7013 29.2532 54.6644 28.899 54.5888 28.5864C54.5159 28.2732 54.3617 28.0647 54.1332 27.9583V27.9461H54.6095C54.6979 27.9986 54.7691 28.0868 54.8264 28.2092C54.8847 28.3329 54.9274 28.4746 54.959 28.6325C54.9905 28.7912 55.0085 28.9624 55.0193 29.1403C55.0274 29.3224 55.0308 29.4966 55.0308 29.6634V34.5529ZM54.3834 34.6186V29.5976C54.3834 29.1478 54.3257 28.7912 54.2061 28.5268C54.0874 28.2634 53.8732 28.0688 53.5661 27.9461H52.9173V27.9583C53.1295 28.0292 53.3041 28.1024 53.4474 28.1759C53.5881 28.2512 53.7034 28.3492 53.7973 28.4671C53.8898 28.5864 53.9556 28.7342 53.9942 28.9105C54.0339 29.0868 54.0529 29.3109 54.0529 29.5844V34.6329C54.0529 34.9058 54.0339 35.1305 53.9942 35.3064C53.9556 35.482 53.8898 35.6298 53.7973 35.7488C53.7034 35.8675 53.5881 35.9654 53.4474 36.0458C53.3041 36.1251 53.1295 36.1942 52.9173 36.2563V36.2705H53.5661C53.8732 36.1458 54.0874 35.9529 54.2061 35.6888C54.3257 35.4254 54.3834 35.0675 54.3834 34.6186Z" fill="#D49835"/>
</g>
<mask id="mask5_335_1154" style="mask-type:luminance" maskUnits="userSpaceOnUse" x="-24" y="-26" width="175" height="124">
<path d="M150.047 -25.402H-23.4237V97.2542H150.047V-25.402Z" fill="white"/>
</mask>
<g mask="url(#mask5_335_1154)">
<path fill-rule="evenodd" clip-rule="evenodd" d="M67.0885 27.9458V27.958C66.8752 28.0203 66.698 28.0861 66.5505 28.1563C66.4085 28.2275 66.2898 28.3224 66.202 28.4414C66.1135 28.56 66.0502 28.7115 66.0095 28.8963C65.9695 29.0814 65.9498 29.3105 65.9498 29.5841V34.6319C65.9498 34.9129 65.9695 35.1444 66.0095 35.3244C66.0502 35.5051 66.1135 35.6566 66.202 35.7759C66.2898 35.8932 66.4085 35.9878 66.5505 36.0576C66.698 36.1292 66.8752 36.1942 67.0885 36.2563V36.2702H66.3071C66.1773 36.2085 66.0644 36.1383 65.9769 36.0654C65.8881 35.9905 65.8176 35.8932 65.7651 35.7759C65.7122 35.6566 65.6763 35.5051 65.6525 35.3244C65.6308 35.1444 65.6193 34.9129 65.6193 34.6319V29.5844C65.6193 29.302 65.6308 29.0712 65.6525 28.8902C65.6763 28.7105 65.7122 28.5603 65.7651 28.4417C65.8176 28.3227 65.8881 28.2251 65.9769 28.1505C66.0644 28.0756 66.1773 28.0081 66.3071 27.9461L67.0885 27.9458ZM65.5271 27.9458V27.958C65.4834 28.0203 65.4488 28.0895 65.4227 28.1637C65.3952 28.2386 65.3735 28.3339 65.3552 28.4539C65.3386 28.5736 65.3254 28.7231 65.3169 28.9027C65.3074 29.0841 65.3013 29.3105 65.3013 29.5841V34.6319C65.3013 34.9054 65.3074 35.1315 65.3169 35.3125C65.3254 35.4929 65.3386 35.642 65.3552 35.76C65.3735 35.8797 65.3952 35.9776 65.4227 36.0512C65.4488 36.1271 65.4834 36.1942 65.5271 36.2563V36.2702H64.7495V36.2563C64.7844 36.1942 64.8156 36.1271 64.8478 36.0512C64.878 35.9776 64.9041 35.8797 64.92 35.76C64.9363 35.642 64.9505 35.4929 64.959 35.3125C64.9664 35.1315 64.9725 34.9054 64.9725 34.6319V29.5844C64.9725 29.3109 64.9664 29.0844 64.959 28.9031C64.9505 28.7234 64.9363 28.5739 64.92 28.4542C64.9041 28.3342 64.878 28.239 64.8478 28.1641C64.8156 28.0898 64.7844 28.0207 64.7495 27.9583V27.9458H65.5271ZM63.9688 27.9458C64.0996 28.0078 64.2095 28.0753 64.298 28.1502C64.3854 28.2247 64.4573 28.3224 64.5102 28.4414C64.5627 28.56 64.5996 28.7115 64.6217 28.8963C64.6454 29.0814 64.6559 29.3105 64.6559 29.5841V34.6319C64.6559 34.9129 64.6454 35.1444 64.6217 35.3244C64.5996 35.5051 64.5627 35.6566 64.5102 35.7759C64.4573 35.8932 64.3854 35.9905 64.298 36.0654C64.2095 36.1383 64.0996 36.2085 63.9688 36.2702H63.1881V36.2563C63.4 36.2031 63.5796 36.1383 63.7254 36.0654C63.8681 35.9905 63.9844 35.8932 64.0719 35.7759C64.1613 35.6566 64.2254 35.5051 64.2647 35.3173C64.3027 35.1339 64.3254 34.9054 64.3254 34.6319V29.5844C64.3254 29.3109 64.3027 29.0817 64.2647 28.8966C64.2254 28.7119 64.1613 28.5603 64.0719 28.4417C63.9844 28.3227 63.8681 28.2251 63.7254 28.1505C63.5796 28.0756 63.4 28.0112 63.1881 27.9583V27.9458H63.9688Z" fill="#D49835"/>
</g>
<mask id="mask6_335_1154" style="mask-type:luminance" maskUnits="userSpaceOnUse" x="-24" y="-26" width="175" height="124">
<path d="M150.047 -25.402H-23.4237V97.2542H150.047V-25.402Z" fill="white"/>
</mask>
<g mask="url(#mask6_335_1154)">
<path fill-rule="evenodd" clip-rule="evenodd" d="M74.0956 36.2566C74.2542 36.2566 74.4905 36.2485 74.8071 36.2295C75.1268 36.2129 75.46 36.1847 75.8125 36.1444C76.1637 36.1054 76.5024 36.0458 76.8237 35.9658C77.1481 35.8885 77.3888 35.7851 77.5566 35.6617H77.5705L77.5183 36.2705H74.0956V36.2566ZM74.0956 36.2295V36.2444C74.2542 36.2444 74.4478 36.2363 74.6749 36.219C74.9037 36.199 75.1461 36.1709 75.3963 36.1312C75.6485 36.0925 75.8979 36.0431 76.1441 35.9871C76.3891 35.9285 76.6149 35.8614 76.8237 35.7814C77.0308 35.7027 77.2057 35.6085 77.3471 35.5054C77.4847 35.3983 77.5746 35.28 77.6102 35.1461L77.6644 34.5529H77.6488C77.5705 34.8359 77.3969 35.079 77.1271 35.2854C76.8583 35.4932 76.5471 35.6675 76.1959 35.8085C75.8437 35.9485 75.479 36.0519 75.0993 36.1203C74.7207 36.1844 74.3844 36.2224 74.0956 36.2295ZM74.0956 36.2027V36.2186C74.4563 36.2085 74.8295 36.1556 75.2132 36.0576C75.5949 35.9617 75.9542 35.822 76.2885 35.642C76.6244 35.4614 76.9193 35.2359 77.1756 34.9692C77.4285 34.7 77.6047 34.3837 77.703 34.0237L77.7685 33.2451H77.7563C77.5003 34.1519 77.0529 34.8532 76.4152 35.3515C75.7749 35.8492 74.9996 36.1342 74.0956 36.2027ZM74.6227 27.9458H73.7112C73.5786 28.0153 73.4695 28.0861 73.3817 28.1566C73.2932 28.2275 73.2227 28.3227 73.1678 28.4414C73.1169 28.56 73.0813 28.7098 73.0573 28.8898C73.0356 29.0712 73.0264 29.3024 73.0264 29.5841V34.5912C73.0264 35.0424 73.001 35.4119 72.9586 35.7102C72.9132 36.0047 72.8498 36.1871 72.7603 36.2563V36.2702H73.3535V29.5844C73.3535 29.3109 73.3759 29.0844 73.4156 28.9031C73.4546 28.7237 73.522 28.5739 73.6193 28.4542C73.7162 28.3346 73.8454 28.2407 74.0091 28.1698C74.1715 28.1 74.3783 28.0295 74.6227 27.9583V27.9458ZM72.9973 27.9458V27.958C72.9447 28.0292 72.9007 28.0997 72.8681 28.1695C72.8312 28.2403 72.8 28.3342 72.7735 28.4539C72.7451 28.5736 72.7288 28.7234 72.722 28.9027C72.7122 29.0841 72.7074 29.3105 72.7074 29.5841V34.6058C72.7074 35.0285 72.6749 35.398 72.6078 35.7163C72.5437 36.0336 72.4203 36.2186 72.2454 36.2702H71.7417V36.2563C71.9976 36.1797 72.1674 36.002 72.2512 35.7271C72.3356 35.4563 72.3783 35.081 72.3783 34.6058V29.5844C72.3783 29.3109 72.3732 29.0844 72.3644 28.9031C72.3552 28.7237 72.3434 28.5739 72.3227 28.4542C72.3064 28.3346 72.2837 28.239 72.2512 28.1641C72.2224 28.0895 72.1888 28.0207 72.1532 27.9583V27.9458H72.9973ZM71.3725 27.9458H70.5949V27.958C70.8047 28.0115 70.983 28.0753 71.1274 28.1505C71.2752 28.2258 71.3895 28.3247 71.48 28.4481C71.5664 28.5709 71.6302 28.7234 71.6705 28.9027C71.7102 29.0841 71.7298 29.3105 71.7298 29.5841V34.6325C71.7298 34.9054 71.7102 35.1342 71.6705 35.3173C71.6302 35.5051 71.5664 35.6566 71.48 35.7759C71.3895 35.8932 71.2752 35.9905 71.1274 36.0654C70.983 36.1383 70.8047 36.2027 70.5949 36.2563V36.2702H71.281C71.4142 36.2085 71.5268 36.1383 71.6251 36.0654C71.7224 35.9905 71.8024 35.8932 71.8678 35.7759C71.9346 35.6566 71.983 35.5051 72.0129 35.3173C72.044 35.1342 72.0607 34.9003 72.0607 34.6186V29.5844C72.0607 29.3109 72.0502 29.0824 72.0278 28.8973C72.0051 28.7119 71.9688 28.5603 71.9152 28.4417C71.8613 28.3231 71.7929 28.2261 71.7044 28.1509C71.6139 28.0756 71.5054 28.0085 71.3725 27.9458Z" fill="#D49835"/>
</g>
<mask id="mask7_335_1154" style="mask-type:luminance" maskUnits="userSpaceOnUse" x="-24" y="-26" width="175" height="124">
<path d="M150.047 -25.402H-23.4237V97.2542H150.047V-25.402Z" fill="white"/>
</mask>
<g mask="url(#mask7_335_1154)">
<path fill-rule="evenodd" clip-rule="evenodd" d="M84.6573 36.2566C84.8169 36.2566 85.0549 36.2485 85.3735 36.2295C85.6881 36.2129 86.023 36.1847 86.3773 36.1444C86.7295 36.1054 87.0647 36.0458 87.3874 35.9658C87.7078 35.8885 87.9559 35.7851 88.1224 35.6617H88.1339L88.0824 36.2705H84.6573V36.2566ZM84.6573 36.2295V36.2444C84.8169 36.2444 85.0108 36.2363 85.2393 36.219C85.4681 36.199 85.7108 36.1709 85.9613 36.1312C86.2119 36.0925 86.4596 36.0431 86.7054 35.9871C86.9535 35.9285 87.1807 35.8614 87.3874 35.7814C87.5936 35.7027 87.7702 35.6085 87.9088 35.5054C88.0512 35.3983 88.1373 35.28 88.1736 35.1461L88.2261 34.5529H88.2132C88.1339 34.8359 87.9596 35.079 87.6908 35.2854C87.4217 35.4932 87.1112 35.6675 86.759 35.8085C86.4058 35.9485 86.0403 36.0519 85.662 36.1203C85.2834 36.1844 84.9505 36.2224 84.6573 36.2295ZM84.6573 36.2027V36.2186C85.019 36.2085 85.3922 36.1556 85.7746 36.0576C86.158 35.9617 86.5173 35.822 86.8535 35.642C87.1874 35.4614 87.4807 35.2359 87.7383 34.9692C87.9949 34.7 88.1698 34.3837 88.2654 34.0237L88.3325 33.2451H88.318C88.0634 34.1519 87.6139 34.8532 86.9769 35.3515C86.34 35.8492 85.5661 36.1342 84.6573 36.2027ZM85.1885 27.9458H84.2759C84.1441 28.0153 84.0312 28.0861 83.9471 28.1566C83.8573 28.2275 83.7864 28.3227 83.7339 28.4414C83.6797 28.56 83.6424 28.7098 83.6213 28.8898C83.5983 29.0712 83.5878 29.3024 83.5878 29.5841V34.5912C83.5878 35.0424 83.5671 35.4119 83.522 35.7102C83.4776 36.0047 83.4115 36.1871 83.323 36.2563V36.2702H83.918V29.5844C83.918 29.3109 83.9376 29.0844 83.9763 28.9031C84.019 28.7237 84.0864 28.5739 84.1844 28.4542C84.2817 28.3346 84.4095 28.2407 84.5722 28.1698C84.7363 28.1 84.9397 28.0295 85.1885 27.9583V27.9458ZM83.5627 27.9458V27.958C83.5102 28.0292 83.4644 28.0997 83.4295 28.1695C83.3949 28.2403 83.3634 28.3342 83.339 28.4539C83.3108 28.5736 83.2919 28.7234 83.2844 28.9027C83.2766 29.0841 83.2708 29.3105 83.2708 29.5841V34.6058C83.2708 35.0285 83.2383 35.398 83.1702 35.7163C83.1054 36.0336 82.9834 36.2186 82.8071 36.2702H82.3078V36.2563C82.562 36.1797 82.7319 36.002 82.8152 35.7271C82.8993 35.4563 82.94 35.081 82.94 34.6058V29.5844C82.94 29.3109 82.9352 29.0844 82.9295 28.9031C82.9173 28.7237 82.9051 28.5739 82.8888 28.4542C82.8705 28.3346 82.8444 28.239 82.8152 28.1641C82.7834 28.0895 82.7508 28.0207 82.7173 27.9583V27.9458H83.5627ZM81.9352 27.9458H81.1576V27.958C81.3664 28.0115 81.5461 28.0753 81.6919 28.1505C81.838 28.2258 81.9546 28.3247 82.0407 28.4481C82.1302 28.5709 82.1946 28.7234 82.2349 28.9027C82.2742 29.0841 82.2925 29.3105 82.2925 29.5841V34.6325C82.2925 34.9054 82.2742 35.1342 82.2349 35.3173C82.1946 35.5051 82.1302 35.6566 82.0407 35.7759C81.9546 35.8932 81.838 35.9905 81.6919 36.0654C81.5461 36.1383 81.3664 36.2027 81.1576 36.2563V36.2702H81.8451C81.9735 36.2085 82.0915 36.1383 82.1881 36.0654C82.2841 35.9905 82.3654 35.8932 82.4325 35.7759C82.4969 35.6566 82.5461 35.5051 82.5769 35.3173C82.6071 35.1342 82.6224 34.9003 82.6224 34.6186V29.5844C82.6224 29.3109 82.6119 29.0824 82.5912 28.8973C82.5688 28.7119 82.5319 28.5603 82.4783 28.4417C82.4241 28.3231 82.3532 28.2261 82.2671 28.1509C82.1796 28.0756 82.0681 28.0085 81.9352 27.9458Z" fill="#D49835"/>
</g>
<mask id="mask8_335_1154" style="mask-type:luminance" maskUnits="userSpaceOnUse" x="-24" y="-26" width="175" height="124">
<path d="M150.047 -25.402H-23.4237V97.2542H150.047V-25.402Z" fill="white"/>
</mask>
<g mask="url(#mask8_335_1154)">
<path fill-rule="evenodd" clip-rule="evenodd" d="M95.6166 27.9458V27.958C95.4061 28.0203 95.2288 28.0861 95.0827 28.1563C94.9366 28.2275 94.823 28.3224 94.7329 28.4414C94.643 28.56 94.582 28.7115 94.5413 28.8963C94.5 29.0814 94.4824 29.3105 94.4824 29.5841V34.6319C94.4824 34.9129 94.5 35.1444 94.5413 35.3244C94.582 35.5051 94.643 35.6566 94.7329 35.7759C94.823 35.8932 94.9366 35.9878 95.0827 36.0576C95.2288 36.1292 95.4061 36.1942 95.6166 36.2563V36.2702H94.8383C94.7054 36.2085 94.5952 36.1383 94.5102 36.0654C94.419 35.9905 94.3485 35.8932 94.2969 35.7759C94.2444 35.6566 94.2057 35.5051 94.1854 35.3244C94.1607 35.1444 94.1508 34.9129 94.1508 34.6319V29.5844C94.1508 29.302 94.1607 29.0712 94.1854 28.8902C94.2057 28.7105 94.2444 28.5603 94.2969 28.4417C94.3485 28.3227 94.419 28.2251 94.5102 28.1505C94.5952 28.0756 94.7054 28.0081 94.8383 27.9461L95.6166 27.9458ZM94.0586 27.9458V27.958C94.0159 28.0203 93.9783 28.0895 93.9539 28.1637C93.9281 28.2386 93.903 28.3339 93.8874 28.4539C93.8681 28.5736 93.8566 28.7231 93.8468 28.9027C93.8369 29.0841 93.8339 29.3105 93.8339 29.5841V34.6319C93.8339 34.9054 93.8369 35.1315 93.8468 35.3125C93.8566 35.4929 93.8681 35.642 93.8874 35.76C93.903 35.8797 93.9281 35.9776 93.9539 36.0512C93.9783 36.1271 94.0159 36.1942 94.0586 36.2563V36.2702H93.279V36.2563C93.3149 36.1942 93.3488 36.1271 93.3786 36.0512C93.4088 35.9776 93.4336 35.8797 93.4515 35.76C93.4681 35.642 93.4803 35.4929 93.4912 35.3125C93.499 35.1315 93.5054 34.9054 93.5054 34.6319V29.5844C93.5054 29.3109 93.499 29.0844 93.4912 28.9031C93.4803 28.7234 93.4681 28.5739 93.4515 28.4542C93.4336 28.3342 93.4088 28.239 93.3786 28.1641C93.3488 28.0898 93.3149 28.0207 93.279 27.9583V27.9458H94.0586ZM92.5003 27.9458C92.6336 28.0078 92.7424 28.0753 92.8315 28.1502C92.9159 28.2247 92.9891 28.3224 93.043 28.4414C93.0935 28.56 93.1305 28.7115 93.1549 28.8963C93.1759 29.0814 93.1871 29.3105 93.1871 29.5841V34.6319C93.1871 34.9129 93.1759 35.1444 93.1549 35.3244C93.1305 35.5051 93.0935 35.6566 93.043 35.7759C92.9891 35.8932 92.9159 35.9905 92.8315 36.0654C92.7424 36.1383 92.6336 36.2085 92.5003 36.2702H91.7186V36.2563C91.9302 36.2031 92.1105 36.1383 92.2549 36.0654C92.3997 35.9905 92.5176 35.8932 92.6061 35.7759C92.6922 35.6566 92.759 35.5051 92.7973 35.3173C92.8349 35.1339 92.8563 34.9054 92.8563 34.6319V29.5844C92.8563 29.3109 92.8349 29.0817 92.7973 28.8966C92.759 28.7119 92.6922 28.5603 92.6061 28.4417C92.5176 28.3227 92.3997 28.2251 92.2549 28.1505C92.1105 28.0756 91.9302 28.0112 91.7186 27.9583V27.9458H92.5003Z" fill="#D49835"/>
</g>
<mask id="mask9_335_1154" style="mask-type:luminance" maskUnits="userSpaceOnUse" x="-24" y="-26" width="175" height="124">
<path d="M150.047 -25.402H-23.4237V97.2542H150.047V-25.402Z" fill="white"/>
</mask>
<g mask="url(#mask9_335_1154)">
<path fill-rule="evenodd" clip-rule="evenodd" d="M106.494 32.28C106.494 32.8085 106.45 33.2759 106.363 33.6803C106.275 34.0861 106.153 34.438 105.993 34.7373C105.832 35.0366 105.643 35.2895 105.425 35.4963C105.204 35.7041 104.965 35.8786 104.711 36.0186C104.501 36.1146 104.264 36.2092 104.009 36.2969V36.2834C104.264 36.1875 104.489 36.0753 104.685 35.9529C104.902 35.8125 105.105 35.6424 105.285 35.4441C105.464 35.2471 105.618 35.0014 105.743 34.7105C105.863 34.419 105.959 34.078 106.026 33.6875C106.09 33.2959 106.125 32.8346 106.125 32.3071C106.125 31.8214 106.09 31.3637 106.026 30.9312C105.959 30.5007 105.854 30.1064 105.707 29.7495C105.563 29.3922 105.38 29.0824 105.159 28.818C104.94 28.5536 104.671 28.3481 104.353 28.1973C104.229 28.1363 104.103 28.08 103.968 28.0322C103.837 27.9827 103.701 27.941 103.562 27.9068V27.8925C103.709 27.9197 103.855 27.9546 103.991 27.9986C104.128 28.0437 104.257 28.0915 104.381 28.1441C104.742 28.2851 105.057 28.4875 105.324 28.7525C105.592 29.0159 105.815 29.3285 105.986 29.6902C106.156 30.0515 106.284 30.4512 106.368 30.8925C106.451 31.3336 106.494 31.7959 106.494 32.28ZM107.221 32.2C107.221 31.7064 107.164 31.2356 107.048 30.7864C106.934 30.3369 106.762 29.9322 106.527 29.5715C106.295 29.2098 106.002 28.8966 105.656 28.6325C105.307 28.3685 104.902 28.1698 104.446 28.0383C104.305 27.9942 104.166 27.9583 104.03 27.9329C103.894 27.9068 103.738 27.8847 103.562 27.8661V27.88C103.738 27.9068 103.889 27.9373 104.018 27.9719C104.146 28.0081 104.275 28.0468 104.407 28.0915C104.82 28.2227 105.179 28.4207 105.484 28.6854C105.788 28.9498 106.04 29.2624 106.243 29.6237C106.446 29.9841 106.596 30.3875 106.693 30.8332C106.79 31.278 106.836 31.7475 106.836 32.2403C106.836 32.7688 106.786 33.2393 106.679 33.6553C106.574 34.0681 106.428 34.4288 106.243 34.7373C106.057 35.0461 105.834 35.3092 105.576 35.5237C105.317 35.741 105.03 35.918 104.725 36.0583C104.519 36.1563 104.283 36.24 104.009 36.3102V36.3214C104.133 36.2969 104.257 36.2675 104.381 36.2298C104.504 36.1942 104.627 36.1563 104.752 36.1105C105.094 35.9797 105.415 35.8047 105.715 35.5834C106.014 35.3637 106.276 35.0919 106.502 34.7695C106.725 34.4475 106.9 34.0766 107.028 33.6553C107.156 33.2305 107.221 32.7471 107.221 32.2ZM107.934 32.1342C107.934 31.6315 107.863 31.1495 107.717 30.6875C107.57 30.2254 107.352 29.8085 107.062 29.438C106.772 29.0695 106.413 28.7536 105.986 28.4946C105.558 28.2332 105.063 28.0464 104.501 27.9325C104.349 27.8973 104.197 27.8749 104.044 27.8658C103.889 27.8576 103.728 27.8488 103.562 27.84V27.8529C103.764 27.8705 103.929 27.8885 104.057 27.9064C104.185 27.9234 104.322 27.9502 104.474 27.9851C104.983 28.1078 105.434 28.3007 105.819 28.5603C106.209 28.8193 106.53 29.1353 106.786 29.5047C107.042 29.8749 107.234 30.2847 107.368 30.7339C107.499 31.1831 107.566 31.6586 107.566 32.1607C107.566 32.7061 107.491 33.1969 107.341 33.6336C107.191 34.0695 106.985 34.4529 106.725 34.7837C106.467 35.1136 106.166 35.3942 105.827 35.6227C105.489 35.8502 105.134 36.0261 104.763 36.1525C104.638 36.1939 104.514 36.2322 104.386 36.2614C104.258 36.2953 104.133 36.3166 104.009 36.3349V36.3485C104.283 36.321 104.542 36.2705 104.79 36.1912C105.212 36.0749 105.614 35.8997 105.993 35.6614C106.371 35.4254 106.705 35.1356 106.998 34.7966C107.286 34.4586 107.516 34.0664 107.683 33.6207C107.85 33.1753 107.934 32.6807 107.934 32.1342ZM100.653 31.9105C100.653 32.8875 100.795 33.739 101.075 34.4671C101.358 35.1932 101.807 35.7203 102.426 36.0461C102.681 36.1688 102.945 36.2566 103.218 36.3102V36.3214C102.919 36.2708 102.643 36.1915 102.397 36.0851C102.036 35.9275 101.723 35.7142 101.459 35.4441C101.197 35.1763 100.978 34.8617 100.804 34.5071C100.635 34.1508 100.504 33.7553 100.417 33.3227C100.326 32.8922 100.283 32.4302 100.283 31.9366C100.283 31.4078 100.325 30.9441 100.409 30.5424C100.493 30.142 100.612 29.7919 100.766 29.4922C100.92 29.1932 101.107 28.9397 101.326 28.7329C101.546 28.5251 101.8 28.3481 102.082 28.1973C102.187 28.1441 102.298 28.0953 102.412 28.0519C102.525 28.0081 102.643 27.9637 102.767 27.9197V27.9329C102.521 28.0295 102.3 28.1363 102.106 28.2502C101.87 28.399 101.66 28.5739 101.479 28.7719C101.299 28.9698 101.147 29.2153 101.025 29.5051C100.9 29.7953 100.808 30.1373 100.747 30.5292C100.686 30.9214 100.653 31.381 100.653 31.9105ZM99.9424 31.9366C99.9424 31.4078 99.9939 30.9383 100.098 30.5292C100.204 30.12 100.352 29.7614 100.543 29.4519C100.732 29.1434 100.955 28.8841 101.209 28.6725C101.466 28.4614 101.742 28.2895 102.042 28.1569C102.279 28.0519 102.521 27.9688 102.767 27.9068V27.8925C102.643 27.9197 102.521 27.9505 102.397 27.9854C102.273 28.0207 102.15 28.0603 102.028 28.1047C101.703 28.2369 101.387 28.4105 101.089 28.6258C100.789 28.8417 100.528 29.1078 100.305 29.4264C100.08 29.7427 99.8973 30.1132 99.762 30.5356C99.6258 30.9583 99.5579 31.4397 99.5579 31.9763C99.5579 32.4705 99.6118 32.9397 99.7217 33.3905C99.8322 33.839 100.004 34.2468 100.238 34.6119C100.472 34.9773 100.763 35.2936 101.117 35.5641C101.467 35.8325 101.884 36.0369 102.357 36.1797C102.491 36.222 102.624 36.2566 102.755 36.2834C102.887 36.3102 103.041 36.3322 103.218 36.3488V36.3353C103.041 36.3169 102.887 36.2919 102.762 36.2566C102.636 36.222 102.51 36.1837 102.384 36.138C101.961 35.9885 101.598 35.78 101.294 35.5105C100.99 35.2407 100.737 34.9251 100.535 34.5593C100.333 34.1939 100.183 33.7888 100.086 33.3431C99.9891 32.899 99.9424 32.4302 99.9424 31.9366ZM99.2142 32.0281C99.2142 31.4915 99.2898 31.0047 99.4454 30.5692C99.5996 30.1319 99.803 29.7492 100.06 29.418C100.316 29.0881 100.609 28.8112 100.945 28.5858C101.28 28.3617 101.633 28.1881 102.004 28.0644C102.126 28.0203 102.254 27.9824 102.384 27.9515C102.516 27.921 102.643 27.8973 102.767 27.8797V27.8658C102.506 27.8922 102.24 27.9461 101.975 28.0251C101.571 28.1393 101.178 28.3136 100.8 28.5461C100.419 28.781 100.086 29.0675 99.7952 29.4054C99.5064 29.7441 99.2729 30.1369 99.1013 30.581C98.9305 31.0271 98.843 31.5176 98.843 32.0556C98.843 32.5661 98.9156 33.0529 99.061 33.5146C99.2061 33.9776 99.4247 34.3939 99.7156 34.7634C100.007 35.1342 100.371 35.4505 100.804 35.7163C101.241 35.9793 101.749 36.1631 102.331 36.2705C102.473 36.2966 102.616 36.3166 102.762 36.3349C102.906 36.3549 103.059 36.3664 103.218 36.3759V36.3631C103.067 36.3549 102.919 36.3383 102.767 36.3159C102.619 36.2953 102.477 36.2671 102.345 36.2295C101.826 36.1142 101.371 35.9271 100.985 35.6614C100.597 35.398 100.27 35.0807 100.007 34.7102C99.7424 34.3397 99.5434 33.9271 99.4105 33.4692C99.2786 33.0108 99.2142 32.5308 99.2142 32.0281Z" fill="#D49835"/>
</g>
<mask id="mask10_335_1154" style="mask-type:luminance" maskUnits="userSpaceOnUse" x="-24" y="-26" width="175" height="124">
<path d="M150.047 -25.402H-23.4237V97.2542H150.047V-25.402Z" fill="white"/>
</mask>
<g mask="url(#mask10_335_1154)">
<path fill-rule="evenodd" clip-rule="evenodd" d="M119.957 27.9461V27.9583C119.79 28.0112 119.645 28.06 119.527 28.1048C119.41 28.1485 119.304 28.197 119.211 28.2498C119.118 28.3024 119.034 28.3617 118.958 28.4278C118.882 28.4949 118.805 28.5712 118.729 28.6597C118.658 28.7481 118.59 28.8647 118.53 29.0105C118.468 29.1546 118.415 29.3088 118.372 29.4722C118.326 29.6359 118.292 29.7949 118.264 29.9539C118.239 30.1129 118.22 30.2502 118.211 30.3637H118.198C118.198 30.2502 118.208 30.1129 118.225 29.9539C118.244 29.7949 118.263 29.6359 118.285 29.4722C118.306 29.3088 118.336 29.1546 118.372 29.0105C118.406 28.8647 118.445 28.7481 118.491 28.6597C118.588 28.4651 118.686 28.3224 118.787 28.2298C118.888 28.1383 119.029 28.0434 119.217 27.9461H119.957ZM118.596 27.9461H117.682V27.9583C117.744 28.0292 117.817 28.1173 117.901 28.2224C117.985 28.3278 118.045 28.479 118.08 28.6722C118.097 28.7607 118.112 28.8797 118.125 29.0292C118.138 29.179 118.151 29.3349 118.153 29.498C118.157 29.661 118.163 29.82 118.166 29.9739C118.171 30.1281 118.174 30.2583 118.174 30.3637H118.184C118.184 30.2583 118.19 30.1281 118.198 29.9739C118.208 29.82 118.218 29.661 118.225 29.498C118.235 29.3349 118.245 29.179 118.257 29.0292C118.273 28.8797 118.288 28.7563 118.306 28.6597C118.358 28.3329 118.455 28.0997 118.596 27.9583V27.9461ZM117.023 27.9461C117.148 28.0159 117.302 28.1061 117.485 28.2163C117.67 28.3264 117.811 28.482 117.909 28.6851C117.953 28.7729 117.991 28.8902 118.022 29.0359C118.053 29.1807 118.079 29.3332 118.101 29.4919C118.121 29.6498 118.138 29.8064 118.146 29.9607C118.154 30.1149 118.16 30.2502 118.16 30.3637H118.146C118.138 30.2502 118.121 30.1149 118.092 29.9607C118.066 29.8064 118.035 29.6498 117.994 29.4919C117.954 29.3332 117.904 29.1807 117.843 29.0359C117.781 28.8902 117.714 28.7729 117.643 28.6851C117.485 28.4919 117.276 28.3397 117.018 28.2298C116.756 28.1203 116.512 28.0292 116.284 27.9583V27.9461H117.023ZM117.05 33.1651L118.252 34.6573V34.1166L113.322 27.9461H112.703V27.9583C112.904 28.1081 113.166 28.3664 113.489 28.7325C113.81 29.0976 114.167 29.5227 114.559 30.0071C114.949 30.4919 115.36 31.0109 115.788 31.5661C116.215 32.1217 116.636 32.6553 117.05 33.1651ZM113.404 36.2705C113.279 36.1986 113.124 36.1088 112.938 35.9983C112.757 35.8895 112.615 35.7319 112.515 35.5302C112.473 35.441 112.436 35.3285 112.406 35.1848C112.375 35.0461 112.347 34.8966 112.324 34.7373C112.305 34.58 112.289 34.419 112.28 34.2614C112.271 34.1024 112.264 33.9671 112.264 33.8529H112.28C112.289 33.9671 112.306 34.1024 112.331 34.2614C112.358 34.419 112.392 34.58 112.431 34.7373C112.472 34.8966 112.52 35.0461 112.583 35.1848C112.643 35.3285 112.711 35.441 112.781 35.5302C112.938 35.7234 113.15 35.8756 113.411 35.9868C113.669 36.097 113.913 36.1875 114.142 36.2566V36.2705H113.404ZM111.83 36.2705V36.2566C111.91 36.1786 111.969 36.0848 112.014 35.98C112.058 35.8742 112.094 35.7319 112.122 35.5563C112.128 35.4681 112.142 35.3481 112.162 35.1936C112.178 35.0403 112.189 34.8807 112.2 34.7173C112.207 34.5556 112.218 34.3956 112.225 34.2424C112.236 34.0885 112.241 33.9576 112.241 33.8529H112.252C112.252 33.9576 112.254 34.0885 112.26 34.2424C112.263 34.3956 112.268 34.5556 112.273 34.7173C112.278 34.8807 112.286 35.037 112.3 35.1848C112.312 35.3373 112.328 35.457 112.346 35.5437C112.379 35.7359 112.44 35.8881 112.523 35.9922C112.606 36.099 112.68 36.1875 112.741 36.2566V36.2705H111.83ZM114.632 31.2234L118.252 35.7275V35.2003L115.848 32.1881C115.819 32.1536 115.721 32.0261 115.543 31.8109C115.368 31.5949 115.156 31.3332 114.908 31.0241C114.663 30.7166 114.394 30.3864 114.103 30.0332C113.812 29.6817 113.537 29.3525 113.279 29.0485C113.017 28.7447 112.786 28.4898 112.583 28.2831C112.379 28.0756 112.25 27.9634 112.187 27.9461H111.592V27.9583C111.715 28.0112 111.87 28.1217 112.054 28.2895C112.241 28.4566 112.437 28.6529 112.647 28.8773C112.861 29.1024 113.075 29.3417 113.296 29.5973C113.518 29.8532 113.72 30.0929 113.903 30.3176C114.089 30.5424 114.248 30.7359 114.374 30.8986C114.502 31.062 114.588 31.1695 114.632 31.2234ZM110.469 36.2705H111.207C111.393 36.1725 111.538 36.078 111.639 35.9868C111.739 35.8932 111.838 35.7515 111.937 35.5563C111.98 35.4681 112.02 35.3515 112.054 35.2054C112.09 35.0607 112.121 34.9071 112.14 34.7424C112.162 34.5814 112.182 34.419 112.2 34.2614C112.218 34.1024 112.225 33.9671 112.225 33.8529H112.214C112.206 33.9671 112.187 34.1024 112.162 34.2614C112.135 34.419 112.097 34.5814 112.054 34.7424C112.009 34.9071 111.958 35.0607 111.896 35.2054C111.834 35.3515 111.766 35.4681 111.698 35.5563C111.548 35.7407 111.386 35.8783 111.217 35.9658C111.045 36.0539 110.794 36.1525 110.469 36.2566V36.2705ZM112.82 29.9949L117.843 36.3102H118.252V36.2966L113.455 30.2583C113.366 30.1536 113.228 29.982 113.038 29.7495C112.85 29.5159 112.638 29.2763 112.406 29.0292C112.172 28.7824 111.93 28.5556 111.685 28.3495C111.439 28.1414 111.217 28.0081 111.023 27.9461H110.376V27.9583C110.613 28.0292 110.856 28.1505 111.104 28.3224C111.349 28.4949 111.581 28.6814 111.798 28.8837C112.012 29.0868 112.211 29.2888 112.392 29.4919C112.573 29.6946 112.715 29.8617 112.82 29.9949Z" fill="#D49835"/>
</g>
</g>
<defs>
<clipPath id="clip0_335_1154">
<rect width="121.695" height="20" fill="white" transform="translate(2 22)"/>
</clipPath>
</defs>
</svg>
