<svg width="125" height="64" viewBox="0 0 125 64" fill="none" xmlns="http://www.w3.org/2000/svg">
<rect width="125" height="64" rx="8" fill="white"/>
<path d="M8.04759 41.887C7.82734 41.887 7.62404 41.87 7.45461 41.8531C7.28519 41.8362 7.13271 41.7853 6.98023 41.7345C6.84469 41.6837 6.69221 41.6159 6.53973 41.5312V40.7857C6.70915 40.9213 6.9294 41.0399 7.18354 41.1246C7.43767 41.2093 7.70875 41.2601 7.99676 41.2601C8.28478 41.2601 8.48809 41.2093 8.62363 41.0907C8.75917 40.9721 8.82694 40.8196 8.82694 40.6163C8.82694 40.4638 8.77611 40.3283 8.67446 40.2266C8.5728 40.125 8.43726 40.0403 8.26784 39.9725C8.09842 39.9047 7.929 39.837 7.72569 39.7692C7.57321 39.7184 7.43767 39.6506 7.30213 39.5998C7.16659 39.532 7.03106 39.4642 6.91246 39.3626C6.79386 39.2779 6.70915 39.1423 6.64138 39.0068C6.57361 38.8713 6.53973 38.6849 6.53973 38.4646C6.53973 38.3122 6.57361 38.1597 6.62444 38.0072C6.67527 37.8547 6.77692 37.7192 6.89552 37.5836C7.01411 37.465 7.16659 37.3634 7.3699 37.2787C7.57321 37.2109 7.8104 37.1601 8.08148 37.1601C8.26784 37.1601 8.42032 37.177 8.55586 37.194C8.6914 37.2109 8.80999 37.2448 8.94553 37.2956C9.06413 37.3465 9.19967 37.3973 9.3352 37.465V38.1936C9.21661 38.1258 9.11495 38.058 8.99636 37.9903C8.87776 37.9225 8.75917 37.8717 8.62363 37.8378C8.48809 37.8039 8.33561 37.77 8.16619 37.77C7.97982 37.77 7.82734 37.787 7.6918 37.8378C7.57321 37.8886 7.47155 37.9564 7.42073 38.0411C7.35296 38.1258 7.31907 38.2444 7.31907 38.346C7.31907 38.4985 7.35296 38.6341 7.43767 38.7188C7.52238 38.8035 7.62404 38.8882 7.77652 38.956C7.929 39.0237 8.08148 39.0746 8.28478 39.1423C8.45421 39.1932 8.62363 39.2609 8.77611 39.3287C8.92859 39.3965 9.08107 39.4812 9.19967 39.5828C9.31826 39.6845 9.41991 39.8031 9.48768 39.9556C9.55545 40.108 9.60628 40.2775 9.60628 40.4977C9.60628 40.7349 9.55545 40.9552 9.4538 41.1585C9.35215 41.3618 9.18272 41.5312 8.94553 41.6667C8.70834 41.8192 8.40338 41.887 8.04759 41.887Z" fill="#0047BA"/>
<path d="M10.4534 37.8378V37.194H11.2158V37.8378H10.4534ZM10.4873 41.8023V38.3969H11.1989V41.8023H10.4873Z" fill="#0047BA"/>
<path d="M13.5877 41.9039C13.2489 41.9039 12.9778 41.8362 12.7406 41.7006C12.5034 41.5651 12.334 41.3787 12.2154 41.1246C12.0968 40.8704 12.046 40.5655 12.046 40.1928C12.046 39.8031 12.0968 39.4981 12.1984 39.244C12.3001 39.0068 12.4356 38.8035 12.6051 38.668C12.7745 38.5324 12.9608 38.4308 13.1811 38.3799C13.4013 38.3291 13.6216 38.2952 13.8588 38.2952C14.096 38.2952 14.3332 38.3291 14.5195 38.3969C14.7228 38.4646 14.8753 38.5494 15.0109 38.6849C15.1295 38.8204 15.1972 38.9729 15.1972 39.1932V41.9039C15.1972 42.0903 15.1633 42.2597 15.1125 42.4122C15.0617 42.5647 14.96 42.7002 14.8414 42.8357C14.7228 42.9543 14.5534 43.056 14.3501 43.1238C14.1468 43.1915 13.8927 43.2254 13.6047 43.2254C13.3675 43.2254 13.1642 43.2085 12.9778 43.1746C12.7914 43.1407 12.6389 43.0899 12.5204 43.056V42.3952C12.5881 42.4291 12.6898 42.4461 12.7914 42.48C12.8931 42.5138 13.0286 42.5477 13.1472 42.5647C13.2828 42.5816 13.4183 42.5986 13.5538 42.5986C13.8249 42.5986 14.0282 42.5647 14.1637 42.4969C14.2993 42.4291 14.384 42.3444 14.4348 42.2428C14.4857 42.1411 14.5026 42.0225 14.5026 41.9039V41.3787L14.689 41.5312C14.6042 41.599 14.5026 41.6667 14.384 41.7176C14.2654 41.7684 14.1299 41.8192 13.9943 41.8531C13.8418 41.887 13.7233 41.9039 13.5877 41.9039ZM13.7063 41.3279C13.8418 41.3279 13.9774 41.3109 14.1129 41.2771C14.2485 41.2432 14.3671 41.1923 14.4857 41.1246V39.3287C14.4857 39.2101 14.4518 39.1254 14.4009 39.0746C14.3332 39.0237 14.2485 38.9729 14.1468 38.956C14.0452 38.939 13.9266 38.9221 13.808 38.9221C13.5369 38.9221 13.3166 38.9729 13.1642 39.0915C13.0117 39.2101 12.91 39.3456 12.8592 39.5489C12.8084 39.7353 12.7745 39.9556 12.7745 40.1758C12.7745 40.5147 12.8423 40.8027 12.9947 41.006C13.1642 41.2262 13.3844 41.3279 13.7063 41.3279Z" fill="#0047BA"/>
<path d="M17.6369 41.9039C17.0778 41.9039 16.6712 41.7514 16.4001 41.4295C16.1291 41.1246 15.9935 40.6671 15.9935 40.0911C15.9935 39.4812 16.1291 39.0237 16.4171 38.7357C16.6881 38.4477 17.0948 38.2952 17.62 38.2952C17.9927 38.2952 18.3146 38.363 18.5518 38.4985C18.789 38.6341 18.9754 38.8374 19.0939 39.1084C19.2125 39.3795 19.2634 39.7014 19.2634 40.0742C19.2634 40.6502 19.1278 41.0907 18.8398 41.4126C18.5687 41.7514 18.1621 41.9039 17.6369 41.9039ZM17.6369 41.294C17.8741 41.294 18.0605 41.2432 18.196 41.1415C18.3315 41.0399 18.4332 40.9043 18.484 40.718C18.5518 40.5316 18.5687 40.3283 18.5687 40.0911C18.5687 39.82 18.5349 39.5998 18.4671 39.4304C18.3993 39.2609 18.2977 39.1254 18.1621 39.0237C18.0266 38.9221 17.8402 38.8882 17.62 38.8882C17.3997 38.8882 17.2134 38.939 17.0778 39.0237C16.9423 39.1084 16.8406 39.2609 16.7898 39.4304C16.739 39.5998 16.7051 39.82 16.7051 40.0742C16.7051 40.4469 16.7729 40.7518 16.9084 40.9552C17.0609 41.1923 17.2981 41.294 17.6369 41.294Z" fill="#0047BA"/>
<path d="M20.1105 41.8023V38.7018C20.1613 38.668 20.2799 38.6171 20.4324 38.5494C20.5849 38.4816 20.7712 38.4308 20.9915 38.3799C21.2117 38.3291 21.432 38.3122 21.6522 38.3122C21.7708 38.3122 21.8555 38.3291 21.9233 38.3461C21.9911 38.363 22.0588 38.3799 22.1097 38.4138V38.9899C22.008 38.9729 21.8894 38.9729 21.7878 38.956C21.6692 38.956 21.5675 38.956 21.4489 38.956C21.3303 38.956 21.2287 38.9729 21.1101 38.9899C20.9915 39.0068 20.9068 39.0237 20.8051 39.0237V41.8192H20.1105V41.8023Z" fill="#0047BA"/>
<path d="M24.0411 41.887C23.7361 41.887 23.482 41.8023 23.3126 41.6498C23.1262 41.4804 23.0415 41.2432 23.0415 40.9213V38.9729H22.4824V38.3799H23.0415V37.4312H23.77V38.3799H24.6002V38.9729H23.77V40.7857C23.77 40.9382 23.8039 41.0568 23.8547 41.1415C23.9055 41.2262 24.0241 41.2601 24.1766 41.2601C24.2613 41.2601 24.3291 41.2432 24.4138 41.2262C24.4985 41.2093 24.5494 41.1754 24.6171 41.1415V41.7684C24.5324 41.8023 24.4477 41.8362 24.346 41.8531C24.2275 41.887 24.1427 41.887 24.0411 41.887Z" fill="#0047BA"/>
<path d="M26.6841 41.9039C26.5147 41.9039 26.3452 41.887 26.1758 41.8531C26.0064 41.8192 25.8709 41.7684 25.7353 41.6837C25.5998 41.599 25.4981 41.4973 25.4134 41.3448C25.3287 41.2093 25.2948 41.0229 25.2948 40.8027C25.2948 40.5485 25.3456 40.3452 25.4473 40.1758C25.5489 40.0064 25.6845 39.8878 25.8709 39.8031C26.0572 39.7184 26.2775 39.6845 26.5316 39.6845C26.701 39.6845 26.8535 39.7014 27.006 39.7184C27.1415 39.7523 27.2771 39.7861 27.3787 39.837C27.4973 39.8878 27.582 39.9386 27.6667 39.9894L27.7345 40.4638C27.6328 40.3961 27.4973 40.3452 27.3279 40.2944C27.1585 40.2436 26.9721 40.2266 26.7857 40.2266C26.5316 40.2266 26.3283 40.2775 26.1928 40.3622C26.0572 40.4469 25.9894 40.5824 25.9894 40.7688C25.9894 40.9043 26.0233 41.0229 26.108 41.0907C26.1928 41.1754 26.2775 41.2432 26.3961 41.2771C26.5147 41.3109 26.6333 41.3279 26.7518 41.3279C27.0229 41.3279 27.2093 41.3109 27.3448 41.2771C27.4634 41.2432 27.5312 41.1585 27.5312 41.0229V39.5998C27.5312 39.3626 27.4634 39.1762 27.3109 39.0746C27.1585 38.956 26.9552 38.9051 26.6841 38.9051C26.4977 38.9051 26.2944 38.939 26.0911 38.9899C25.8878 39.0576 25.7184 39.1423 25.5828 39.244V38.5832C25.7184 38.4985 25.8878 38.4308 26.1419 38.3799C26.3791 38.3291 26.6333 38.2952 26.8874 38.2952C27.0229 38.2952 27.1415 38.3122 27.2771 38.3291C27.4126 38.346 27.5312 38.3969 27.6498 38.4477C27.7684 38.4985 27.87 38.5663 27.9547 38.651C28.0395 38.7357 28.1072 38.8543 28.1581 38.9729C28.2089 39.1084 28.2258 39.244 28.2258 39.4304V41.0568C28.2258 41.2771 28.1581 41.4465 28.0225 41.5651C27.887 41.6837 27.7006 41.7684 27.4634 41.8023C27.2432 41.887 26.9721 41.9039 26.6841 41.9039Z" fill="#0047BA"/>
<path d="M32.3428 41.8023L30.9027 38.3799H31.6651L32.8341 41.2262L32.6647 41.2432L33.749 38.3799H34.4945L33.0544 41.8023H32.3428Z" fill="#0047BA"/>
<path d="M36.4428 41.9039C36.104 41.9039 35.816 41.8362 35.5618 41.7006C35.3077 41.5651 35.1213 41.3618 34.9858 41.0907C34.8503 40.8196 34.7825 40.4977 34.7825 40.108C34.7825 39.5151 34.918 39.0576 35.206 38.7527C35.4771 38.4477 35.8668 38.2952 36.3751 38.2952C36.7478 38.2952 37.0358 38.3799 37.273 38.5324C37.4932 38.7018 37.6627 38.9221 37.7643 39.2101C37.866 39.4981 37.9168 39.837 37.9168 40.2266H35.223L35.206 39.7014H37.3747L37.2052 39.8709C37.1883 39.5151 37.1205 39.2609 36.985 39.1084C36.8494 38.939 36.6461 38.8713 36.3581 38.8713C36.1718 38.8713 36.0193 38.9051 35.9007 38.9899C35.7651 39.0576 35.6804 39.1932 35.6127 39.3795C35.5449 39.5659 35.511 39.8031 35.511 40.125C35.511 40.5147 35.5957 40.8027 35.7821 40.989C35.9515 41.1923 36.2226 41.2771 36.5614 41.2771C36.7139 41.2771 36.8664 41.2601 37.0019 41.2432C37.1375 41.2093 37.2561 41.1754 37.3747 41.1415C37.4932 41.0907 37.578 41.0568 37.6627 41.0229V41.6837C37.5102 41.7514 37.3238 41.8023 37.1205 41.8531C36.9172 41.887 36.697 41.9039 36.4428 41.9039Z" fill="#0047BA"/>
<path d="M40.7123 41.8023V37.2617H42.7284C43.2028 37.2617 43.5586 37.3803 43.8127 37.6006C44.0668 37.8378 44.1854 38.1766 44.1854 38.6171C44.1854 38.8543 44.1346 39.0746 44.0499 39.2779C43.9482 39.4812 43.8127 39.6337 43.6263 39.7692C43.44 39.9047 43.2367 39.9725 42.9825 39.9895L43.0672 39.7523L44.4226 41.8023H43.4908L42.2371 39.7692L42.5759 40.0911H41.4577V41.8023H40.7123ZM41.4577 39.4812H42.5082C42.8131 39.4812 43.0334 39.4134 43.1858 39.2779C43.3383 39.1423 43.4061 38.939 43.4061 38.6849C43.4061 38.4308 43.3553 38.2444 43.2367 38.1089C43.1181 37.9733 42.9148 37.9056 42.6437 37.9056H41.4577V39.4812Z" fill="#0047BA"/>
<path d="M46.6759 41.9039C46.3371 41.9039 46.0491 41.8362 45.7949 41.7006C45.5408 41.5651 45.3545 41.3618 45.2189 41.0907C45.0834 40.8196 45.0156 40.4977 45.0156 40.108C45.0156 39.5151 45.1511 39.0576 45.4392 38.7527C45.7102 38.4477 46.0999 38.2952 46.6082 38.2952C46.9809 38.2952 47.2689 38.3799 47.5061 38.5324C47.7264 38.7018 47.8958 38.9221 47.9974 39.2101C48.0991 39.4981 48.1499 39.837 48.1499 40.2266H45.4561L45.4392 39.7014H47.6078L47.4384 39.8709C47.4214 39.5151 47.3536 39.2609 47.2181 39.1084C47.0826 38.939 46.8793 38.8713 46.5912 38.8713C46.4049 38.8713 46.2524 38.9051 46.1338 38.9899C45.9983 39.0576 45.9135 39.1932 45.8458 39.3795C45.778 39.5659 45.7441 39.8031 45.7441 40.125C45.7441 40.5147 45.8288 40.8027 46.0152 40.989C46.1846 41.1923 46.4557 41.2771 46.7945 41.2771C46.947 41.2771 47.0995 41.2601 47.235 41.2432C47.3706 41.2093 47.4892 41.1754 47.6078 41.1415C47.7264 41.0907 47.8111 41.0568 47.8958 41.0229V41.6837C47.7433 41.7514 47.5569 41.8023 47.3536 41.8531C47.1503 41.887 46.9131 41.9039 46.6759 41.9039Z" fill="#0047BA"/>
<path d="M50.1999 41.9039C50.0305 41.9039 49.8611 41.887 49.6917 41.8531C49.5222 41.8192 49.3867 41.7684 49.2512 41.6837C49.1156 41.599 49.014 41.4973 48.9293 41.3448C48.8446 41.2093 48.8107 41.0229 48.8107 40.8027C48.8107 40.5485 48.8615 40.3452 48.9632 40.1758C49.0648 40.0064 49.2003 39.8878 49.3867 39.8031C49.5731 39.7184 49.7933 39.6845 50.0475 39.6845C50.2169 39.6845 50.3694 39.7014 50.5218 39.7184C50.6574 39.7523 50.7929 39.7861 50.8946 39.837C51.0132 39.8878 51.0979 39.9386 51.1826 39.9894L51.2504 40.4638C51.1487 40.3961 51.0132 40.3452 50.8437 40.2944C50.6743 40.2436 50.488 40.2266 50.3016 40.2266C50.0475 40.2266 49.8442 40.2775 49.7086 40.3622C49.5731 40.4469 49.5053 40.5824 49.5053 40.7688C49.5053 40.9043 49.5392 41.0229 49.6239 41.0907C49.7086 41.1754 49.7933 41.2432 49.9119 41.2771C50.0305 41.3109 50.1491 41.3279 50.2677 41.3279C50.5388 41.3279 50.7252 41.3109 50.8607 41.2771C50.9793 41.2432 51.0471 41.1585 51.0471 41.0229V39.5998C51.0471 39.3626 50.9793 39.1762 50.8268 39.0746C50.6743 38.956 50.471 38.9051 50.1999 38.9051C50.0136 38.9051 49.8103 38.939 49.607 38.9899C49.4037 39.0576 49.2342 39.1423 49.0987 39.244V38.5832C49.2342 38.4985 49.4037 38.4308 49.6578 38.3799C49.895 38.3291 50.1491 38.2952 50.4032 38.2952C50.5388 38.2952 50.6574 38.3122 50.7929 38.3291C50.9285 38.346 51.0471 38.3969 51.1656 38.4477C51.2842 38.4985 51.3859 38.5663 51.4706 38.651C51.5553 38.7357 51.6231 38.8543 51.6739 38.9729C51.7247 39.1084 51.7417 39.244 51.7417 39.4304V41.0568C51.7417 41.2771 51.6739 41.4465 51.5384 41.5651C51.4028 41.6837 51.2165 41.7684 50.9793 41.8023C50.776 41.887 50.5049 41.9039 50.1999 41.9039Z" fill="#0047BA"/>
<path d="M53.7748 41.9039C53.5376 41.9039 53.3173 41.87 53.1479 41.8192C52.9785 41.7684 52.809 41.7006 52.6396 41.6329V40.9552C52.7582 41.0229 52.8768 41.0907 52.9785 41.1415C53.0971 41.1924 53.2157 41.2432 53.3343 41.2771C53.4528 41.3109 53.6053 41.3279 53.7578 41.3279C53.9611 41.3279 54.1136 41.294 54.2153 41.2093C54.3338 41.1246 54.3847 41.0229 54.3847 40.9043C54.3847 40.8027 54.3508 40.718 54.283 40.6671C54.2153 40.6163 54.1305 40.5655 54.0119 40.5147C53.9103 40.4808 53.7917 40.4299 53.6731 40.3961C53.5545 40.3622 53.4359 40.3283 53.3004 40.2775C53.1818 40.2266 53.0632 40.1758 52.9615 40.108C52.8599 40.0403 52.7752 39.9386 52.7243 39.82C52.6566 39.7014 52.6396 39.549 52.6396 39.3795C52.6396 39.1932 52.6735 39.0237 52.7582 38.8882C52.8429 38.7527 52.9446 38.651 53.0632 38.5663C53.1818 38.4816 53.3343 38.4138 53.4867 38.3799C53.6392 38.346 53.7917 38.3291 53.9272 38.3291C54.1644 38.3291 54.3677 38.363 54.5202 38.4138C54.6727 38.4646 54.8252 38.5324 54.9607 38.6171V39.227C54.7913 39.1423 54.6388 39.0576 54.5033 39.0068C54.3508 38.939 54.1983 38.9051 53.995 38.9051C53.8256 38.9051 53.6731 38.939 53.5545 39.0068C53.4359 39.0746 53.3851 39.1762 53.3851 39.2948C53.3851 39.3965 53.419 39.4981 53.4867 39.549C53.5545 39.6167 53.6392 39.6675 53.7409 39.7014C53.8425 39.7353 53.9611 39.7692 54.0797 39.8031C54.1983 39.837 54.3169 39.8709 54.4355 39.9217C54.5541 39.9556 54.6727 40.0233 54.7743 40.0911C54.876 40.1589 54.9607 40.2605 55.0285 40.3791C55.0962 40.4977 55.1301 40.6502 55.1301 40.8366C55.1301 41.0907 55.0624 41.294 54.9268 41.4634C54.7913 41.6159 54.6219 41.7345 54.4186 41.8023C54.2153 41.87 53.995 41.9039 53.7748 41.9039Z" fill="#0047BA"/>
<path d="M57.4682 41.9039C57.1632 41.9039 56.8921 41.8531 56.6549 41.7514C56.4347 41.6498 56.2483 41.4973 56.1297 41.294C56.0111 41.0907 55.9434 40.8366 55.9434 40.5316V38.3799H56.6549V40.4299C56.6549 40.718 56.7227 40.9382 56.8413 41.0738C56.9768 41.2093 57.1632 41.2771 57.4512 41.2771C57.7223 41.2771 57.9256 41.2093 58.0611 41.0738C58.1967 40.9382 58.2475 40.718 58.2475 40.4299V38.3799H58.9421V40.5316C58.9421 40.989 58.8066 41.3279 58.5525 41.5651C58.3153 41.7853 57.9426 41.9039 57.4682 41.9039ZM56.6041 37.9394V37.3465H57.2987V37.9394H56.6041ZM57.7223 37.9394V37.3465H58.4V37.9394H57.7223Z" fill="#0047BA"/>
<path d="M59.9756 41.8023V38.7018C60.0265 38.668 60.145 38.6171 60.2975 38.5494C60.45 38.4816 60.6364 38.4308 60.8566 38.3799C61.0769 38.3291 61.2971 38.3122 61.5174 38.3122C61.636 38.3122 61.7207 38.3291 61.7884 38.3461C61.8562 38.363 61.924 38.3799 61.9748 38.4138V38.9899C61.8732 38.9729 61.7546 38.9729 61.6529 38.956C61.5343 38.956 61.4327 38.956 61.3141 38.956C61.1955 38.956 61.0938 38.9729 60.9752 38.9899C60.8566 39.0068 60.7719 39.0237 60.6703 39.0237V41.8192H59.9756V41.8023Z" fill="#0047BA"/>
<path d="M63.9232 41.9039C63.7537 41.9039 63.5843 41.887 63.4149 41.8531C63.2455 41.8192 63.1099 41.7684 62.9744 41.6837C62.8389 41.599 62.7372 41.4973 62.6525 41.3448C62.5678 41.2093 62.5339 41.0229 62.5339 40.8027C62.5339 40.5485 62.5847 40.3452 62.6864 40.1758C62.788 40.0064 62.9236 39.8878 63.1099 39.8031C63.2963 39.7184 63.5166 39.6845 63.7707 39.6845C63.9401 39.6845 64.0926 39.7014 64.2451 39.7184C64.3806 39.7523 64.5161 39.7861 64.6178 39.837C64.7195 39.8878 64.8211 39.9386 64.9058 39.9894L64.9736 40.4638C64.8719 40.3961 64.7364 40.3452 64.567 40.2944C64.3976 40.2436 64.2112 40.2266 64.0248 40.2266C63.7707 40.2266 63.5674 40.2775 63.4318 40.3622C63.2963 40.4469 63.2285 40.5824 63.2285 40.7688C63.2285 40.9043 63.2624 41.0229 63.3471 41.0907C63.4318 41.1754 63.5166 41.2432 63.6352 41.2771C63.7537 41.3109 63.8723 41.3279 64.0079 41.3279C64.279 41.3279 64.4653 41.3109 64.6009 41.2771C64.7364 41.2432 64.7872 41.1585 64.7872 41.0229V39.5998C64.7872 39.3626 64.7195 39.1762 64.567 39.0746C64.4145 38.956 64.2112 38.9051 63.9401 38.9051C63.7537 38.9051 63.5504 38.939 63.3471 38.9899C63.1438 39.0576 62.9744 39.1423 62.8389 39.244V38.5832C62.9744 38.4985 63.1438 38.4308 63.398 38.3799C63.6352 38.3291 63.8893 38.2952 64.1434 38.2952C64.262 38.2952 64.3976 38.3122 64.5331 38.3291C64.6686 38.346 64.7872 38.3969 64.8889 38.4477C65.0075 38.4985 65.1091 38.5663 65.1938 38.651C65.2785 38.7357 65.3463 38.8543 65.3971 38.9729C65.448 39.1084 65.4649 39.244 65.4649 39.4304V41.0568C65.4649 41.2771 65.3971 41.4465 65.2616 41.5651C65.1261 41.6837 64.9397 41.7684 64.7025 41.8023C64.4823 41.887 64.2281 41.9039 63.9232 41.9039Z" fill="#0047BA"/>
<path d="M66.4984 38.668C66.6 38.6171 66.7186 38.5663 66.8372 38.5324C66.9558 38.4816 67.0914 38.4477 67.2439 38.4138C67.3794 38.3799 67.5319 38.363 67.6674 38.3461C67.8199 38.3291 67.9554 38.3122 68.091 38.3122C68.4129 38.3122 68.6839 38.363 68.8873 38.4477C69.0906 38.5324 69.243 38.668 69.3447 38.8543C69.4463 39.0407 69.4972 39.2609 69.4972 39.549V41.8023H68.7856V39.6337C68.7856 39.549 68.7687 39.4642 68.7517 39.3795C68.7348 39.2948 68.7009 39.2101 68.6331 39.1423C68.5823 39.0746 68.4976 39.0237 68.3959 38.9729C68.2943 38.939 68.1418 38.9052 67.9724 38.9052C67.8538 38.9052 67.7182 38.9221 67.5996 38.939C67.481 38.956 67.3455 38.9899 67.2269 39.0407V41.7853H66.5153V38.668H66.4984Z" fill="#0047BA"/>
<path d="M71.4794 41.9039C71.2422 41.9039 71.022 41.87 70.8526 41.8192C70.6831 41.7684 70.5137 41.7006 70.3443 41.6329V40.9552C70.4629 41.0229 70.5815 41.0907 70.6831 41.1415C70.7848 41.1924 70.9203 41.2432 71.0389 41.2771C71.1575 41.3109 71.31 41.3279 71.4625 41.3279C71.6658 41.3279 71.8183 41.294 71.9199 41.2093C72.0385 41.1246 72.0893 41.0229 72.0893 40.9043C72.0893 40.8027 72.0555 40.718 71.9877 40.6671C71.9199 40.6163 71.8352 40.5655 71.7166 40.5147C71.615 40.4808 71.4964 40.4299 71.3778 40.3961C71.2592 40.3622 71.1406 40.3283 71.005 40.2775C70.8864 40.2266 70.7678 40.1758 70.6662 40.108C70.5645 40.0403 70.4798 39.9386 70.429 39.82C70.3612 39.7014 70.3443 39.549 70.3443 39.3795C70.3443 39.1932 70.3782 39.0237 70.4629 38.8882C70.5476 38.7527 70.6492 38.651 70.7678 38.5663C70.8864 38.4816 71.0389 38.4138 71.1914 38.3799C71.3439 38.346 71.4964 38.3291 71.6319 38.3291C71.8691 38.3291 72.0724 38.363 72.2249 38.4138C72.3774 38.4646 72.5298 38.5324 72.6654 38.6171V39.227C72.496 39.1423 72.3435 39.0576 72.2079 39.0068C72.0724 38.956 71.903 38.9051 71.6997 38.9051C71.5302 38.9051 71.3778 38.939 71.2592 39.0068C71.1406 39.0746 71.0897 39.1762 71.0897 39.2948C71.0897 39.3965 71.1236 39.4981 71.1914 39.549C71.2592 39.6167 71.3439 39.6675 71.4455 39.7014C71.5472 39.7353 71.6658 39.7692 71.7844 39.8031C71.903 39.837 72.0216 39.8709 72.1402 39.9217C72.2588 39.9556 72.3774 40.0233 72.479 40.0911C72.5807 40.1589 72.6654 40.2605 72.7331 40.3791C72.8009 40.4977 72.8348 40.6502 72.8348 40.8366C72.8348 41.0907 72.767 41.294 72.6315 41.4634C72.496 41.6159 72.3265 41.7345 72.1232 41.8023C71.9199 41.87 71.6997 41.9039 71.4794 41.9039Z" fill="#0047BA"/>
<path d="M75.6472 41.8023V37.2617H77.3245C77.6972 37.2617 77.9853 37.3126 78.2224 37.4142C78.4596 37.5159 78.6291 37.6514 78.7307 37.8378C78.8324 38.0242 78.9001 38.2444 78.9001 38.4985C78.9001 38.7018 78.8663 38.8543 78.7815 38.9729C78.6968 39.0915 78.6121 39.1932 78.5105 39.2609C78.4088 39.3287 78.3072 39.3965 78.2055 39.4642L78.1208 39.3118C78.2902 39.3456 78.4596 39.4134 78.6121 39.4981C78.7646 39.5828 78.9001 39.7184 79.0018 39.8709C79.1034 40.0403 79.1543 40.2266 79.1543 40.4808C79.1543 40.7857 79.0865 41.0399 78.951 41.2432C78.8154 41.4465 78.6121 41.582 78.358 41.6667C78.1038 41.7514 77.8158 41.8023 77.4939 41.8023H75.6472ZM76.3927 39.1593H77.4092C77.5278 39.1593 77.6464 39.1423 77.7481 39.1085C77.8497 39.0746 77.9514 39.0237 78.0191 38.939C78.0869 38.8543 78.1208 38.7188 78.1208 38.5663C78.1208 38.3122 78.053 38.1427 77.9005 38.0411C77.765 37.9564 77.5617 37.9056 77.3245 37.9056H76.3588V39.1593H76.3927ZM76.3927 41.1754H77.46C77.6125 41.1754 77.765 41.1585 77.9005 41.1246C78.0361 41.0907 78.1547 41.006 78.2394 40.9043C78.3241 40.8027 78.358 40.6502 78.358 40.4469C78.358 40.2944 78.3241 40.1758 78.2733 40.0911C78.2224 40.0064 78.1547 39.9386 78.053 39.8878C77.9514 39.837 77.8667 39.8031 77.7481 39.7861C77.6295 39.7692 77.5278 39.7692 77.4262 39.7692H76.3757V41.1754H76.3927Z" fill="#0047BA"/>
<path d="M80.0014 41.8023V38.7018C80.0522 38.668 80.1708 38.6171 80.3233 38.5494C80.4758 38.4816 80.6621 38.4308 80.8824 38.3799C81.1026 38.3291 81.3229 38.3122 81.5431 38.3122C81.6617 38.3122 81.7464 38.3291 81.8142 38.3461C81.882 38.363 81.9497 38.3799 82.0006 38.4138V38.9899C81.8989 38.9729 81.7803 38.9729 81.6787 38.956C81.577 38.939 81.4584 38.956 81.3398 38.956C81.2212 38.956 81.1196 38.9729 81.001 38.9899C80.8993 39.0068 80.7977 39.0237 80.696 39.0237V41.8192H80.0014V41.8023Z" fill="#0047BA"/>
<path d="M83.9997 41.9039C83.4407 41.9039 83.034 41.7514 82.763 41.4295C82.4919 41.1246 82.3563 40.6671 82.3563 40.0911C82.3563 39.4812 82.4919 39.0237 82.7799 38.7357C83.051 38.4477 83.4576 38.2952 83.9828 38.2952C84.3555 38.2952 84.6774 38.363 84.9146 38.4985C85.1518 38.6341 85.3382 38.8374 85.4568 39.1084C85.5754 39.3795 85.6262 39.7014 85.6262 40.0742C85.6262 40.6502 85.4907 41.0907 85.2026 41.4126C84.9316 41.7514 84.525 41.9039 83.9997 41.9039ZM83.9828 41.294C84.22 41.294 84.4064 41.2432 84.5419 41.1415C84.6774 41.0399 84.7791 40.9043 84.8299 40.718C84.8977 40.5316 84.9146 40.3283 84.9146 40.0911C84.9146 39.82 84.8807 39.5998 84.813 39.4304C84.7452 39.2609 84.6436 39.1254 84.508 39.0237C84.3725 38.9221 84.1861 38.8882 83.9659 38.8882C83.7456 38.8882 83.5592 38.939 83.4237 39.0237C83.2882 39.1084 83.1865 39.2609 83.1357 39.4304C83.0849 39.5998 83.051 39.82 83.051 40.0742C83.051 40.4469 83.1187 40.7518 83.2543 40.9552C83.4068 41.1923 83.644 41.294 83.9828 41.294Z" fill="#0047BA"/>
<path d="M87.1679 41.8023H86.4564V37.0923H87.1679V41.8023ZM87.4899 39.5998L89.4721 41.8192H88.5572L86.9985 40.0911L87.4899 39.5998ZM87.0324 39.82L88.4217 38.3799H89.3027L87.3374 40.2605L87.0324 39.82Z" fill="#0047BA"/>
<path d="M91.3357 41.9039C90.9969 41.9039 90.7089 41.8362 90.4548 41.7006C90.2006 41.5651 90.0143 41.3618 89.8787 41.0907C89.7432 40.8196 89.6754 40.4977 89.6754 40.108C89.6754 39.5151 89.8109 39.0576 90.099 38.7527C90.37 38.4477 90.7597 38.2952 91.268 38.2952C91.6407 38.2952 91.9287 38.3799 92.1659 38.5324C92.3862 38.7018 92.5556 38.9221 92.6572 39.2101C92.7589 39.4981 92.8097 39.837 92.8097 40.2266H90.1159L90.099 39.7014H92.2676L92.0981 39.8709C92.0812 39.5151 92.0134 39.2609 91.8779 39.1084C91.7424 38.939 91.5391 38.8713 91.251 38.8713C91.0647 38.8713 90.9122 38.9051 90.7936 38.9899C90.6581 39.0576 90.5733 39.1932 90.5056 39.3795C90.4378 39.5659 90.4039 39.8031 90.4039 40.125C90.4039 40.5147 90.4886 40.8027 90.675 40.989C90.8444 41.1923 91.1155 41.2771 91.4543 41.2771C91.6068 41.2771 91.7593 41.2601 91.8948 41.2432C92.0304 41.2093 92.149 41.1754 92.2676 41.1415C92.3862 41.1076 92.4709 41.0568 92.5556 41.0229V41.6837C92.4031 41.7514 92.2167 41.8023 92.0134 41.8531C91.8101 41.887 91.5729 41.9039 91.3357 41.9039Z" fill="#0047BA"/>
<path d="M93.623 41.8023V38.7018C93.6738 38.668 93.7924 38.6171 93.9449 38.5494C94.0973 38.4816 94.2837 38.4308 94.504 38.3799C94.7242 38.3291 94.9445 38.3122 95.1647 38.3122C95.2833 38.3122 95.368 38.3291 95.4358 38.3461C95.5035 38.363 95.5713 38.3799 95.6221 38.4138V38.9899C95.5205 38.9729 95.4019 38.9729 95.3002 38.956C95.1986 38.939 95.08 38.956 94.9614 38.956C94.8428 38.956 94.7411 38.9729 94.6225 38.9899C94.5209 39.0068 94.4192 39.0237 94.3176 39.0237V41.8192H93.623V41.8023Z" fill="#0047BA"/>
<path d="M97.0453 41.8023H96.3337V37.0923H97.0453V41.8023Z" fill="#0047BA"/>
<path d="M98.0618 37.8378V37.194H98.8242V37.8378H98.0618ZM98.0788 41.8023V38.3969H98.7903V41.8023H98.0788Z" fill="#0047BA"/>
<path d="M101.179 41.9039C100.84 41.9039 100.569 41.8362 100.332 41.7006C100.095 41.5651 99.9255 41.3787 99.8069 41.1246C99.6883 40.8704 99.6375 40.5655 99.6375 40.1928C99.6375 39.8031 99.6883 39.4981 99.7899 39.244C99.8916 39.0068 100.027 38.8035 100.197 38.668C100.366 38.5324 100.552 38.4308 100.773 38.3799C100.993 38.3291 101.213 38.2952 101.45 38.2952C101.687 38.2952 101.925 38.3291 102.111 38.3969C102.314 38.4646 102.467 38.5494 102.602 38.6849C102.721 38.8204 102.789 38.9729 102.789 39.1932V41.9039C102.789 42.0903 102.755 42.2597 102.704 42.4122C102.653 42.5647 102.552 42.7002 102.433 42.8357C102.314 42.9713 102.145 43.056 101.942 43.1238C101.738 43.1915 101.484 43.2254 101.196 43.2254C100.959 43.2254 100.756 43.2085 100.569 43.1746C100.383 43.1407 100.23 43.0899 100.112 43.056V42.3952C100.18 42.4291 100.281 42.4461 100.383 42.48C100.485 42.5138 100.62 42.5477 100.756 42.5647C100.891 42.5816 101.027 42.5986 101.162 42.5986C101.433 42.5986 101.637 42.5647 101.772 42.4969C101.908 42.4291 101.992 42.3444 102.043 42.2428C102.094 42.1411 102.111 42.0225 102.111 41.9039V41.3787L102.297 41.5312C102.213 41.599 102.111 41.6667 101.992 41.7176C101.874 41.7684 101.738 41.8192 101.603 41.8531C101.45 41.887 101.315 41.9039 101.179 41.9039ZM101.298 41.3279C101.433 41.3279 101.569 41.3109 101.704 41.2771C101.84 41.2432 101.959 41.1923 102.077 41.1246V39.3287C102.077 39.2101 102.043 39.1254 101.992 39.0746C101.925 39.0237 101.84 38.9729 101.738 38.956C101.637 38.939 101.518 38.9221 101.399 38.9221C101.128 38.9221 100.908 38.9729 100.756 39.0915C100.603 39.2101 100.502 39.3456 100.451 39.5489C100.4 39.7353 100.366 39.9556 100.366 40.1758C100.366 40.5147 100.434 40.8027 100.586 41.006C100.756 41.2262 100.976 41.3279 101.298 41.3279ZM101.484 38.058C101.315 38.058 101.162 38.0241 101.027 37.9564C100.891 37.8886 100.79 37.787 100.705 37.6684C100.62 37.5498 100.552 37.3973 100.518 37.2279H100.959C100.993 37.3465 101.061 37.4481 101.145 37.5159C101.23 37.6006 101.349 37.6345 101.467 37.6345C101.603 37.6345 101.721 37.6006 101.789 37.5159C101.874 37.4312 101.942 37.3465 101.975 37.2279H102.416C102.399 37.3973 102.331 37.5498 102.247 37.6684C102.162 37.787 102.043 37.8886 101.925 37.9564C101.823 38.0241 101.654 38.058 101.484 38.058Z" fill="#0047BA"/>
<path d="M103.771 37.8378V37.194H104.534V37.8378H103.771ZM103.788 41.8023V38.3969H104.5V41.8023H103.788Z" fill="#0047BA"/>
<path d="M107.092 41.8023L108.854 37.2617H109.65L111.378 41.8023H110.582L109.057 37.6345L109.345 37.6006L107.821 41.8023H107.092ZM107.956 40.5655L108.176 39.9556H110.328L110.396 40.5655H107.956Z" fill="#0047BA"/>
<path d="M111.971 41.8023V41.006H112.785V41.8023H111.971Z" fill="#0047BA"/>
<path d="M115.19 41.887C114.97 41.887 114.767 41.87 114.597 41.8531C114.428 41.8362 114.276 41.7853 114.123 41.7345C113.971 41.6837 113.835 41.6159 113.683 41.5312V40.7857C113.852 40.9213 114.072 41.0399 114.326 41.1246C114.581 41.2093 114.852 41.2601 115.14 41.2601C115.428 41.2601 115.631 41.2093 115.766 41.0907C115.902 40.9721 115.97 40.8196 115.97 40.6163C115.97 40.4638 115.919 40.3283 115.817 40.2266C115.716 40.125 115.58 40.0403 115.411 39.9725C115.241 39.9047 115.072 39.837 114.869 39.7692C114.716 39.7184 114.581 39.6506 114.445 39.5998C114.309 39.532 114.174 39.4642 114.055 39.3626C113.937 39.2779 113.852 39.1423 113.784 39.0068C113.716 38.8543 113.683 38.6849 113.683 38.4646C113.683 38.3122 113.716 38.1597 113.767 38.0072C113.818 37.8547 113.92 37.7192 114.038 37.5836C114.157 37.465 114.309 37.3634 114.513 37.2787C114.716 37.2109 114.953 37.1601 115.224 37.1601C115.411 37.1601 115.563 37.177 115.699 37.194C115.834 37.2109 115.953 37.2448 116.071 37.2956C116.19 37.3465 116.326 37.3973 116.461 37.465V38.1936C116.343 38.1258 116.241 38.058 116.122 37.9903C116.004 37.9225 115.885 37.8717 115.75 37.8378C115.614 37.8039 115.462 37.77 115.292 37.77C115.106 37.77 114.953 37.787 114.818 37.8378C114.699 37.8886 114.597 37.9564 114.547 38.0411C114.496 38.1258 114.445 38.2444 114.445 38.346C114.445 38.4985 114.479 38.6341 114.564 38.7188C114.648 38.8035 114.75 38.8882 114.902 38.956C115.055 39.0237 115.207 39.0746 115.411 39.1423C115.58 39.1932 115.75 39.2609 115.902 39.3287C116.055 39.3965 116.207 39.4812 116.326 39.5828C116.444 39.6845 116.546 39.8031 116.614 39.9556C116.681 40.108 116.732 40.2775 116.732 40.4977C116.732 40.7349 116.681 40.9552 116.58 41.1585C116.478 41.3618 116.309 41.5312 116.071 41.6667C115.851 41.8192 115.563 41.887 115.19 41.887ZM114.496 42.5816L115.072 41.7514H115.58L115.19 42.5816H114.496Z" fill="#0047BA"/>
<path d="M117.596 41.8023V41.006H118.409V41.8023H117.596Z" fill="#0047BA"/>
<path d="M52.233 24.2162L46.2524 30.6373H51.1826C51.7925 30.6373 52.3008 31.1286 52.3008 31.7555H45.8458C45.202 31.7555 44.6768 31.2303 44.6768 30.5865L50.5557 24.3179H44.7106C44.7106 23.7079 45.202 23.1997 45.8288 23.1997H51.2165C51.7756 23.1997 52.233 23.6571 52.233 24.2162Z" fill="#0047BA"/>
<path d="M60.9074 24.2331H56.062C55.3165 24.2331 54.9607 24.572 54.9607 25.2497V25.9274C54.9607 26.5542 55.2826 26.8592 55.9772 26.8592H59.4165C60.6703 26.8592 61.2802 27.4522 61.2802 28.6212V29.8749C61.2802 31.1286 60.6025 31.7724 59.264 31.7724H54.9099C54.3338 31.7724 53.8764 31.315 53.8764 30.739H58.9591C59.7384 30.739 60.1281 30.4171 60.1281 29.7224V28.7567C60.1281 28.1299 59.8062 27.8249 59.1285 27.8249H55.6892C54.4355 27.8249 53.8086 27.2319 53.8086 26.0629V25.0972C53.8086 23.8435 54.4694 23.2166 55.7739 23.2166H59.8909C60.45 23.1997 60.9074 23.6571 60.9074 24.2331Z" fill="#0047BA"/>
<path d="M68.5315 23.1997C70.0563 23.1997 70.8187 23.9621 70.8187 25.4699V26.1646C70.8187 27.4183 70.0901 28.0451 68.6501 28.0451H64.2281C63.686 28.0451 63.2624 27.6046 63.2624 27.0794H68.3281C69.2091 27.0794 69.6496 26.7067 69.6496 25.9443V25.5546C69.6496 24.6906 69.2091 24.2501 68.3112 24.2501H65.719C64.5839 24.2501 64.0248 24.8431 64.0248 25.9951V28.9261C64.0248 30.0613 64.567 30.6204 65.6682 30.6204H70.5306V31.7894H65.5157C63.7368 31.7894 62.8389 30.8745 62.8389 29.0447V25.9612C62.8389 24.1484 63.7199 23.2166 65.5157 23.2335L68.5315 23.1997Z" fill="#0047BA"/>
<path d="M77.6803 23.2166C77.6803 23.8604 77.1551 24.4026 76.4943 24.4026H75.5794C74.4613 24.4026 73.8852 24.9955 73.8852 26.1476V31.7555H72.6823V25.9612C72.6823 24.1484 73.5633 23.2166 75.3592 23.2166H77.6803Z" fill="#0047BA"/>
<path d="M87.1679 19.8959C89.6415 19.8959 90.8614 21.1666 90.8614 23.691V31.7555C89.9465 31.7555 89.201 31.01 89.201 30.0952V23.9621C89.201 22.3525 88.4047 21.5563 86.846 21.5563H81.2212V31.7555C80.3063 31.7555 79.5609 31.01 79.5609 30.0952V19.8959H87.1679Z" fill="#0047BA"/>
<path d="M101.332 19.8959C103.449 19.8959 104.517 20.9463 104.517 23.0302V23.979C104.517 25.7241 103.517 26.5881 101.518 26.5881H96.0287C96.0287 25.8427 96.6217 25.2497 97.3672 25.2497H101.061C102.28 25.2497 102.907 24.7245 102.907 23.691V23.1488C102.907 21.9459 102.297 21.336 101.044 21.336H97.4519C95.8932 21.336 95.1139 22.1492 95.1139 23.7418V27.808C95.1139 29.3666 95.8593 30.146 97.3841 30.146H102.518C103.416 30.146 104.127 30.8745 104.127 31.7555H97.1808C94.7072 31.7555 93.4874 30.4848 93.4874 27.9604V23.691C93.4874 21.1666 94.7073 19.8959 97.1978 19.8959H101.332Z" fill="#0047BA"/>
<path d="M114.665 19.8959C117.122 19.8959 118.359 21.1666 118.359 23.691V27.9604C118.359 30.4848 117.105 31.7555 114.648 31.7555H110.633C108.159 31.7555 106.94 30.4848 106.94 27.9604V23.691C106.94 21.1666 108.159 19.8959 110.65 19.8959H114.665ZM108.6 27.6894C108.6 29.2989 109.396 30.1121 110.955 30.1121H114.343C115.902 30.1121 116.698 29.2989 116.698 27.6894V23.9621C116.698 22.3525 115.902 21.5563 114.343 21.5563H110.955C109.396 21.5563 108.6 22.3525 108.6 23.9621V27.6894Z" fill="#0047BA"/>
<path d="M35.1721 18.5914C35.1721 18.8794 35.3077 19.0149 35.5788 19.0149H36.1717C36.4428 19.0149 36.5784 18.8794 36.5784 18.5914V17.9476C36.5784 17.6595 36.4428 17.524 36.1717 17.524H35.5788C35.3077 17.524 35.1721 17.6595 35.1721 17.9476V18.5914Z" fill="#0047BA"/>
<path d="M38.3065 18.5914C38.3065 18.8794 38.442 19.0149 38.7131 19.0149H39.3061C39.5771 19.0149 39.7127 18.8794 39.7127 18.5914V17.9476C39.7127 17.6596 39.5771 17.524 39.3061 17.524H38.7131C38.442 17.524 38.3065 17.6596 38.3065 17.9476V18.5914Z" fill="#0047BA"/>
<path d="M39.4585 19.8959H35.4432C32.9697 19.8959 31.7329 21.1666 31.7329 23.691V27.9604C31.7329 30.4848 32.9527 31.7555 35.4263 31.7555H39.4416C41.8982 31.7555 43.135 30.4848 43.152 27.9604V23.691C43.1689 21.1666 41.9152 19.8959 39.4585 19.8959ZM42.0338 27.6894C42.0338 29.5869 41.0003 30.6373 39.1536 30.6373H35.7651C33.9015 30.6373 32.8849 29.5869 32.8849 27.6894V23.9621C32.8849 22.0645 33.9184 21.0311 35.7651 21.0311H39.1536C41.0172 21.0311 42.0338 22.0645 42.0338 23.9621V27.6894Z" fill="#0047BA"/>
<path d="M11.3852 26.3679C11.3852 26.8422 11.6224 27.0964 12.0798 27.0964H13.0794C13.5538 27.0964 13.791 26.8592 13.791 26.3679V25.2666C13.791 24.7922 13.5538 24.555 13.0964 24.555H12.0968C11.6224 24.555 11.3852 24.7922 11.3852 25.2666V26.3679Z" fill="#E1251B"/>
<path d="M15.1294 26.3678C15.1294 26.8422 15.3666 27.0964 15.8241 27.0964H16.8237C17.2981 27.0964 17.5352 26.8592 17.5352 26.3678V25.2666C17.5352 24.7922 17.2981 24.555 16.8406 24.555H15.841C15.3666 24.555 15.1294 24.7922 15.1294 25.2666V26.3678Z" fill="#FFA400"/>
<path d="M18.8737 26.3678C18.8737 26.8422 19.1109 27.0964 19.5683 27.0964H20.5679C21.0423 27.0964 21.2795 26.8592 21.2795 26.3678V25.2666C21.2795 24.7922 21.0423 24.555 20.5849 24.555H19.5853C19.1109 24.555 18.8737 24.7922 18.8737 25.2666V26.3678Z" fill="#00A0DF"/>
<path d="M26.0742 34.2799C25.1593 34.2799 24.4138 33.5175 24.4138 32.6026V24.5212C24.4138 22.8778 23.0923 21.5563 21.4489 21.5563H11.1988C9.55545 21.5563 8.23395 22.8778 8.23395 24.5212V27.1303C8.23395 27.9266 8.53891 28.672 9.09801 29.2311C9.6571 29.7902 10.4195 30.0952 11.2158 30.0952H20.3138C20.7543 30.0952 21.1778 30.2646 21.4997 30.5865C21.8047 30.8914 21.9911 31.315 21.9911 31.7555H11.2158C9.979 31.7555 8.82693 31.2811 7.94593 30.4001C7.06494 29.5191 6.59055 28.367 6.59055 27.1303V19.8959H21.4489C22.6857 19.8959 23.8378 20.3703 24.7188 21.2513C25.5998 22.1323 26.0742 23.2844 26.0742 24.5212V34.2799Z" fill="#0047BA"/>
</svg>
