<svg width="125" height="64" viewBox="0 0 125 64" fill="none" xmlns="http://www.w3.org/2000/svg">
<rect width="125" height="64" rx="8" fill="white"/>
<path d="M74.4808 47.8887V50.2913H66.837V49.6239C66.837 48.5839 67.0028 47.8887 68.2305 47.8887H74.4808ZM67.7597 46.4058C65.7484 46.4058 64.8267 47.4755 64.8267 49.1829V54H66.8379V51.7831H74.4818V54H76.4931V46.4058H67.7607H67.7597ZM78.9553 46.4058V47.8887H83.6742V54H85.6855V47.8887H90.4142V46.4058H78.9544H78.9553ZM51.9435 51.075C51.9435 52.1357 52.159 52.5181 53.337 52.5181H61.7169V54H52.8652C50.8559 54 49.9213 53.0962 49.9213 51.3898V46.4058H61.7169V47.8887H51.9445V49.3795H61.3245V50.8316H51.9445V51.076L51.9435 51.075ZM37.5804 49.0448C36.9616 48.9961 36.8534 48.7806 36.8534 48.4071C36.8534 48.0635 37.0401 47.8668 37.5109 47.8668H46.7638V46.4058H37.2765C35.9217 46.4058 35 46.9262 35 48.4369C35 49.9476 35.6962 50.4681 37.2367 50.5952L44.7426 51.223C45.3216 51.2726 45.4786 51.4683 45.4786 51.8795C45.4786 52.2907 45.3018 52.5171 44.7912 52.5171H35.3734V53.999H44.9591C46.6079 53.999 47.3329 53.3405 47.3329 51.7821C47.3329 50.3598 46.6744 49.8006 45.0674 49.6626L37.5814 49.0438L37.5804 49.0448Z" fill="#ED1C24"/>
<path d="M78.8689 26.6624L46.5612 20.9205C46.5612 20.9205 46.6516 17.3002 46.7171 15.3882C46.7827 13.4733 47.1849 12.3072 47.9755 11.606C49.0661 10.6386 50.3384 10.4072 53.3747 10.2413C60.4118 9.85892 67.5749 9.91156 76.5517 10.5393C77.4854 10.6048 77.839 10.7806 78.0227 10.9068C78.42 11.1789 78.4707 11.4838 78.5759 13.077C78.6614 14.3622 78.868 18.6699 78.868 18.6699C78.868 18.6699 68.2712 18.2825 63.0557 18.2825C61.5907 18.2825 60.4088 18.2914 59.4424 18.3103C58.7978 18.3222 58.4968 18.3828 58.2485 18.501L78.868 22.0121V26.6624H78.8689Z" fill="white"/>
<path d="M46.5423 22.1501L78.8491 27.892C78.8491 27.892 78.7587 31.5113 78.6941 33.4243C78.6296 35.3392 78.2263 36.5043 77.4357 37.2065C76.3451 38.1739 75.0728 38.4053 72.0365 38.5702C64.9995 38.9526 57.8363 38.8999 48.8595 38.2712C47.9249 38.2057 47.5723 38.0299 47.3875 37.9047C46.9902 37.6326 46.9406 37.3267 46.8343 35.7345C46.7489 34.4493 46.5423 30.1416 46.5423 30.1416C46.5423 30.1416 57.1391 30.529 62.3535 30.529C63.8185 30.529 65.0015 30.5201 65.9669 30.5012C66.6115 30.4893 66.9134 30.4287 67.1607 30.3095L46.5423 26.7984V22.1481V22.1501Z" fill="white"/>
<path d="M78.8689 26.6624L46.5612 20.9205C46.5612 20.9205 46.6516 17.3002 46.7171 15.3882C46.7827 13.4733 47.1849 12.3072 47.9755 11.606C49.0661 10.6386 50.3384 10.4072 53.3747 10.2413C60.4117 9.85892 67.5749 9.91156 76.5517 10.5393C77.4854 10.6048 77.8389 10.7806 78.0227 10.9068C78.42 11.1789 78.4706 11.4838 78.5759 13.077C78.6613 14.3622 78.8679 18.6699 78.8679 18.6699C78.8679 18.6699 68.2712 18.2825 63.0557 18.2825C61.5907 18.2825 60.4088 18.2914 59.4424 18.3103C58.7978 18.3222 58.4968 18.3828 58.2485 18.501L78.8679 22.0121V26.6624H78.8689ZM46.5423 22.1501L78.8491 27.892C78.8491 27.892 78.7587 31.5113 78.6941 33.4243C78.6296 35.3392 78.2263 36.5043 77.4357 37.2065C76.3451 38.1739 75.0728 38.4053 72.0365 38.5702C64.9995 38.9526 57.8363 38.8999 48.8595 38.2712C47.9249 38.2057 47.5723 38.0299 47.3875 37.9047C46.9902 37.6326 46.9406 37.3267 46.8343 35.7345C46.7489 34.4493 46.5423 30.1416 46.5423 30.1416C46.5423 30.1416 57.1391 30.529 62.3535 30.529C63.8185 30.529 65.0015 30.5201 65.9669 30.5012C66.6115 30.4893 66.9134 30.4287 67.1607 30.3095L46.5423 26.7984V22.1481V22.1501ZM46.882 22.5564V26.5134L67.8918 30.091C67.8918 30.091 67.5997 30.4793 67.3067 30.6184C67.0137 30.7565 66.6284 30.83 65.9728 30.8429C65.0044 30.8607 63.8195 30.8697 62.3525 30.8697C57.741 30.8697 48.8208 30.5638 46.8989 30.4952C46.9505 31.5669 47.1025 34.6658 47.172 35.7117C47.2773 37.2969 47.3299 37.4538 47.5782 37.6246C47.6656 37.6842 47.9308 37.867 48.8804 37.9335C54.063 38.297 58.7322 38.4729 63.1531 38.4729C66.1347 38.4729 69.035 38.3944 72.0156 38.2325C74.9655 38.0726 76.1932 37.8551 77.2082 36.9532C77.9283 36.3136 78.2919 35.1902 78.3524 33.4143C78.4061 31.8411 78.4776 29.0769 78.5004 28.177L46.882 22.5564ZM78.5282 26.2571V22.3001L57.5175 18.7225C57.5175 18.7225 57.8095 18.3341 58.1025 18.1961C58.3955 18.058 58.7799 17.9845 59.4364 17.9716C60.4038 17.9527 61.5887 17.9438 63.0557 17.9438C67.6683 17.9438 76.5875 18.2497 78.5094 18.3182C78.4567 17.2466 78.3048 14.1477 78.2352 13.1008C78.13 11.5156 78.0773 11.3587 77.829 11.1889C77.7426 11.1283 77.4764 10.9465 76.5269 10.88C71.3442 10.5164 66.676 10.3406 62.2552 10.3406C59.2715 10.3406 56.3723 10.4201 53.3926 10.582C50.4437 10.7429 49.2151 10.9594 48.2 11.8613C47.4789 12.5009 47.1164 13.6252 47.0558 15.4011C47.0022 16.9744 46.9316 19.7386 46.9088 20.6384L78.5282 26.2581V26.2571Z" fill="#231F20"/>
<path d="M63.5514 32.2274C63.3656 32.2274 62.423 32.2255 62.2194 32.2255C57.9317 32.2255 53.334 32.1957 47.7163 31.8858L46.8999 30.4962L47.1154 30.5042L48.0471 31.5799C52.898 31.847 57.3467 31.9096 62.2204 31.9096C62.424 31.9096 63.3438 31.9116 63.5523 31.9116C64.2426 31.9116 65.0442 31.9086 65.7573 31.8858C68.2175 31.8053 68.9635 31.5501 70.652 29.8427L71.2618 29.7881L71.0105 30.0473C69.1929 31.9215 68.446 32.1162 65.7672 32.2036C65.0501 32.2274 64.2446 32.2304 63.5523 32.2304L63.5514 32.2274Z" fill="white"/>
<path d="M78.5015 28.1761L46.882 22.5564V22.758L47.4332 23.0391L47.4392 25.6384L46.882 26.2542V26.5134L47.7421 25.8032V22.91L78.0436 28.2952L78.5015 28.1761Z" fill="white"/>
<path d="M77.7148 28.2356C77.6949 28.7601 77.6721 29.4285 77.6512 30.0334C77.6344 30.5499 77.6195 30.9958 77.6016 31.412C77.5777 31.9732 77.5529 32.5423 77.5221 33.312C77.4427 35.2796 76.9947 35.9044 76.1415 36.4238C75.3281 36.9194 74.3736 36.988 71.4753 37.132C68.5354 37.277 65.3938 37.3624 62.137 37.3843C61.8887 37.3863 61.6394 37.3863 61.396 37.3863C57.5781 37.3863 54.0978 37.1747 49.7196 36.833C48.9757 36.7754 48.5019 36.7138 48.2884 36.5728C48.058 36.4208 47.9964 36.3801 47.9358 35.4435C47.9269 35.3025 47.9179 35.1733 47.91 35.0502C47.8861 34.6916 47.8564 34.3748 47.8395 33.899C47.8216 33.4114 47.7868 32.9366 47.7163 31.8848L47.4283 31.3931C47.4898 32.5125 47.5296 33.471 47.5465 33.9676C47.5614 34.4185 47.5713 34.7155 47.5941 35.07L47.5981 35.1138C47.6051 35.224 47.612 35.3392 47.62 35.4644C47.6805 36.404 47.7501 36.5966 48.1146 36.837C48.3867 37.0168 48.8804 37.0863 49.6958 37.1499C54.0819 37.4915 57.5691 37.7041 61.396 37.7041C61.6404 37.7041 61.8897 37.7041 62.139 37.7021C65.3998 37.6793 68.5463 37.5938 71.4902 37.4478C74.4491 37.3018 75.4264 37.2293 76.3054 36.694C77.2549 36.1159 77.7525 35.4366 77.838 33.3249C77.8678 32.5701 77.8926 32.0079 77.9154 31.4577L77.9174 31.4259C77.9542 30.5399 77.9929 29.5944 78.0426 28.2942L77.7138 28.2356H77.7148Z" fill="url(#paint0_radial_335_678)"/>
<path d="M77.7287 17.3697L77.7337 17.3767L77.6006 17.3697C72.987 17.1432 68.2722 17.173 62.9624 17.173C62.6297 17.173 62.2065 17.176 61.7477 17.181C60.3472 17.1959 59.2606 17.2048 58.621 17.32C57.2215 17.5723 57.293 18.2964 57.8185 18.3957C57.9059 18.3172 58.0042 18.2418 58.1025 18.1961C58.3955 18.058 58.7799 17.9845 59.4364 17.9716C60.4038 17.9527 61.5887 17.9438 63.0557 17.9438C67.5511 17.9438 76.1376 18.2348 78.3505 18.3123C78.1826 18.058 77.8042 17.4859 77.7287 17.3697Z" fill="url(#paint1_linear_335_678)"/>
<path d="M77.101 12.6082L77.2798 12.347L77.2301 12.3132C76.9997 12.1543 76.515 12.0549 75.7065 11.9983C71.5767 11.7093 66.9949 11.5295 63.751 11.5295C63.5285 11.5295 63.311 11.5295 63.1004 11.5315C62.4191 11.5355 61.7715 11.5395 61.1537 11.5434C58.037 11.5623 55.5936 11.5951 53.7979 11.6924C53.6449 11.7004 53.4959 11.7083 53.3509 11.7163C50.7894 11.8533 49.5041 11.9219 48.498 12.8138C47.8186 13.4167 47.5425 14.2351 47.4779 15.8322L47.4471 16.598C47.3985 17.8057 47.3746 18.5675 47.323 20.1845C47.2356 20.2252 46.9952 20.3385 46.9148 20.3762L46.9078 20.6374L47.6388 20.3365L47.6488 19.97C47.6925 18.5606 47.7193 17.7094 47.765 16.6099L47.7958 15.8441C47.8564 14.3453 48.1047 13.5885 48.7095 13.0512C49.6332 12.2317 50.8817 12.1642 53.3688 12.0321C53.5138 12.0242 53.6618 12.0162 53.8147 12.0083C55.6055 11.9109 58.0439 11.8781 61.1557 11.8593C61.7725 11.8563 62.4211 11.8523 63.1024 11.8474C63.313 11.8464 63.5295 11.8454 63.751 11.8454C66.9879 11.8454 71.5598 12.0251 75.6836 12.3132C76.4127 12.3638 76.8735 12.4512 77.0503 12.5734L77.1 12.6072L77.101 12.6082Z" fill="white"/>
<path d="M47.4481 16.598L47.4789 15.8322C47.5435 14.2351 47.8206 13.4167 48.499 12.8138C48.648 12.6827 48.8029 12.5684 48.9668 12.4701C48.8198 12.1741 48.7731 11.894 48.8804 11.6815C48.9668 11.5107 49.3224 11.2157 50.0921 10.9386C49.2797 11.1253 48.7125 11.4054 48.201 11.8603C47.4799 12.4999 47.1174 13.6242 47.0568 15.4001C47.0081 16.8423 46.9436 19.2847 46.9158 20.3752C46.9754 20.3484 47.2207 20.2332 47.324 20.1845C47.3756 18.5675 47.3995 17.8057 47.4481 16.598Z" fill="url(#paint2_linear_335_678)"/>
<path d="M77.4238 12.4751C77.6274 12.1592 77.9383 12.1493 78.2203 12.8595C78.126 11.4987 78.0664 11.3488 77.83 11.1879C77.7436 11.1273 77.4774 10.9455 76.5279 10.879C71.3452 10.5154 66.677 10.3396 62.2562 10.3396C59.2725 10.3396 56.3733 10.4191 53.3936 10.581C51.9306 10.6605 50.8916 10.7538 50.0921 10.9386C49.3223 11.2157 48.9668 11.5107 48.8804 11.6815C48.7741 11.894 48.8198 12.1741 48.9668 12.4701C49.9133 11.901 51.1688 11.8335 53.3519 11.7163C53.4969 11.7083 53.6459 11.7004 53.7988 11.6924C55.5946 11.5951 58.0379 11.5623 61.1547 11.5434C61.7725 11.5395 62.4201 11.5355 63.1014 11.5315C63.312 11.5295 63.5295 11.5295 63.752 11.5295C66.9959 11.5295 71.5776 11.7093 75.7075 11.9983C76.516 12.055 76.9997 12.1553 77.2311 12.3132C77.2311 12.3132 77.2817 12.348 77.2807 12.347C77.3374 12.3887 77.384 12.4304 77.4248 12.4751H77.4238Z" fill="url(#paint3_linear_335_678)"/>
<path d="M78.5004 18.1136L77.8777 17.0598C77.8658 16.2037 77.7933 14.4327 77.7237 13.6997C77.6572 12.9965 77.6274 12.7005 77.4238 12.4751C77.3831 12.4304 77.3354 12.3877 77.2798 12.347L77.101 12.6082C77.3006 12.7572 77.3294 12.8893 77.4099 13.7295C77.4814 14.4943 77.5966 16.4212 77.6055 17.182L78.3515 18.3123L78.5114 18.3182L78.5014 18.1146L78.5004 18.1136Z" fill="url(#paint4_linear_335_678)"/>
<path d="M78.2204 12.8605C77.9383 12.1503 77.6284 12.1602 77.4238 12.4761C77.6274 12.7015 77.6572 12.9975 77.7237 13.7007C77.7933 14.4337 77.8658 16.2047 77.8777 17.0608L78.5004 18.1146C78.4408 16.8989 78.3028 14.0871 78.2362 13.1008" fill="#231F20"/>
<path style="mix-blend-mode:multiply" d="M77.6046 17.182C73.2959 16.9734 68.6456 16.8562 62.9624 16.8562C61.8251 16.8562 59.6142 16.893 58.6051 16.9118C56.8888 16.9446 56.5908 18.0123 56.5799 18.4076L77.7674 23.3271V25.9522L78.5273 26.2571L46.9088 20.6374L47.6398 20.3365L47.6498 19.97C47.6498 19.97 47.7203 17.7094 47.766 16.6099L47.7968 15.8441C47.8573 14.3453 48.1057 13.5885 48.7105 13.0512C49.6342 12.2317 50.8827 12.1642 53.3698 12.0321C53.5148 12.0242 53.6628 12.0162 53.8157 12.0083C55.6065 11.9109 58.0449 11.8782 61.1567 11.8593C61.7735 11.8563 62.4221 11.8523 63.1034 11.8474C63.314 11.8464 63.5305 11.8454 63.752 11.8454C66.9889 11.8454 71.5608 12.0252 75.6846 12.3132C76.4137 12.3638 76.8745 12.4513 77.0513 12.5734L77.101 12.6072C77.101 12.6072 77.105 12.6102 77.1069 12.6112C77.1109 12.6141 77.1149 12.6181 77.1189 12.6211C77.1199 12.6211 77.1209 12.6211 77.1218 12.6231C77.1268 12.6271 77.1318 12.631 77.1367 12.635C77.1367 12.635 77.1377 12.635 77.1377 12.637C77.1427 12.641 77.1477 12.6449 77.1526 12.6499C77.1526 12.6499 77.153 12.6502 77.1536 12.6509C77.1586 12.6549 77.1626 12.6598 77.1675 12.6638H77.1685C77.1725 12.6688 77.1775 12.6727 77.1824 12.6777C77.3016 12.8038 77.3364 12.9896 77.394 13.5806C77.398 13.6272 77.4029 13.6759 77.4079 13.7285C77.4794 14.4933 77.5946 16.4202 77.6036 17.181" fill="url(#paint5_radial_335_678)"/>
<path style="mix-blend-mode:multiply" d="M77.6046 17.182C73.2959 16.9734 68.6456 16.8562 62.9624 16.8562C61.8251 16.8562 59.6142 16.893 58.6051 16.9118C56.8888 16.9446 56.5908 18.0123 56.5799 18.4076L77.7674 23.3271V25.9522L78.5273 26.2571L46.9088 20.6374L47.6398 20.3365L47.6498 19.97C47.6498 19.97 47.7203 17.7094 47.766 16.6099L47.7968 15.8441C47.8573 14.3453 48.1057 13.5885 48.7105 13.0512C49.6342 12.2317 50.8827 12.1642 53.3698 12.0321C53.5148 12.0242 53.6628 12.0162 53.8157 12.0083C55.6065 11.9109 58.0449 11.8782 61.1567 11.8593C61.7735 11.8563 62.4221 11.8523 63.1034 11.8474C63.314 11.8464 63.5305 11.8454 63.752 11.8454C66.9889 11.8454 71.5608 12.0252 75.6846 12.3132C76.4137 12.3638 76.8745 12.4513 77.0513 12.5734L77.101 12.6072C77.101 12.6072 77.105 12.6102 77.1069 12.6112C77.1109 12.6141 77.1149 12.6181 77.1189 12.6211C77.1199 12.6211 77.1209 12.6211 77.1218 12.6231C77.1268 12.6271 77.1318 12.631 77.1367 12.635C77.1367 12.635 77.1377 12.635 77.1377 12.637C77.1427 12.641 77.1477 12.6449 77.1526 12.6499C77.1526 12.6499 77.153 12.6502 77.1536 12.6509C77.1586 12.6549 77.1626 12.6598 77.1675 12.6638H77.1685C77.1725 12.6688 77.1775 12.6727 77.1824 12.6777C77.3016 12.8038 77.3364 12.9896 77.394 13.5806C77.398 13.6272 77.4029 13.6759 77.4079 13.7285C77.4794 14.4933 77.5946 16.4202 77.6036 17.181" fill="url(#paint6_radial_335_678)"/>
<path d="M46.882 22.758L47.4332 23.0391L47.4392 25.6383L46.882 26.2541V22.758Z" fill="#A7A9AC"/>
<path d="M75.3102 37.8769C75.5347 37.7309 75.6499 37.5879 75.6906 37.5054C75.771 37.3445 75.6985 37.1966 75.5664 37.0277C74.7848 37.272 73.6803 37.3406 71.4902 37.4478C68.5463 37.5938 65.3997 37.6793 62.139 37.7021C61.8897 37.7041 61.6394 37.7041 61.396 37.7041C57.5691 37.7041 54.0819 37.4915 49.6958 37.1499C48.8804 37.0863 48.3867 37.0168 48.1146 36.837C48.0252 36.7784 47.9537 36.7218 47.8951 36.6562C47.8653 36.687 47.8256 36.7238 47.7759 36.7695C47.4948 37.0217 47.3448 36.9721 47.2405 36.5778C47.313 37.3684 47.3875 37.4925 47.5812 37.6246C47.6686 37.6842 47.9338 37.867 48.8833 37.9335C54.066 38.2971 58.7352 38.4729 63.156 38.4729C66.1377 38.4729 69.0379 38.3944 72.0186 38.2325C73.4767 38.153 74.5136 38.0597 75.3122 37.8769H75.3102Z" fill="url(#paint7_linear_335_678)"/>
<path d="M47.5971 35.1138L47.5931 35.0701C47.5703 34.7155 47.5604 34.4185 47.5455 33.9676C47.5286 33.4719 47.4889 32.5125 47.4273 31.3931L46.8989 30.4942C46.9505 31.5659 47.1025 34.6648 47.172 35.7107L47.2376 36.5768C47.3429 36.9711 47.4918 37.0208 47.7729 36.7685C47.8236 36.7228 47.8623 36.686 47.8921 36.6552C47.7133 36.4556 47.6627 36.1715 47.617 35.4624C47.609 35.3372 47.6021 35.222 47.5951 35.1118L47.5971 35.1138Z" fill="#939598"/>
<path d="M78.0436 28.2942C77.9939 29.5944 77.9552 30.5399 77.9184 31.4259L77.9164 31.4577C77.8936 32.0089 77.8688 32.5701 77.839 33.3249C77.7525 35.4356 77.2559 36.1159 76.3064 36.694C76.078 36.833 75.8426 36.9413 75.5674 37.0267C75.7005 37.1956 75.772 37.3435 75.6916 37.5045C75.6509 37.5869 75.5357 37.7309 75.3112 37.8759C76.1286 37.6892 76.6967 37.4081 77.2102 36.9512C77.9303 36.3116 78.2939 35.1882 78.3544 33.4123C78.4081 31.8391 78.4796 29.0749 78.5024 28.175L78.0446 28.2932L78.0436 28.2942Z" fill="url(#paint8_linear_335_678)"/>
<path d="M77.6006 31.412C77.5767 31.9732 77.5519 32.5423 77.5211 33.312C77.4417 35.2796 76.9937 35.9044 76.1405 36.4238C75.3271 36.9194 74.3726 36.988 71.4743 37.132C68.5344 37.277 65.3928 37.3624 62.136 37.3843C61.8877 37.3863 61.6384 37.3863 61.3951 37.3863C57.5771 37.3863 54.0968 37.1747 49.7187 36.833C48.9747 36.7754 48.501 36.7138 48.2874 36.5728C48.057 36.4208 47.9954 36.3801 47.9348 35.4435C47.9259 35.3025 47.9169 35.1733 47.909 35.0502C47.8852 34.6916 47.8554 34.3748 47.8385 33.899C47.8206 33.4114 47.7858 32.9366 47.7153 31.8848C53.334 32.1946 57.9307 32.2244 62.2184 32.2244C62.4221 32.2244 63.3636 32.2264 63.5504 32.2264C64.2436 32.2264 65.0491 32.2235 65.7653 32.1996C68.444 32.1122 69.1899 31.9175 71.0085 30.0433L71.2598 29.7841L47.7411 25.8022V22.908L77.7148 28.2337H77.7138C77.6939 28.7581 77.6711 29.4265 77.6502 30.0314C77.6334 30.5479 77.6185 30.9938 77.6006 31.41V31.412Z" fill="url(#paint9_radial_335_678)"/>
<path d="M67.8808 31.404C67.8719 31.5143 67.7229 31.6682 67.1796 31.7894C68.597 31.6166 69.3399 31.1667 70.651 29.8407L67.8918 30.091C67.8918 30.091 67.5998 30.4793 67.3067 30.6184C67.1121 30.7098 66.8777 30.7733 66.5509 30.8091C67.1369 30.9422 67.3296 31.0117 67.56 31.1041C67.7547 31.1806 67.8868 31.3127 67.8808 31.405V31.404Z" fill="url(#paint10_linear_335_678)"/>
<path d="M67.1806 31.7894C67.7229 31.6682 67.8729 31.5143 67.8818 31.404C67.8878 31.3117 67.7557 31.1806 67.561 31.1031C67.3306 31.0107 67.1379 30.9402 66.5519 30.8081C66.5519 30.8081 66.1953 30.8379 65.9738 30.8419C65.0054 30.8598 63.8205 30.8687 62.3535 30.8687C57.8959 30.8687 49.4127 30.5826 47.1154 30.5022L48.0471 31.5779C52.898 31.845 57.3467 31.9076 62.2204 31.9076C62.424 31.9076 63.3438 31.9096 63.5523 31.9096C64.2426 31.9096 65.0442 31.9066 65.7573 31.8838C66.3076 31.8659 66.7714 31.8391 67.1806 31.7894Z" fill="url(#paint11_linear_335_678)"/>
<path d="M77.6959 22.9686L78.2154 22.2465L59.3142 19.0284C61.2679 19.6681 66.5201 20.8818 70.5288 21.7846C70.3391 21.7538 77.0493 22.8593 77.6949 22.9686H77.6959Z" fill="url(#paint12_linear_335_678)"/>
<path d="M65.7573 29.1842C65.2379 29.0829 64.8406 28.9964 64.4185 28.9319C64.2337 28.9041 54.1763 27.1898 47.474 26.0247L46.882 26.5134L67.8918 30.091C67.5928 29.7443 66.5469 29.3381 65.7573 29.1842Z" fill="url(#paint13_linear_335_678)"/>
<path d="M65.7573 29.1842C65.2379 29.0829 64.8406 28.9965 64.4184 28.9319C64.2337 28.9041 54.1753 27.1908 47.474 26.0247L47.7421 25.8042L71.2608 29.7861L67.8918 30.091C67.7021 29.8308 66.7227 29.3719 65.7573 29.1842Z" fill="url(#paint14_linear_335_678)"/>
<path d="M77.6046 17.182C73.2959 16.9734 68.6456 16.8562 62.9624 16.8562C61.8251 16.8562 59.6142 16.893 58.6051 16.9118C56.4637 16.9536 55.236 17.9706 54.2537 19.0711L54.0799 19.2519L57.584 18.642C57.584 18.642 57.6466 18.5517 57.8194 18.3957C57.294 18.2974 57.2225 17.5723 58.622 17.3201C59.2616 17.2048 60.3492 17.1959 61.7486 17.181C62.2065 17.176 62.6296 17.1731 62.9634 17.1731C68.2732 17.1731 72.987 17.1443 77.6016 17.3697L77.7347 17.3767L77.6055 17.182H77.6046Z" fill="#231F20"/>
<path d="M54.6361 19.1545C56.0793 19.3999 64.2923 20.7576 70.5298 21.7846C66.5201 20.8818 61.2689 19.668 59.3152 19.0284L57.584 18.642L54.6361 19.1555V19.1545Z" fill="url(#paint15_linear_335_678)"/>
<path style="mix-blend-mode:multiply" d="M77.6006 31.412C77.5767 31.9732 77.5519 32.5423 77.5211 33.312C77.4417 35.2796 76.9937 35.9044 76.1405 36.4238C75.3271 36.9194 74.3726 36.988 71.4743 37.132C68.5344 37.277 65.3928 37.3624 62.136 37.3843C61.8877 37.3863 61.6384 37.3863 61.3951 37.3863C57.5771 37.3863 54.0968 37.1747 49.7187 36.833C48.9747 36.7754 48.501 36.7138 48.2874 36.5728C48.057 36.4208 47.9954 36.3801 47.9348 35.4435C47.9259 35.3025 47.9169 35.1733 47.909 35.0502C47.8852 34.6916 47.8554 34.3748 47.8385 33.899C47.8206 33.4114 47.7858 32.9366 47.7153 31.8848C53.334 32.1946 57.9307 32.2244 62.2184 32.2244C62.4221 32.2244 63.3636 32.2264 63.5504 32.2264C64.2436 32.2264 65.0491 32.2235 65.7653 32.1996C68.444 32.1122 69.1899 31.9175 71.0085 30.0433L71.2598 29.7841L47.7411 25.8022V22.908L77.7148 28.2337H77.7138C77.6939 28.7581 77.6711 29.4265 77.6502 30.0314C77.6334 30.5479 77.6185 30.9938 77.6006 31.41V31.412Z" fill="url(#paint16_radial_335_678)"/>
<path d="M54.0799 19.2509L54.6371 19.1545C56.9146 19.5419 76.0213 22.6845 77.6969 22.9685L78.2164 22.2465L78.5293 22.2991L77.7694 23.3261L54.0809 19.2509H54.0799Z" fill="white"/>
<path style="mix-blend-mode:multiply" opacity="0.1" d="M76.1405 36.4228C76.9937 35.9034 77.4417 35.2796 77.5211 33.311C77.5519 32.5413 77.5768 31.9732 77.6006 31.411C77.6185 30.9948 77.6334 30.5489 77.6503 30.0324C77.6711 29.4275 77.694 28.7591 77.7138 28.2347H77.7148L69.2038 26.723C67.7229 27.2285 66.399 27.9287 65.2985 28.776L71.2598 29.7851L71.0085 30.0443C69.1909 31.9185 68.444 32.1132 65.7653 32.2006C65.0482 32.2245 64.2427 32.2274 63.5504 32.2274C63.4103 32.2274 62.8442 32.2274 62.4846 32.2264C62.1052 33.0866 61.9016 34.0003 61.9016 34.9479C61.9016 35.7911 62.0635 36.6076 62.3664 37.3833C65.5408 37.3585 68.6039 37.274 71.4744 37.133C74.3726 36.989 75.3271 36.9204 76.1405 36.4248V36.4228Z" fill="url(#paint17_radial_335_678)"/>
<path d="M77.7684 25.9522L78.0714 25.8638V22.9169L77.7684 23.3271V25.9522Z" fill="#939598"/>
<path d="M77.7684 25.9522L78.0714 25.8638L78.5283 26.0873V26.2571L77.7684 25.9522Z" fill="#808285"/>
<path d="M78.5283 22.2991L78.0714 22.9169V25.8638L78.5283 26.0873V22.2991Z" fill="#414042"/>
<defs>
<radialGradient id="paint0_radial_335_678" cx="0" cy="0" r="1" gradientUnits="userSpaceOnUse" gradientTransform="translate(61.6383 37.3296) rotate(15.49) scale(16.3605 10.3071)">
<stop offset="0.33" stop-color="#7B7C7F"/>
<stop offset="0.57" stop-color="#949598"/>
<stop offset="0.8" stop-color="#A7A9AC"/>
<stop offset="1" stop-color="#D1D3D4"/>
</radialGradient>
<linearGradient id="paint1_linear_335_678" x1="57.6496" y1="17.7829" x2="77.681" y2="17.7829" gradientUnits="userSpaceOnUse">
<stop stop-color="#4D4D4F"/>
<stop offset="0.33" stop-color="#535456"/>
<stop offset="0.45" stop-color="#58595B"/>
<stop offset="0.48" stop-color="#545456"/>
<stop offset="0.76" stop-color="#302D2F"/>
<stop offset="0.91" stop-color="#231F20"/>
</linearGradient>
<linearGradient id="paint2_linear_335_678" x1="49.4336" y1="19.8121" x2="47.6627" y2="11.901" gradientUnits="userSpaceOnUse">
<stop stop-color="#939598"/>
<stop offset="0.48" stop-color="#9FA1A4"/>
<stop offset="1" stop-color="#A7A9AC"/>
</linearGradient>
<linearGradient id="paint3_linear_335_678" x1="48.9678" y1="11.6001" x2="78.2323" y2="11.6001" gradientUnits="userSpaceOnUse">
<stop offset="0.06" stop-color="#BFBFBF"/>
<stop offset="0.28" stop-color="#BCBCBC"/>
<stop offset="0.44" stop-color="#B2B2B2"/>
<stop offset="0.59" stop-color="#A2A2A2"/>
<stop offset="0.72" stop-color="#8C8C8C"/>
<stop offset="0.85" stop-color="#6F6F6F"/>
<stop offset="0.97" stop-color="#4B4B4B"/>
<stop offset="1" stop-color="#404040"/>
</linearGradient>
<linearGradient id="paint4_linear_335_678" x1="77.8062" y1="12.5208" x2="77.8062" y2="18.1822" gradientUnits="userSpaceOnUse">
<stop stop-color="white"/>
<stop offset="0.12" stop-color="#CCCCCC"/>
<stop offset="0.5" stop-color="#CACACA"/>
<stop offset="0.63" stop-color="#C3C3C3"/>
<stop offset="0.73" stop-color="#B7B7B7"/>
<stop offset="0.81" stop-color="#A6A6A6"/>
<stop offset="0.87" stop-color="#909090"/>
<stop offset="0.93" stop-color="#757575"/>
<stop offset="0.99" stop-color="#555555"/>
<stop offset="1" stop-color="#4D4D4D"/>
</linearGradient>
<radialGradient id="paint5_radial_335_678" cx="0" cy="0" r="1" gradientUnits="userSpaceOnUse" gradientTransform="translate(77.3841 37.3892) scale(39.0279 39.0279)">
<stop offset="0.14" stop-color="#808285"/>
<stop offset="0.25" stop-color="#919395"/>
<stop offset="0.47" stop-color="#B0B2B4"/>
<stop offset="0.59" stop-color="#BCBEC0"/>
<stop offset="0.63" stop-color="#C6C8C9"/>
<stop offset="0.73" stop-color="#D7D9DA"/>
<stop offset="0.84" stop-color="#E2E3E4"/>
<stop offset="0.96" stop-color="#E6E7E8"/>
</radialGradient>
<radialGradient id="paint6_radial_335_678" cx="0" cy="0" r="1" gradientUnits="userSpaceOnUse" gradientTransform="translate(91.77 43.7628) scale(40.7214 40.7214)">
<stop offset="0.14" stop-color="#808285"/>
<stop offset="0.25" stop-color="#919395"/>
<stop offset="0.47" stop-color="#B0B2B4"/>
<stop offset="0.59" stop-color="#BCBEC0"/>
<stop offset="0.61" stop-color="#C6C8C9"/>
<stop offset="0.69" stop-color="#DFE0E1"/>
<stop offset="0.77" stop-color="#F0F1F1"/>
<stop offset="0.85" stop-color="#FBFBFB"/>
<stop offset="0.94" stop-color="white"/>
</radialGradient>
<linearGradient id="paint7_linear_335_678" x1="47.2386" y1="37.5253" x2="75.7244" y2="37.5253" gradientUnits="userSpaceOnUse">
<stop stop-color="#6D6E71" stop-opacity="0.91"/>
<stop offset="0.47" stop-color="#474648" stop-opacity="0.96"/>
<stop offset="1" stop-color="#231F20"/>
</linearGradient>
<linearGradient id="paint8_linear_335_678" x1="76.6282" y1="36.9016" x2="78.8401" y2="28.9081" gradientUnits="userSpaceOnUse">
<stop offset="0.27" stop-color="#58595B"/>
<stop offset="0.39" stop-color="#49494A"/>
<stop offset="0.62" stop-color="#343133"/>
<stop offset="0.82" stop-color="#272324"/>
<stop offset="1" stop-color="#231F20"/>
</linearGradient>
<radialGradient id="paint9_radial_335_678" cx="0" cy="0" r="1" gradientUnits="userSpaceOnUse" gradientTransform="translate(90.9605 117.095) scale(126.205 126.205)">
<stop stop-color="#77787B"/>
<stop offset="0.25" stop-color="#A6A7A9"/>
<stop offset="0.45" stop-color="#C5C7C8"/>
<stop offset="0.56" stop-color="#D1D3D4"/>
<stop offset="0.62" stop-color="#D9DBDB"/>
<stop offset="0.86" stop-color="#F4F5F5"/>
<stop offset="1" stop-color="white"/>
</radialGradient>
<linearGradient id="paint10_linear_335_678" x1="68.885" y1="29.1881" x2="68.2195" y2="31.855" gradientUnits="userSpaceOnUse">
<stop offset="0.06" stop-color="#6D6E71"/>
<stop offset="0.08" stop-color="#747578"/>
<stop offset="0.19" stop-color="#949598"/>
<stop offset="0.3" stop-color="#AFB0B2"/>
<stop offset="0.43" stop-color="#C4C5C6"/>
<stop offset="0.57" stop-color="#D2D3D5"/>
<stop offset="0.73" stop-color="#DBDCDD"/>
<stop offset="1" stop-color="#DEDFE0"/>
</linearGradient>
<linearGradient id="paint11_linear_335_678" x1="47.1154" y1="31.2064" x2="67.8818" y2="31.2064" gradientUnits="userSpaceOnUse">
<stop stop-color="#9C9C9C"/>
<stop offset="0.2" stop-color="#949494"/>
<stop offset="0.5" stop-color="#7E7E7E"/>
<stop offset="0.87" stop-color="#5A5A5C"/>
<stop offset="1" stop-color="#4D4D4F"/>
</linearGradient>
<linearGradient id="paint12_linear_335_678" x1="59.3152" y1="20.998" x2="78.2154" y2="20.998" gradientUnits="userSpaceOnUse">
<stop stop-color="#A7A9AC"/>
<stop offset="0.28" stop-color="#AEB0B3"/>
<stop offset="0.72" stop-color="#C4C5C6"/>
<stop offset="1" stop-color="#D6D6D6"/>
</linearGradient>
<linearGradient id="paint13_linear_335_678" x1="47.4005" y1="26.2889" x2="67.4945" y2="29.7771" gradientUnits="userSpaceOnUse">
<stop stop-color="#808285"/>
<stop offset="0.9" stop-color="#231F20"/>
</linearGradient>
<linearGradient id="paint14_linear_335_678" x1="47.6289" y1="26.273" x2="70.8397" y2="30.087" gradientUnits="userSpaceOnUse">
<stop stop-color="#636466"/>
<stop offset="1" stop-color="#4D4D4F"/>
</linearGradient>
<linearGradient id="paint15_linear_335_678" x1="54.6361" y1="20.2123" x2="70.5298" y2="20.2123" gradientUnits="userSpaceOnUse">
<stop offset="0.22" stop-color="#58595B"/>
<stop offset="0.4" stop-color="#5D5E60"/>
<stop offset="0.64" stop-color="#6D6E71"/>
<stop offset="0.9" stop-color="#87898C"/>
<stop offset="1" stop-color="#939598"/>
</linearGradient>
<radialGradient id="paint16_radial_335_678" cx="0" cy="0" r="1" gradientUnits="userSpaceOnUse" gradientTransform="translate(77.693 37.1171) scale(39.1819 39.1819)">
<stop stop-color="#808285"/>
<stop offset="0.12" stop-color="#919395"/>
<stop offset="0.37" stop-color="#B0B2B4"/>
<stop offset="0.51" stop-color="#BCBEC0"/>
<stop offset="0.55" stop-color="#C6C8C9"/>
<stop offset="0.65" stop-color="#DFE0E1"/>
<stop offset="0.76" stop-color="#F0F1F1"/>
<stop offset="0.87" stop-color="#FBFBFB"/>
<stop offset="1" stop-color="white"/>
</radialGradient>
<radialGradient id="paint17_radial_335_678" cx="0" cy="0" r="1" gradientUnits="userSpaceOnUse" gradientTransform="translate(76.8646 37.6614) scale(13.5387 13.5387)">
<stop stop-color="#231F20"/>
<stop offset="0.22" stop-color="#545253"/>
<stop offset="0.63" stop-color="#ADAEAF"/>
<stop offset="0.81" stop-color="#D1D3D4"/>
<stop offset="0.84" stop-color="#D9DBDB"/>
<stop offset="0.94" stop-color="#F4F5F5"/>
<stop offset="1" stop-color="white"/>
</radialGradient>
</defs>
</svg>
