<svg width="125" height="64" viewBox="0 0 125 64" fill="none" xmlns="http://www.w3.org/2000/svg">
<rect width="125" height="64" rx="8" fill="white"/>
<path d="M26.3781 44.4318V20.5682H37.3921L41.0014 24.9366H30.9273V40.7992L26.3781 44.4318Z" fill="#A80E0B"/>
<path d="M41.0014 24.9366L34.3404 35.5582V29.1011L36.9764 24.9366H41.0014Z" fill="#F2120B"/>
<path d="M24.9401 44.4318V20.5682H13.9261L10.3194 24.9366H20.3935V40.7992L24.9401 44.4318Z" fill="#F2120B"/>
<path d="M10.3194 24.9366L16.9804 35.5582V29.1011L14.3444 24.9366H10.3194Z" fill="#A80E0B"/>
<path d="M50.9956 32.6252C50.5696 32.2793 50.3553 31.6906 50.3553 30.8644V27.8541H49.4258V25.9694H50.3553V24.4203H52.9655V25.9694H54.1996V27.8541H52.9655V30.4694C52.9548 30.5788 52.9664 30.6892 52.9997 30.794C53.033 30.8987 53.0872 30.9956 53.1591 31.0787C53.3263 31.2156 53.5401 31.2823 53.7555 31.2646C53.8363 31.2692 53.9174 31.2692 53.9982 31.2646C54.0653 31.2646 54.1325 31.2569 54.1996 31.2414V33.0616C54.0602 33.0874 53.8924 33.1106 53.7013 33.1287C53.467 33.1502 53.2317 33.1597 52.9965 33.1571C52.0903 33.1416 51.4216 32.9738 50.9956 32.6252Z" fill="#F2120B"/>
<path d="M56.5851 32.7078C56.0462 32.4245 55.606 31.9843 55.3227 31.4453C55.0149 30.8381 54.8631 30.1637 54.8812 29.4832C54.8624 28.8028 55.0133 28.1285 55.3201 27.521C55.5997 26.9868 56.0332 26.5488 56.5645 26.2637C57.1504 25.9584 57.8043 25.8074 58.4647 25.8248C59.124 25.8091 59.7769 25.9572 60.3649 26.2559C60.885 26.5317 61.3157 26.9499 61.6067 27.4616C61.9122 28.0317 62.0644 28.6714 62.0482 29.3179V30.0563H56.154V28.5899H60.8451L59.642 29.9789V28.972C59.648 28.7215 59.6013 28.4726 59.5052 28.2413C59.4246 28.0518 59.291 27.8895 59.1205 27.774C58.9916 27.6891 58.8456 27.6335 58.6929 27.6112C58.5401 27.5889 58.3843 27.6005 58.2365 27.6451C58.0888 27.6896 57.9526 27.7662 57.8376 27.8692C57.7227 27.9722 57.6318 28.0993 57.5714 28.2413C57.4752 28.4726 57.4286 28.7215 57.4346 28.972V30.0047C57.4281 30.2554 57.4756 30.5046 57.574 30.7353C57.6568 30.9282 57.7964 31.0912 57.9742 31.2027C58.1646 31.3152 58.383 31.3716 58.6041 31.3653C58.8011 31.3726 58.9972 31.3346 59.1773 31.2543C59.3131 31.1921 59.4358 31.1044 59.5387 30.9961C59.61 30.9225 59.6645 30.8345 59.6988 30.7379V30.7199H62.0224L62.0018 30.8025C61.9405 31.0638 61.8441 31.3157 61.7152 31.5512C61.5598 31.8422 61.3555 32.1042 61.111 32.3257C60.8098 32.5911 60.4587 32.7939 60.0783 32.9221C59.5796 33.09 59.0552 33.1686 58.5292 33.1545C57.8543 33.1682 57.1864 33.0148 56.5851 32.7078Z" fill="#F2120B"/>
<path d="M66.3289 32.7879C65.9702 32.5477 65.6985 32.1982 65.5543 31.7913H65.4794V32.9944H62.8796V23.811H65.4794V27.2344H65.5311C65.6809 26.8158 65.9581 26.4547 66.3237 26.2017C66.7048 25.9461 67.1559 25.8153 67.6146 25.8274C68.1464 25.8096 68.6706 25.9575 69.1146 26.2508C69.5443 26.5599 69.8701 26.992 70.0492 27.49C70.2828 28.1254 70.3966 28.7986 70.3849 29.4754C70.4018 30.1524 70.2924 30.8266 70.0621 31.4634C69.8817 31.9629 69.5563 32.3971 69.1275 32.7104C68.6887 33.0049 68.1687 33.1548 67.6404 33.139C67.1781 33.1544 66.7216 33.0322 66.3289 32.7879ZM67.2118 30.8567C67.3891 30.7168 67.5233 30.5298 67.5991 30.3171C67.6966 30.0502 67.743 29.7673 67.7359 29.4832C67.7429 29.1972 67.6956 28.9125 67.5965 28.6441C67.52 28.4318 67.3837 28.2462 67.2041 28.1097C67.0339 27.9841 66.8268 27.9187 66.6154 27.9238C66.4034 27.9199 66.1959 27.9851 66.0242 28.1097C65.8431 28.2453 65.7058 28.4311 65.6292 28.6441C65.5295 28.915 65.4822 29.2024 65.4898 29.4909C65.4826 29.7769 65.5299 30.0617 65.6292 30.33C65.7063 30.5427 65.8424 30.729 66.0216 30.867C66.1947 30.9904 66.4029 31.0546 66.6154 31.0503C66.8303 31.0541 67.0402 30.986 67.2118 30.8567Z" fill="#F2120B"/>
<path d="M72.7085 32.7182C72.1684 32.4418 71.726 32.0066 71.4408 31.4712C71.1284 30.8581 70.9757 30.1761 70.9967 29.4884C70.9776 28.8042 71.135 28.1267 71.4537 27.521C71.7486 26.9829 72.1983 26.5457 72.7446 26.2663C73.3504 25.9627 74.0216 25.8129 74.699 25.83C75.3775 25.8128 76.05 25.9607 76.6586 26.2611C77.204 26.5407 77.6535 26.9767 77.9495 27.5133C78.2598 28.1196 78.4108 28.7948 78.3884 29.4755C78.4098 30.1649 78.257 30.8486 77.9443 31.4634C77.6577 31.999 77.2134 32.4334 76.6715 32.7079C76.0493 32.9895 75.3742 33.1352 74.6913 33.1352C74.0083 33.1352 73.3332 32.9895 72.711 32.7079L72.7085 32.7182ZM75.2541 31.0116C75.4272 30.8551 75.5525 30.6528 75.6156 30.4281C75.7048 30.1231 75.7466 29.8061 75.7395 29.4884C75.7467 29.1726 75.7022 28.8578 75.6078 28.5563C75.5408 28.3307 75.4141 28.1274 75.2412 27.9677C75.0873 27.8359 74.8913 27.7634 74.6887 27.7634C74.4861 27.7634 74.2901 27.8359 74.1362 27.9677C73.9641 28.1276 73.8384 28.331 73.7722 28.5563C73.6809 28.8584 73.6382 29.1729 73.6457 29.4884C73.6385 29.8061 73.6803 30.1231 73.7696 30.4281C73.8317 30.6526 73.9562 30.8549 74.1284 31.0116C74.2858 31.146 74.487 31.2176 74.6939 31.213C74.9026 31.2202 75.1064 31.1483 75.2644 31.0116H75.2541Z" fill="#A80E0B"/>
<path d="M79.1991 25.9693H81.8067V27.2989H81.8584C81.972 26.8665 82.2286 26.4852 82.5864 26.2172C82.9541 25.9472 83.4007 25.8065 83.8567 25.817C84.1683 25.8106 84.4776 25.8723 84.7629 25.9977C85.0215 26.1118 85.2471 26.2895 85.4187 26.5141C85.5992 26.7626 85.7162 27.0516 85.7595 27.3557H85.8111C85.8865 27.0547 86.0325 26.7759 86.2371 26.5425C86.4448 26.3095 86.7013 26.1253 86.9884 26.0029C87.2985 25.8712 87.6326 25.8053 87.9695 25.8092C88.3916 25.7993 88.8084 25.9047 89.1752 26.1139C89.5187 26.3167 89.7993 26.6107 89.9859 26.9633C90.1891 27.3561 90.2894 27.794 90.2776 28.2361V32.997H87.6829V28.9151C87.7032 28.6472 87.6272 28.3808 87.4686 28.1638C87.3882 28.0754 87.2888 28.0063 87.178 27.9616C87.0671 27.9169 86.9476 27.8978 86.8283 27.9056C86.6693 27.9024 86.5126 27.9445 86.3765 28.027C86.2487 28.1097 86.1482 28.2282 86.0874 28.3678C86.0181 28.5364 85.9847 28.7175 85.9892 28.8996V32.984H83.5004V28.9229C83.5214 28.6544 83.4464 28.3873 83.2887 28.169C83.2097 28.0801 83.1114 28.0106 83.0012 27.9658C82.8911 27.921 82.7721 27.9022 82.6536 27.9108C82.4945 27.9076 82.3378 27.9497 82.2018 28.0322C82.0726 28.1152 81.9711 28.2347 81.91 28.3755C81.8405 28.5387 81.8053 28.7145 81.8067 28.8919V32.9763H79.1991V25.9693Z" fill="#A80E0B"/>
<path d="M91.5324 32.7336C91.3099 32.5137 91.1706 32.2234 91.1384 31.9123C91.1062 31.6012 91.183 31.2885 91.3557 31.0277C91.5284 30.7669 91.7863 30.5741 92.0853 30.4823C92.3844 30.3906 92.706 30.4055 92.9953 30.5245C93.2846 30.6435 93.5235 30.8593 93.6714 31.1349C93.8193 31.4106 93.8668 31.729 93.806 32.0358C93.7452 32.3427 93.5797 32.6189 93.3378 32.8172C93.0959 33.0156 92.7927 33.1238 92.4799 33.1235C92.3037 33.1266 92.1288 33.0936 91.9658 33.0266C91.8029 32.9595 91.6554 32.8598 91.5324 32.7336Z" fill="#0F0D1A"/>
<path d="M94.708 25.9694H97.3182V27.2603H97.3673C97.5136 26.8245 97.7926 26.4454 98.165 26.1759C98.6492 25.8849 99.215 25.7595 99.7767 25.8186C100.339 25.8778 100.866 26.1183 101.279 26.5038C101.697 26.972 101.906 27.6277 101.906 28.4711V32.9815H99.301V29.0546C99.3108 28.7603 99.2197 28.4716 99.0428 28.2362C98.9521 28.1311 98.8381 28.0487 98.71 27.9953C98.5818 27.942 98.4429 27.9193 98.3045 27.929C98.1216 27.926 97.9419 27.9772 97.7881 28.0761C97.638 28.1742 97.5189 28.313 97.4447 28.4763C97.3603 28.6599 97.3188 28.8603 97.3234 29.0624V33.0073H94.708V25.9694Z" fill="#0F0D1A"/>
<path d="M104.382 32.7078C103.843 32.4245 103.403 31.9843 103.119 31.4453C102.81 30.8387 102.657 30.1641 102.675 29.4832C102.657 28.8028 102.807 28.1285 103.114 27.521C103.395 26.9873 103.828 26.5495 104.359 26.2637C104.945 25.9584 105.599 25.8074 106.259 25.8248C106.918 25.8088 107.571 25.9569 108.159 26.2559C108.682 26.5291 109.115 26.9478 109.406 27.4616C109.712 28.0317 109.864 28.6714 109.848 29.3179V30.0563H103.948V28.5899H108.639L107.436 29.9789V28.972C107.446 28.7201 107.401 28.4691 107.305 28.2362C107.24 28.0977 107.147 27.9744 107.032 27.8743C106.916 27.7743 106.781 27.6997 106.635 27.6556C106.488 27.6115 106.334 27.5988 106.183 27.6183C106.031 27.6378 105.886 27.6891 105.755 27.7689C105.58 27.8824 105.442 28.0449 105.358 28.2362C105.262 28.4675 105.215 28.7164 105.221 28.9668V29.9995C105.214 30.2506 105.263 30.5 105.363 30.7302C105.446 30.923 105.585 31.086 105.763 31.1975C105.954 31.3103 106.172 31.3667 106.393 31.3601C106.59 31.3674 106.786 31.3294 106.966 31.2491C107.101 31.1869 107.223 31.0993 107.325 30.9909C107.398 30.9181 107.454 30.8299 107.488 30.7328V30.7147H109.811L109.793 30.7973C109.73 31.058 109.633 31.3095 109.507 31.546C109.351 31.8365 109.146 32.0984 108.903 32.3206C108.602 32.5862 108.251 32.789 107.87 32.917C107.371 33.085 106.847 33.1637 106.321 33.1493C105.648 33.1643 104.982 33.0126 104.382 32.7078Z" fill="#0F0D1A"/>
<path d="M111.913 32.6252C111.487 32.2793 111.275 31.6906 111.275 30.8645V27.8541H110.346V25.9694H111.275V24.4203H113.883V25.9694H115.117V27.8541H113.883V30.4694C113.872 30.5788 113.884 30.6892 113.917 30.794C113.951 30.8987 114.005 30.9956 114.077 31.0787C114.244 31.2152 114.458 31.2817 114.673 31.2646C114.755 31.2692 114.837 31.2692 114.918 31.2646L115.117 31.2414V33.0616C114.978 33.0874 114.812 33.1106 114.619 33.1287C114.385 33.1502 114.151 33.1596 113.917 33.1571C113.008 33.1468 112.34 32.9695 111.913 32.6252Z" fill="#0F0D1A"/>
<path d="M56.8046 40.1408C56.6561 40.0252 56.5485 39.865 56.4974 39.6839V40.2725H56.3322V37.2131H56.4974V38.6537C56.5479 38.4744 56.6547 38.316 56.802 38.2019C56.9459 38.0961 57.1187 38.0367 57.2972 38.0316C57.4757 38.0265 57.6515 38.076 57.8012 38.1735C57.9446 38.2738 58.0579 38.4112 58.1291 38.5711C58.2122 38.7587 58.2528 38.9624 58.2478 39.1675C58.253 39.3735 58.2124 39.578 58.1291 39.7665C58.0597 39.9274 57.9471 40.0659 57.8038 40.1667C57.6614 40.2627 57.4927 40.3123 57.321 40.3086C57.1348 40.3129 56.9527 40.2537 56.8046 40.1408ZM57.7082 40.0376C57.8308 39.9492 57.9265 39.8285 57.9845 39.689C58.0519 39.5253 58.0853 39.3497 58.0826 39.1727C58.0857 38.9956 58.0523 38.8199 57.9845 38.6563C57.9272 38.5156 57.8315 38.3939 57.7082 38.3052C57.5862 38.2212 57.4407 38.1778 57.2926 38.1812C57.1452 38.1803 57.0011 38.2245 56.8795 38.3078C56.7553 38.3964 56.6572 38.5168 56.5955 38.6563C56.5237 38.8188 56.4884 38.9951 56.4922 39.1727C56.488 39.3503 56.5233 39.5267 56.5955 39.689C56.6554 39.8289 56.7528 39.9495 56.8769 40.0376C56.9985 40.1228 57.1441 40.1671 57.2926 40.1641C57.4409 40.1662 57.5862 40.122 57.7082 40.0376Z" fill="#100E1A"/>
<path d="M59.6368 40.2079C59.5177 40.1404 59.4215 40.0388 59.3606 39.9162C59.293 39.7718 59.2602 39.6135 59.2651 39.4541V38.0676H59.4277V39.436C59.4142 39.6322 59.4781 39.826 59.6059 39.9756C59.6715 40.0385 59.7494 40.0872 59.8347 40.1187C59.9199 40.1502 60.0108 40.1639 60.1016 40.1589C60.2354 40.1612 60.3674 40.1273 60.4837 40.0608C60.5941 39.9973 60.6838 39.9031 60.7418 39.7897C60.8046 39.664 60.8357 39.5248 60.8322 39.3843V38.0676H60.9974V40.2725H60.8322V39.8155C60.78 39.959 60.6832 40.0821 60.556 40.1666C60.4136 40.2648 60.2434 40.3146 60.0706 40.3086C59.9196 40.3141 59.7699 40.2794 59.6368 40.2079Z" fill="#100E1A"/>
<path d="M62.1231 38.0676H62.2858V38.4936C62.3202 38.3612 62.3941 38.2424 62.4975 38.1528C62.6016 38.0706 62.7314 38.0277 62.8641 38.0315C62.9044 38.0273 62.9451 38.0273 62.9854 38.0315C63.0144 38.0379 63.0429 38.0465 63.0706 38.0573V38.22C63.0405 38.2073 63.0094 38.1969 62.9777 38.189C62.9335 38.1801 62.8885 38.1758 62.8434 38.1761C62.7358 38.174 62.6302 38.2056 62.5414 38.2664C62.4526 38.3313 62.3851 38.4212 62.3477 38.5246C62.2995 38.6425 62.2757 38.769 62.278 38.8964V40.2673H62.1231V38.0676Z" fill="#100E1A"/>
<path d="M64.2247 40.2312C64.1202 40.1818 64.031 40.1051 63.9665 40.0091C63.9034 39.9107 63.871 39.7956 63.8736 39.6787C63.8698 39.5943 63.8859 39.5102 63.9204 39.4331C63.9549 39.356 64.0069 39.288 64.0724 39.2346C64.2421 39.1141 64.4451 39.0491 64.6533 39.0487L65.4949 38.9868V39.1184L64.6765 39.1804C64.5081 39.185 64.3444 39.2369 64.2041 39.3301C64.1504 39.3705 64.1073 39.4234 64.0786 39.4841C64.0498 39.5448 64.0361 39.6115 64.0388 39.6787C64.0372 39.7456 64.0513 39.8121 64.08 39.8726C64.1087 39.9331 64.1512 39.9861 64.2041 40.0272C64.3237 40.1212 64.4728 40.1697 64.6249 40.164C64.7632 40.1653 64.8998 40.1325 65.0225 40.0685C65.1382 40.008 65.2368 39.9192 65.3091 39.8103C65.3791 39.7039 65.416 39.5789 65.4149 39.4515V38.7957C65.4199 38.7131 65.4079 38.6303 65.3794 38.5526C65.351 38.4748 65.3068 38.4038 65.2497 38.3439C65.1887 38.2868 65.1167 38.2428 65.0381 38.2144C64.9596 38.186 64.8761 38.1738 64.7927 38.1786C64.6293 38.1713 64.4679 38.2176 64.3331 38.3103C64.2738 38.3541 64.2238 38.4093 64.1861 38.4727C64.1484 38.5361 64.1238 38.6064 64.1137 38.6795V38.7028H63.9562V38.6795C63.9696 38.5536 64.0159 38.4334 64.0905 38.331C64.1647 38.2319 64.2647 38.1551 64.3796 38.1089C64.5105 38.0551 64.6512 38.0287 64.7927 38.0315C64.9365 38.0282 65.0789 38.0592 65.2084 38.1218C65.323 38.1791 65.4182 38.2689 65.482 38.38C65.5478 38.503 65.5807 38.6408 65.5776 38.7802V40.2699H65.4149V39.8052C65.3764 39.9033 65.3164 39.9915 65.2394 40.0634C65.1565 40.1397 65.0602 40.2001 64.9554 40.2415C64.844 40.2833 64.7258 40.3044 64.6068 40.3035C64.4756 40.3085 64.345 40.2838 64.2247 40.2312Z" fill="#100E1A"/>
<path d="M67.0285 40.1667C66.8852 40.0653 66.7719 39.927 66.7007 39.7665C66.6194 39.5775 66.5798 39.3732 66.5845 39.1675C66.5795 38.9624 66.6201 38.7587 66.7032 38.5711C66.7736 38.4107 66.8871 38.2731 67.0311 38.1735C67.1727 38.0778 67.3405 38.0282 67.5113 38.0315C67.6976 38.0292 67.8794 38.0892 68.0277 38.2019C68.1752 38.3154 68.2813 38.4741 68.3298 38.6537V37.2131H68.4924V40.2725H68.3298V39.7019C68.2774 39.8776 68.1708 40.0321 68.0251 40.1434C67.8765 40.255 67.6946 40.3132 67.5088 40.3086C67.3379 40.3115 67.1704 40.2619 67.0285 40.1667ZM67.9554 40.035C68.0802 39.9476 68.1777 39.8268 68.2368 39.6864C68.309 39.5241 68.3443 39.3477 68.3401 39.1701C68.3439 38.9925 68.3086 38.8162 68.2368 38.6537C68.176 38.5137 68.0777 38.3931 67.9528 38.3052C67.8316 38.2211 67.6872 38.1769 67.5397 38.1787C67.3925 38.1756 67.2479 38.219 67.1267 38.3026C67.0035 38.3892 66.9076 38.5093 66.8504 38.6486C66.7804 38.8115 66.746 38.9876 66.7497 39.1649C66.7466 39.3422 66.781 39.5181 66.8504 39.6813C66.9076 39.8213 67.0034 39.9422 67.1267 40.0298C67.2479 40.1134 67.3925 40.1568 67.5397 40.1537C67.69 40.1611 67.8386 40.1194 67.9632 40.035H67.9554Z" fill="#100E1A"/>
<path d="M69.9563 40.2312C69.8527 40.1804 69.7638 40.104 69.6981 40.0091C69.635 39.9107 69.6026 39.7956 69.6052 39.6787C69.6011 39.594 69.6172 39.5095 69.6523 39.4323C69.6873 39.3551 69.7402 39.2873 69.8065 39.2346C69.9763 39.1141 70.1793 39.0491 70.3875 39.0487L71.2291 38.9868V39.1184L70.4107 39.1804C70.2414 39.1845 70.0767 39.2364 69.9356 39.3301C69.8823 39.3708 69.8395 39.4237 69.8107 39.4844C69.782 39.545 69.7682 39.6116 69.7704 39.6787C69.7694 39.7456 69.7838 39.8118 69.8124 39.8722C69.8411 39.9326 69.8832 39.9857 69.9356 40.0272C70.0563 40.1212 70.2062 40.1696 70.359 40.1641C70.4974 40.165 70.6338 40.1322 70.7566 40.0685C70.8725 40.0091 70.9705 39.92 71.0406 39.8103C71.1127 39.7046 71.1505 39.5794 71.1491 39.4515V38.7957C71.1535 38.7131 71.1411 38.6305 71.1127 38.5529C71.0843 38.4752 71.0405 38.4041 70.9838 38.3439C70.9224 38.2866 70.85 38.2425 70.771 38.2141C70.692 38.1857 70.6081 38.1736 70.5243 38.1786C70.3617 38.1717 70.2013 38.2179 70.0673 38.3103C70.0076 38.354 69.9571 38.4091 69.919 38.4725C69.8809 38.5359 69.8558 38.6063 69.8453 38.6795V38.7028H69.6904V38.6795C69.7046 38.5533 69.7518 38.4331 69.8272 38.331C69.901 38.2325 70 38.1558 70.1138 38.1089C70.2447 38.0551 70.3853 38.0287 70.5269 38.0315C70.6715 38.0282 70.8148 38.0591 70.9451 38.1218C71.0538 38.1818 71.1433 38.2713 71.2033 38.38C71.2706 38.5024 71.3036 38.6406 71.2988 38.7802V40.2699H71.1594V39.8052C71.1218 39.9038 71.0617 39.9922 70.9838 40.0634C70.9019 40.1397 70.8065 40.2001 70.7024 40.2415C70.591 40.2831 70.4729 40.3041 70.3539 40.3035C70.2176 40.3102 70.0815 40.2854 69.9563 40.2312Z" fill="#100E1A"/>
<path d="M74.0794 38.2096H73.7722V38.0676H74.0794V37.701C74.0701 37.631 74.077 37.5598 74.0996 37.4929C74.1223 37.4259 74.16 37.3652 74.21 37.3152C74.2599 37.2653 74.3207 37.2275 74.3876 37.2049C74.4545 37.1822 74.5258 37.1753 74.5958 37.1846H74.6965H74.7739V37.3266C74.7491 37.3237 74.7239 37.3237 74.6991 37.3266H74.6139C74.5194 37.3223 74.4269 37.3547 74.3557 37.417C74.3194 37.4579 74.292 37.5059 74.2752 37.5578C74.2583 37.6098 74.2523 37.6647 74.2576 37.7191V38.0754H74.7739V38.2174H74.2576V40.2828H74.0923L74.0794 38.2096Z" fill="#100E1A"/>
<path d="M75.7524 37.5978C75.7402 37.5866 75.7305 37.5731 75.7238 37.558C75.7171 37.5429 75.7137 37.5265 75.7137 37.51C75.7135 37.4931 75.7168 37.4763 75.7235 37.4607C75.7302 37.4451 75.74 37.4312 75.7524 37.4196C75.7769 37.3966 75.8092 37.3837 75.8428 37.3837C75.8764 37.3837 75.9087 37.3966 75.9331 37.4196C75.9565 37.4439 75.9695 37.4763 75.9693 37.51C75.9691 37.5428 75.9561 37.5743 75.9331 37.5978C75.9087 37.6208 75.8764 37.6337 75.8428 37.6337C75.8092 37.6337 75.7769 37.6208 75.7524 37.5978ZM75.7524 38.0677H75.9176V40.2725H75.7524V38.0677Z" fill="#100E1A"/>
<path d="M77.0975 41.016H77.0511V40.874H77.0846H77.1259C77.2373 40.8805 77.3476 40.8486 77.4383 40.7837C77.5287 40.698 77.5954 40.5904 77.632 40.4713L77.6939 40.3035L76.8497 38.0676H77.0252L77.7998 40.177L77.7352 40.115H77.8282L77.7636 40.177L78.5382 38.0676H78.7137L77.7972 40.4997C77.7607 40.6028 77.7112 40.7008 77.65 40.7914C77.5988 40.8647 77.5294 40.9234 77.4486 40.9618C77.3555 41.0005 77.2552 41.019 77.1543 41.016H77.0975Z" fill="#100E1A"/>
<path d="M79.8523 40.2312C79.7478 40.1818 79.6586 40.1051 79.5941 40.0091C79.531 39.9107 79.4986 39.7956 79.5012 39.6787C79.4968 39.5942 79.5125 39.5099 79.5471 39.4327C79.5817 39.3555 79.6341 39.2876 79.7 39.2346C79.8697 39.1141 80.0727 39.0491 80.2809 39.0487L81.1225 38.9867V39.1184L80.3041 39.1804C80.1356 39.1846 79.9718 39.2365 79.8316 39.3301C79.778 39.3705 79.7349 39.4234 79.7061 39.4841C79.6774 39.5448 79.6637 39.6115 79.6664 39.6787C79.6648 39.7456 79.6789 39.812 79.7076 39.8726C79.7363 39.9331 79.7788 39.9861 79.8316 40.0272C79.9512 40.1214 80.1004 40.1699 80.2525 40.164C80.3908 40.1653 80.5274 40.1324 80.6501 40.0685C80.7659 40.0091 80.8639 39.92 80.9341 39.8103C81.0061 39.7046 81.0439 39.5794 81.0425 39.4515V38.7957C81.0475 38.7131 81.0354 38.6303 81.007 38.5525C80.9786 38.4748 80.9344 38.4038 80.8773 38.3439C80.8159 38.2866 80.7435 38.2425 80.6645 38.2141C80.5855 38.1857 80.5015 38.1736 80.4177 38.1786C80.2551 38.1717 80.0947 38.2179 79.9607 38.3103C79.901 38.3539 79.8506 38.4091 79.8124 38.4725C79.7743 38.5359 79.7492 38.6063 79.7387 38.6795V38.7027H79.5812V38.6795C79.5947 38.5536 79.641 38.4334 79.7155 38.331C79.7897 38.2319 79.8897 38.1551 80.0046 38.1089C80.1348 38.0554 80.2744 38.0291 80.4151 38.0315C80.5598 38.0279 80.7031 38.0588 80.8334 38.1218C80.943 38.1805 81.0329 38.2704 81.0916 38.38C81.1589 38.5024 81.1919 38.6406 81.1871 38.7802V40.2699H81.027V39.8052C80.9904 39.9036 80.9312 39.9921 80.854 40.0633C80.7712 40.1397 80.6749 40.2001 80.57 40.2415C80.4586 40.2833 80.3405 40.3043 80.2215 40.3035C80.0946 40.3066 79.9686 40.2819 79.8523 40.2312Z" fill="#100E1A"/>
<path d="M82.5683 40.1899C82.4828 40.0848 82.442 39.9504 82.4547 39.8155V38.2096H82.1243V38.0676H82.4547V37.4713H82.62V38.0676H83.0744V38.2096H82.62V39.8078C82.6113 39.9062 82.6388 40.0045 82.6974 40.084C82.7298 40.114 82.7682 40.1369 82.81 40.1511C82.8518 40.1654 82.8961 40.1707 82.9401 40.1667H83.0176H83.0744V40.3035L83.0021 40.3164H82.9117C82.8488 40.3207 82.7857 40.3117 82.7265 40.2899C82.6673 40.2681 82.6134 40.234 82.5683 40.1899Z" fill="#100E1A"/>
<path d="M84.1355 37.2131H84.3007V40.2725H84.1355V37.2131Z" fill="#100E1A"/>
<path d="M85.744 40.2312C85.6395 40.1819 85.5502 40.1051 85.4858 40.0092C85.4227 39.9107 85.3903 39.7956 85.3929 39.6787C85.3888 39.594 85.4049 39.5096 85.4399 39.4324C85.475 39.3551 85.5279 39.2874 85.5942 39.2346C85.7628 39.1137 85.9651 39.0487 86.1726 39.0487L87.0142 38.9868V39.1184L86.1958 39.1804C86.0274 39.185 85.8637 39.2369 85.7233 39.3302C85.6697 39.3706 85.6266 39.4234 85.5978 39.4841C85.5691 39.5448 85.5554 39.6116 85.5581 39.6787C85.5565 39.7457 85.5706 39.8121 85.5993 39.8726C85.628 39.9331 85.6705 39.9861 85.7233 40.0272C85.8438 40.1216 85.9938 40.1701 86.1467 40.1641C86.2842 40.165 86.4199 40.1322 86.5418 40.0685C86.6575 40.008 86.7561 39.9192 86.8283 39.8104C86.8984 39.7039 86.9353 39.579 86.9342 39.4515V38.7957C86.9392 38.7131 86.9271 38.6303 86.8987 38.5526C86.8703 38.4748 86.8261 38.4038 86.769 38.3439C86.7079 38.2869 86.636 38.2428 86.5574 38.2144C86.4789 38.186 86.3954 38.1738 86.312 38.1787C86.1485 38.1714 85.9872 38.2176 85.8524 38.3103C85.793 38.3541 85.743 38.4093 85.7053 38.4727C85.6677 38.5362 85.643 38.6065 85.633 38.6795V38.7028H85.4755V38.6795C85.4897 38.5534 85.5369 38.4331 85.6123 38.331C85.6856 38.232 85.7847 38.1552 85.8989 38.109C86.0298 38.0551 86.1704 38.0287 86.312 38.0315C86.4565 38.0285 86.5998 38.0594 86.7302 38.1219C86.8437 38.1799 86.9378 38.2696 87.0013 38.3801C87.067 38.503 87.0999 38.6408 87.0968 38.7802V40.2699H86.9342V39.8052C86.8966 39.9038 86.8365 39.9922 86.7586 40.0634C86.6762 40.1403 86.5798 40.2008 86.4746 40.2415C86.3641 40.2831 86.2468 40.3041 86.1287 40.3035C85.9966 40.3088 85.8651 40.2841 85.744 40.2312Z" fill="#100E1A"/>
<path d="M88.2225 38.0676H88.3851V38.4936C88.4196 38.3612 88.4934 38.2424 88.5968 38.1528C88.701 38.0706 88.8308 38.0277 88.9634 38.0315C89.0038 38.0273 89.0444 38.0273 89.0848 38.0315C89.1138 38.0379 89.1423 38.0465 89.17 38.0573V38.22L89.0796 38.189C89.0345 38.1802 88.9887 38.1759 88.9428 38.1761C88.8351 38.174 88.7295 38.2056 88.6407 38.2664C88.5519 38.3313 88.4845 38.4212 88.4471 38.5246C88.3988 38.6425 88.3751 38.769 88.3774 38.8964V40.2673H88.2147L88.2225 38.0676Z" fill="#100E1A"/>
<path d="M92.0203 40.1718C91.8701 40.0757 91.7515 39.9374 91.6796 39.7742C91.5971 39.5837 91.5566 39.3777 91.5608 39.1701C91.5566 38.9634 91.5971 38.7582 91.6796 38.5685C91.7524 38.4066 91.8708 38.2693 92.0203 38.1735C92.1753 38.078 92.3547 38.0296 92.5367 38.0341C92.6818 38.0311 92.8257 38.0611 92.9575 38.1219C93.0762 38.1774 93.1804 38.2596 93.2622 38.362C93.3412 38.4617 93.3936 38.5799 93.4145 38.7054V38.7286H93.2519V38.708C93.2197 38.5569 93.1334 38.4228 93.0092 38.331C92.8787 38.2388 92.7239 38.187 92.5642 38.1819C92.4045 38.1769 92.2468 38.2188 92.1107 38.3026C91.9861 38.3879 91.8885 38.5071 91.8293 38.646C91.7597 38.8091 91.7254 38.9851 91.7286 39.1624C91.7246 39.3439 91.7589 39.5242 91.8293 39.6916C91.8868 39.8315 91.9855 39.9507 92.1123 40.0332C92.2391 40.1158 92.388 40.1578 92.5393 40.1538C92.706 40.1587 92.8695 40.1078 93.004 40.0092C93.1308 39.9171 93.2183 39.7807 93.2493 39.6271V39.609H93.4119V39.6271C93.3891 39.7553 93.335 39.8759 93.2544 39.9782C93.1737 40.0799 93.0702 40.1612 92.9524 40.2157C92.8217 40.2741 92.6798 40.3032 92.5367 40.3009C92.3558 40.3075 92.1768 40.2628 92.0203 40.1718ZM92.3302 41.1684C92.2866 41.1596 92.2448 41.1439 92.2062 41.1219V41.0032C92.2414 41.0239 92.2798 41.0388 92.3198 41.0471C92.3696 41.0596 92.4208 41.0657 92.4722 41.0651C92.5375 41.067 92.6017 41.048 92.6555 41.0109C92.6807 40.994 92.701 40.9708 92.7146 40.9437C92.7282 40.9165 92.7345 40.8863 92.7329 40.856C92.7343 40.8241 92.7272 40.7925 92.7122 40.7643C92.6972 40.7362 92.675 40.7125 92.6477 40.6959C92.5734 40.6585 92.4907 40.6408 92.4076 40.6443H92.3302V40.5514L92.4902 40.257H92.609V40.2777L92.4799 40.5359C92.5837 40.5328 92.6855 40.5647 92.7691 40.6262C92.8047 40.6544 92.8331 40.6906 92.8519 40.7319C92.8708 40.7732 92.8795 40.8184 92.8775 40.8638C92.8797 40.9283 92.8607 40.9918 92.8233 41.0445C92.7877 41.0951 92.7385 41.1345 92.6813 41.1581C92.6207 41.1863 92.5545 41.2005 92.4876 41.1994C92.4341 41.1952 92.3813 41.1848 92.3302 41.1684Z" fill="#100E1A"/>
<path d="M94.788 40.1692C94.6372 40.0742 94.5178 39.9368 94.4447 39.7742C94.358 39.5848 94.3156 39.3782 94.3207 39.17C94.3154 38.961 94.3578 38.7535 94.4447 38.5633C94.52 38.4029 94.639 38.2669 94.788 38.1709C94.945 38.0802 95.1231 38.0325 95.3044 38.0325C95.4857 38.0325 95.6638 38.0802 95.8208 38.1709C95.9705 38.2667 96.0904 38.4027 96.1667 38.5633C96.2536 38.7535 96.296 38.961 96.2906 39.17C96.296 39.3791 96.2536 39.5866 96.1667 39.7768C96.0925 39.9408 95.971 40.079 95.8179 40.1737C95.6648 40.2684 95.4869 40.3154 95.307 40.3086C95.1242 40.3128 94.9441 40.2644 94.788 40.1692ZM95.733 40.0401C95.8598 39.957 95.9594 39.8385 96.0196 39.6993C96.0923 39.5326 96.1276 39.3519 96.1228 39.17C96.1276 38.9882 96.0923 38.8075 96.0196 38.6408C95.9576 38.5027 95.8583 38.3847 95.733 38.3C95.6044 38.2202 95.4557 38.179 95.3044 38.1812C95.1519 38.1783 95.0019 38.2205 94.8732 38.3026C94.748 38.3867 94.6494 38.505 94.5892 38.6434C94.5177 38.8059 94.4824 38.9821 94.486 39.1597C94.4812 39.3416 94.5165 39.5223 94.5892 39.689C94.6477 39.8293 94.7473 39.9486 94.875 40.0312C95.0027 40.1137 95.1524 40.1555 95.3044 40.1511C95.455 40.1566 95.604 40.118 95.733 40.0401Z" fill="#100E1A"/>
<path d="M97.3414 37.2131H97.4937V40.2725H97.3311L97.3414 37.2131ZM97.4524 39.1959H97.5092L98.7485 38.0676H98.9602L97.881 39.0539L97.4602 39.4334L97.4524 39.1959ZM97.7881 39.0978L97.8991 38.9868L98.9705 40.2777H98.7846L97.7881 39.0978Z" fill="#100E1A"/>
<path d="M101.431 38.0677H101.594V38.5246C101.647 38.3822 101.742 38.2596 101.867 38.1735C102.011 38.0773 102.182 38.0286 102.355 38.0341C102.463 38.0286 102.57 38.0455 102.67 38.0837C102.771 38.1219 102.862 38.1807 102.939 38.2561C103.09 38.4299 103.167 38.6561 103.153 38.8861V40.2725H102.99V38.9042C102.998 38.8071 102.985 38.7096 102.954 38.6174C102.923 38.5252 102.874 38.4401 102.81 38.3671C102.745 38.3034 102.668 38.2538 102.583 38.2218C102.498 38.1898 102.407 38.176 102.317 38.1813C102.183 38.1787 102.051 38.2126 101.934 38.2794C101.825 38.3389 101.736 38.4285 101.676 38.5375C101.612 38.6628 101.58 38.8022 101.583 38.9429V40.2596H101.421L101.431 38.0677Z" fill="#100E1A"/>
<path d="M104.64 40.1718C104.49 40.0771 104.371 39.9408 104.297 39.7794C104.211 39.589 104.169 39.3815 104.175 39.1727C104.169 38.9638 104.211 38.7564 104.297 38.5659C104.354 38.4481 104.436 38.3435 104.536 38.2587C104.636 38.174 104.752 38.1109 104.878 38.0735C105.004 38.0362 105.136 38.0253 105.266 38.0416C105.396 38.0579 105.522 38.1011 105.634 38.1684C105.779 38.2605 105.895 38.3922 105.967 38.5479C106.051 38.7271 106.093 38.9232 106.089 39.121V39.2011H104.255V39.0617H106.014L105.928 39.1753V39.121C105.933 38.9486 105.898 38.7775 105.828 38.6202C105.769 38.4864 105.672 38.3732 105.549 38.295C105.426 38.2169 105.282 38.1772 105.136 38.1813C104.99 38.1789 104.846 38.2192 104.723 38.2974C104.6 38.3771 104.503 38.4899 104.441 38.6227C104.371 38.7791 104.336 38.9495 104.341 39.121V39.1753C104.335 39.3605 104.37 39.5448 104.444 39.7149C104.505 39.8532 104.605 39.9701 104.733 40.0505C104.863 40.1278 105.013 40.1671 105.164 40.1641C105.278 40.1687 105.391 40.1511 105.497 40.1124C105.596 40.0765 105.685 40.0171 105.755 39.9395C105.82 39.8645 105.868 39.7764 105.895 39.6813V39.6658H106.06V39.6839C106.037 39.7756 105.998 39.8628 105.947 39.942C105.895 40.0213 105.829 40.0904 105.753 40.146C105.675 40.2038 105.587 40.2483 105.495 40.2777C105.389 40.3088 105.279 40.3236 105.169 40.3216C104.982 40.3249 104.798 40.2728 104.64 40.1718Z" fill="#100E1A"/>
<path d="M107.351 40.1899C107.268 40.0837 107.227 39.9501 107.237 39.8155V38.2096H106.91V38.0676H107.237V37.4713H107.403V38.0676H107.86V38.2096H107.403V39.8078C107.395 39.9066 107.423 40.0048 107.483 40.084C107.515 40.1143 107.553 40.1374 107.595 40.1516C107.637 40.1659 107.681 40.171 107.725 40.1666H107.803H107.86V40.3035L107.787 40.3164H107.697C107.634 40.3205 107.57 40.3113 107.511 40.2895C107.451 40.2678 107.397 40.2338 107.351 40.1899Z" fill="#100E1A"/>
</svg>
